<svg xmlns="http://www.w3.org/2000/svg" width="134" height="29" fill="none"><path fill="#78716C" d="M46.748 23.262c-4.304 3.174-10.542 4.851-15.902 4.851-7.515 0-14.298-2.772-19.443-7.405-.4-.364-.037-.876.437-.582 5.545 3.21 12.365 5.142 19.443 5.142 4.778 0 9.993-.986 14.81-3.028.765-.291 1.347.513.655 1.023Z"/><path fill="#78716C" d="M48.536 21.22c-.547-.691-3.647-.327-5.034-.181-.436.036-.473-.328-.109-.583 2.445-1.714 6.492-1.24 6.968-.655.474.582-.109 4.632-2.444 6.565-.365.29-.692.145-.547-.255.544-1.28 1.712-4.162 1.166-4.89ZM43.612 8.27V6.593a.42.42 0 0 1 .437-.437h7.515a.42.42 0 0 1 .437.437v1.459c0 .255-.219.546-.583 1.058l-3.904 5.582c1.459-.036 2.991.182 4.305.913.29.182.364.4.4.656v1.787c0 .255-.255.546-.546.4-2.336-1.204-5.397-1.35-7.952 0-.254.146-.546-.146-.546-.4v-1.714c0-.256 0-.729.292-1.168l4.523-6.493h-3.94c-.256.037-.438-.148-.438-.403ZM16.145 18.776h-2.297a.404.404 0 0 1-.4-.4V6.628c0-.219.181-.437.436-.437H16c.218 0 .4.182.4.4v1.532h.037c.546-1.495 1.605-2.187 3.027-2.187 1.423 0 2.336.692 2.955 2.187.547-1.495 1.824-2.187 3.174-2.187.949 0 2.005.4 2.663 1.277.728.986.583 2.409.583 3.683v7.405a.443.443 0 0 1-.437.437h-2.297c-.218 0-.4-.182-.4-.437v-6.237c0-.51.036-1.714-.073-2.187-.183-.804-.692-1.023-1.35-1.023-.547 0-1.132.365-1.387.95-.218.582-.218 1.568-.218 2.26v6.237a.443.443 0 0 1-.437.437h-2.26c-.219 0-.401-.182-.401-.437v-6.237c0-1.313.218-3.246-1.423-3.246s-1.568 1.896-1.568 3.246v6.237c-.006.292-.188.474-.442.474ZM58.491 5.937c3.392 0 5.252 2.918 5.252 6.638 0 3.574-2.042 6.42-5.252 6.42-3.319 0-5.142-2.92-5.142-6.566-.036-3.646 1.824-6.492 5.142-6.492Zm0 2.406c-1.677 0-1.786 2.297-1.786 3.72 0 1.422-.037 4.486 1.786 4.486 1.787 0 1.86-2.481 1.86-3.977 0-.986-.036-2.187-.328-3.1-.29-.801-.8-1.129-1.532-1.129ZM68.121 18.776h-2.297c-.218 0-.4-.183-.4-.438V6.592c.036-.218.218-.4.437-.4h2.114c.183 0 .365.145.401.327v1.787h.036c.656-1.605 1.532-2.372 3.137-2.372 1.022 0 2.042.364 2.664 1.386.582.95.582 2.518.582 3.647v7.405a.433.433 0 0 1-.436.364h-2.297c-.219 0-.4-.182-.4-.364V11.99c0-1.277.145-3.173-1.424-3.173-.546 0-1.058.364-1.313.95-.328.728-.364 1.422-.364 2.223v6.347c0 .257-.182.44-.44.44ZM41.64 16.625c-.4-.583-.876-1.059-.876-2.115v-3.574c0-1.495.146-2.918-.986-3.94-.876-.84-2.335-1.132-3.428-1.132-2.188 0-4.596.804-5.106 3.501-.036.292.146.437.328.474l2.224.255c.218 0 .364-.219.4-.437.182-.913.986-1.387 1.824-1.387.473 0 .95.182 1.24.583.328.473.219 1.131.219 1.678v.29c-1.095.146-2.991.256-4.232.805-1.423.619-2.409 1.896-2.409 3.756 0 2.372 1.532 3.573 3.429 3.573 1.64 0 2.517-.4 3.792-1.677.4.582.546.913 1.313 1.532.182.109.401.073.547-.037.473-.4 1.277-1.131 1.75-1.532.193-.18.117-.434-.028-.616Zm-4.156-3.467h.073c0 .876.036 1.64-.4 2.445-.365.655-.914 1.058-1.57 1.058-.876 0-1.458-.655-1.458-1.677 0-1.933 1.896-2.297 3.355-2.297v.47ZM11.694 16.625c-.4-.583-.84-1.059-.84-2.115v-3.574c0-1.495.072-2.918-1.06-3.94-.876-.84-2.335-1.132-3.464-1.132-2.187 0-4.632.804-5.142 3.501-.036.292.146.437.328.474l2.224.255c.218 0 .364-.219.4-.437.182-.913.986-1.387 1.824-1.387.473 0 1.022.182 1.277.583.327.473.291 1.131.291 1.678v.29c-1.46.146-3.064.256-4.305.805-1.423.619-2.445 1.896-2.445 3.756 0 2.372 1.496 3.573 3.428 3.573 1.642 0 2.518-.4 3.793-1.677.4.582.546.913 1.313 1.532.182.109.4.073.547-.037.473-.4 1.313-1.131 1.786-1.532.19-.18.19-.434.045-.616Zm-4.56-1.059c-.364.656-.95 1.059-1.568 1.059-.877 0-1.387-.656-1.387-1.678 0-1.932 1.569-2.297 3.392-2.297v.51c0 .874.036 1.639-.437 2.406ZM85.45 18.776l-5.328-6.492h-.036v6.492h-1.933V.136h1.933v10.58h.036l4.56-4.378H87.2l-5.473 5.07 6.165 7.368h-2.443ZM90.118 3.71a1.37 1.37 0 0 1-1.35-1.35c0-.728.62-1.35 1.35-1.35.728 0 1.35.62 1.35 1.35 0 .768-.585 1.35-1.35 1.35Zm-.95 15.066V6.337h1.933v12.439H89.17ZM101.899 18.776v-7.66c0-1.569-.255-3.283-2.151-3.283-1.533 0-2.919 1.095-3.866 1.897v9.046H93.95V6.338h1.568l.255 1.495c1.35-1.058 2.7-1.823 4.45-1.823 1.787 0 3.574 1.277 3.574 4.378v8.352l-1.898.036ZM112.258 19.03c-3.464 0-6.383-2.041-6.383-6.31 0-3.865 2.773-6.71 6.42-6.71.913 0 1.532.073 2.005.218V.137h1.933v18.02c-.765.437-2.188.874-3.975.874Zm2.079-11.015c-.51-.182-.95-.327-1.933-.327-2.445 0-4.56 1.932-4.56 4.887 0 2.81 1.569 4.815 4.779 4.815.619 0 1.313-.146 1.714-.328V8.015ZM121.231 19.03c-1.532 0-2.187-.985-2.187-2.296V.137h1.933v15.72c0 1.168.291 1.423 1.022 1.423.145 0 .327 0 .655-.073l.219 1.387c-.549.291-1.023.437-1.642.437ZM126.01 12.866c0 2.372 1.35 4.487 4.049 4.487 1.132 0 2.297-.437 3.028-.913l.619 1.35c-.913.619-2.481 1.204-3.865 1.204-3.977 0-5.873-3.173-5.873-6.747 0-3.61 2.042-6.274 5.033-6.274 3.21 0 4.96 2.555 4.96 6.42v.437h-7.951v.036Zm3.027-5.215c-1.823 0-2.991 1.641-2.991 3.61h5.873c-.036-1.75-1.022-3.61-2.882-3.61Z"/></svg>