<svg width="126" height="126" viewBox="0 0 126 126" fill="none" xmlns="http://www.w3.org/2000/svg">
<path fill-rule="evenodd" clip-rule="evenodd" d="M105.778 0.666748C116.409 0.666748 125.059 9.15053 125.327 19.7174L125.333 20.2223V66.5534C125.333 76.7055 117.049 83.6434 108.222 83.68V105.778C108.222 116.578 99.4665 125.333 88.6665 125.333H20.2221C9.59082 125.333 0.940568 116.849 0.672472 106.283L0.666504 105.778V37.3334C0.666504 26.5332 9.42182 17.7779 20.2221 17.7779H42.3748C43.5778 8.13141 51.8053 0.666748 61.7776 0.666748H105.778ZM61.7776 5.55564C53.6774 5.55564 47.111 12.1221 47.1109 20.2223V22.6667H20.2221C12.1219 22.6667 5.55539 29.2332 5.55539 37.3334V105.778C5.55572 113.878 12.1221 120.445 20.2221 120.445H88.6665C96.7665 120.445 103.333 113.878 103.333 105.778V77.7718C111.059 81.2016 120.444 75.6636 120.444 66.5534V20.2223C120.444 12.1221 113.878 5.55564 105.778 5.55564H61.7776Z" fill="white"/>
<path d="M105.778 5.55493C113.878 5.55493 120.445 12.1214 120.445 20.2216V66.5527C120.445 75.6633 111.06 81.2011 103.333 77.7711V105.777C103.333 113.877 96.767 120.444 88.6668 120.444H20.2223C12.1222 120.444 5.55566 113.877 5.55566 105.777V37.3327C5.55566 29.2325 12.1222 22.666 20.2223 22.666H47.1112V20.2216C47.1112 12.1214 53.6777 5.55493 61.7779 5.55493H105.778Z" fill="#1C1917"/>
<path d="M27.9742 78.7881C30.4312 77.6687 33.3299 78.7528 34.4493 81.2098C36.2783 85.2247 38.7085 87.5788 41.9283 89.0289C45.3494 90.5697 50.0444 91.2598 56.6272 91.0843L56.879 91.0831C59.4645 91.1453 61.5752 93.2261 61.645 95.8407C61.7167 98.5396 59.5863 100.786 56.8874 100.858L55.5494 100.884C48.9019 100.958 42.9537 100.215 37.9131 97.945C32.3353 95.4329 28.2731 91.2353 25.5524 85.2632C24.4332 82.8063 25.5174 79.9076 27.9742 78.7881Z" fill="white"/>
<path d="M105.779 15.3328C108.478 15.333 110.668 17.5218 110.668 20.2217V66.5527C110.668 68.5875 108.326 69.7318 106.72 68.4815L83.7786 50.6149L60.8357 68.4815C59.2303 69.7318 56.8898 68.5875 56.8898 66.5527V20.2217C56.8898 17.5216 59.0786 15.3328 61.7786 15.3328H105.779Z" fill="white"/>
</svg>
