<svg width="154" height="154" viewBox="0 0 154 154" fill="none" xmlns="http://www.w3.org/2000/svg">
<path fill-rule="evenodd" clip-rule="evenodd" d="M119.778 14.6667C130.409 14.6667 139.059 23.1505 139.327 33.7174L139.333 34.2223V80.5534C139.333 90.7055 131.049 97.6434 122.222 97.68V119.778C122.222 130.578 113.467 139.333 102.667 139.333H34.2221C23.5908 139.333 14.9406 130.849 14.6725 120.283L14.6665 119.778V51.3334C14.6665 40.5332 23.4218 31.7779 34.2221 31.7779H56.3748C57.5778 22.1314 65.8053 14.6667 75.7776 14.6667H119.778ZM75.7776 19.5556C67.6774 19.5556 61.111 26.1221 61.1109 34.2223V36.6667H34.2221C26.1219 36.6667 19.5554 43.2332 19.5554 51.3334V119.778C19.5557 127.878 26.1221 134.445 34.2221 134.445H102.667C110.766 134.445 117.333 127.878 117.333 119.778V91.7718C125.059 95.2016 134.444 89.6636 134.444 80.5534V34.2223C134.444 26.1221 127.878 19.5556 119.778 19.5556H75.7776Z" fill="white"/>
<path d="M119.778 19.5549C127.878 19.5549 134.445 26.1214 134.445 34.2216V80.5527C134.445 89.6633 125.06 95.2011 117.333 91.7711V119.777C117.333 127.877 110.767 134.444 102.667 134.444H34.2223C26.1222 134.444 19.5557 127.877 19.5557 119.777V51.3327C19.5557 43.2325 26.1222 36.666 34.2223 36.666H61.1112V34.2216C61.1112 26.1214 67.6777 19.5549 75.7779 19.5549H119.778Z" fill="#1C1917"/>
<path d="M41.9742 92.7881C44.4312 91.6687 47.3299 92.7528 48.4493 95.2098C50.2783 99.2247 52.7085 101.579 55.9283 103.029C59.3494 104.57 64.0444 105.26 70.6272 105.084L70.879 105.083C73.4645 105.145 75.5752 107.226 75.645 109.841C75.7167 112.54 73.5863 114.786 70.8874 114.858L69.5494 114.884C62.9019 114.958 56.9537 114.215 51.9131 111.945C46.3353 109.433 42.2731 105.235 39.5524 99.2632C38.4332 96.8063 39.5174 93.9076 41.9742 92.7881Z" fill="white"/>
<path d="M119.779 29.3328C122.478 29.333 124.668 31.5218 124.668 34.2217V80.5527C124.668 82.5875 122.326 83.7318 120.72 82.4815L97.7786 64.6149L74.8357 82.4815C73.2303 83.7318 70.8898 82.5875 70.8898 80.5527V34.2217C70.8898 31.5216 73.0786 29.3328 75.7786 29.3328H119.779Z" fill="white"/>
</svg>
