<svg width="126" height="126" viewBox="0 0 126 126" fill="none" xmlns="http://www.w3.org/2000/svg">
<path fill-rule="evenodd" clip-rule="evenodd" d="M98 12C106.698 12 113.776 18.9413 113.995 27.5869L114 28V65.9072C114 74.2136 107.222 79.89 100 79.9199V98C99.9997 106.836 92.8364 114 84 114H28C19.3017 114 12.2242 107.059 12.0049 98.4131L12 98V42C12 33.1634 19.1634 26 28 26H46.125C47.1093 18.1074 53.8408 12 62 12H98ZM62 16C55.3726 16 50 21.3726 50 28V30H28C21.3726 30 16 35.3726 16 42V98C16.0003 104.627 21.3727 110 28 110H84C90.6273 110 95.9997 104.627 96 98V75.0859C102.321 77.8921 110 73.361 110 65.9072V28C110 21.3726 104.627 16 98 16H62Z" fill="white"/>
<path d="M98 15.9995C104.627 15.9995 110 21.3721 110 27.9995V65.9067C110 73.3609 102.321 77.8919 96 75.0854V97.9995C96 104.627 90.6274 110 84 110H28C21.3726 110 16 104.627 16 97.9995V41.9995C16 35.3721 21.3726 29.9995 28 29.9995H50V27.9995C50 21.3721 55.3726 15.9995 62 15.9995H98Z" fill="#1C1917"/>
<path d="M34.3423 75.9175C36.3526 75.0017 38.7243 75.8887 39.6402 77.8989C41.1366 81.1838 43.125 83.1099 45.7593 84.2964C48.5584 85.557 52.3998 86.1217 57.7857 85.978L57.9917 85.9771C60.1072 86.0279 61.8341 87.7304 61.8912 89.8696C61.9498 92.0778 60.2068 93.9162 57.9986 93.9751L56.9039 93.9956C51.465 94.0561 46.5983 93.4487 42.4742 91.5913C37.9106 89.536 34.5869 86.1016 32.3609 81.2153C31.4451 79.2051 32.3323 76.8334 34.3423 75.9175Z" fill="white"/>
<path d="M98.0005 23.9995C100.209 23.9997 102.001 25.7905 102.001 27.9995V65.9067C102.001 67.5716 100.085 68.5078 98.771 67.4849L80.0005 52.8667L61.229 67.4849C59.9155 68.5078 58.0005 67.5716 58.0005 65.9067V27.9995C58.0005 25.7904 59.7914 23.9995 62.0005 23.9995H98.0005Z" fill="white"/>
</svg>
