<svg width="529" height="126" viewBox="0 0 529 126" fill="none" xmlns="http://www.w3.org/2000/svg">
<path fill-rule="evenodd" clip-rule="evenodd" d="M98.7148 12C107.413 12 114.491 18.9413 114.71 27.5869L114.715 28V65.9072C114.715 74.2136 107.937 79.89 100.715 79.9199V98C100.715 106.836 93.5512 114 84.7148 114H28.7148C20.0166 114 12.9391 107.059 12.7197 98.4131L12.7148 98V42C12.7148 33.1634 19.8783 26 28.7148 26H46.8398C47.8241 18.1074 54.5557 12 62.7148 12H98.7148ZM62.7148 16C56.0874 16 50.7148 21.3726 50.7148 28V30H28.7148C22.0874 30 16.7148 35.3726 16.7148 42V98C16.7151 104.627 22.0876 110 28.7148 110H84.7148C91.3421 110 96.7146 104.627 96.7148 98V75.0859C103.036 77.8921 110.715 73.361 110.715 65.9072V28C110.715 21.3726 105.342 16 98.7148 16H62.7148Z" fill="white"/>
<path d="M98.7148 15.9995C105.342 15.9995 110.715 21.3721 110.715 27.9995V65.9067C110.715 73.3609 103.036 77.8919 96.7148 75.0854V97.9995C96.7148 104.627 91.3423 110 84.7148 110H28.7148C22.0874 110 16.7148 104.627 16.7148 97.9995V41.9995C16.7148 35.3721 22.0874 29.9995 28.7148 29.9995H50.7148V27.9995C50.7148 21.3721 56.0874 15.9995 62.7148 15.9995H98.7148Z" fill="#1C1917"/>
<path d="M35.0572 75.9175C37.0675 75.0017 39.4392 75.8887 40.355 77.8989C41.8515 81.1838 43.8398 83.1099 46.4742 84.2964C49.2732 85.557 53.1146 86.1217 58.5005 85.978L58.7066 85.9771C60.822 86.0279 62.5489 87.7304 62.606 89.8696C62.6647 92.0778 60.9216 93.9162 58.7134 93.9751L57.6187 93.9956C52.1799 94.0561 47.3132 93.4487 43.189 91.5913C38.6254 89.536 35.3017 86.1016 33.0757 81.2153C32.16 79.2051 33.0471 76.8334 35.0572 75.9175Z" fill="white"/>
<path d="M98.7154 23.9995C100.924 23.9997 102.715 25.7905 102.715 27.9995V65.9067C102.715 67.5716 100.799 68.5078 99.4859 67.4849L80.7154 52.8667L61.9439 67.4849C60.6303 68.5078 58.7154 67.5716 58.7154 65.9067V27.9995C58.7154 25.7904 60.5062 23.9995 62.7154 23.9995H98.7154Z" fill="white"/>
<path fill-rule="evenodd" clip-rule="evenodd" d="M185.428 51.2705C196.087 51.2706 203.057 58.65 203.058 69.6377V72.0977H176.571V72.6719C176.571 81.4459 181.082 86.9404 188.298 86.9404C192.48 86.9403 196.908 85.0542 200.68 81.4463V85.874C197.072 91.04 191.414 93.9101 185.018 93.9102C173.456 93.9102 165.502 85.464 165.502 72.918C165.502 60.126 173.948 51.2705 185.428 51.2705ZM185.182 55.2881C180.18 55.2881 176.981 60.2081 176.571 68.0801H193.054C193.054 60.2082 189.938 55.2882 185.182 55.2881Z" fill="white"/>
<path fill-rule="evenodd" clip-rule="evenodd" d="M224.679 51.2705C234.027 51.2705 239.931 56.5179 239.931 64.8818V82.8398C239.931 85.8738 241.325 87.5957 243.703 87.5957C244.523 87.5956 245.425 87.3504 246.245 86.9404V90.0557C244.277 92.5156 241.489 93.582 238.455 93.582C233.371 93.582 229.927 90.466 229.435 85.792C227.303 91.1219 222.547 93.9101 217.299 93.9102C210.821 93.9102 205.573 89.6458 205.573 82.8398C205.573 76.8539 209.919 72.59 218.283 70.376L229.106 67.5059V64.8818C229.106 60.3719 226.072 57.748 221.07 57.748C216.806 57.7482 211.968 59.9625 208.36 63.6523V58.8145C212.378 54.0585 218.037 51.2705 224.679 51.2705ZM223.285 72.918C218.365 74.312 215.495 77.3462 215.495 81.2822C215.495 84.972 217.955 87.4315 221.398 87.4316C225.662 87.4316 229.188 83.4139 229.188 77.8379V71.2783L223.285 72.918Z" fill="white"/>
<path fill-rule="evenodd" clip-rule="evenodd" d="M287.755 72.918C287.755 80.6258 287.919 86.4478 288.247 92.6797H277.013L276.931 85.3818C274.553 90.6297 269.633 93.91 263.647 93.9102C253.807 93.9102 247.001 85.136 247.001 73C247.001 60.2901 254.217 51.2697 264.139 51.2695C269.879 51.2695 274.553 54.3039 276.849 59.3057V51.2695C276.849 43.9718 276.767 38.2319 276.439 32H287.755V72.918ZM268.075 57.2559C262.417 57.2559 258.645 63.1599 258.645 72.5898C258.645 82.1018 262.253 87.8418 267.911 87.8418C273.569 87.6777 277.259 81.9378 277.259 72.5898C277.259 63.1601 273.569 57.42 268.075 57.2559Z" fill="white"/>
<path fill-rule="evenodd" clip-rule="evenodd" d="M313.723 51.2705C324.383 51.2705 331.352 58.6499 331.353 69.6377V72.0977H304.867V72.6719C304.867 81.4458 309.377 86.9404 316.593 86.9404C320.775 86.9404 325.203 85.0541 328.975 81.4463V85.874C325.367 91.0399 319.708 93.9102 313.312 93.9102C301.751 93.91 293.797 85.4638 293.797 72.918C293.797 60.1261 302.243 51.2706 313.723 51.2705ZM313.477 55.2881C308.475 55.2883 305.277 60.2082 304.867 68.0801H321.349C321.349 60.2081 318.233 55.2881 313.477 55.2881Z" fill="white"/>
<path fill-rule="evenodd" clip-rule="evenodd" d="M413.759 72.918C413.759 80.6258 413.922 86.4478 414.25 92.6797H403.017L402.935 85.3818C400.557 90.6298 395.636 93.9102 389.65 93.9102C379.81 93.9101 373.005 85.136 373.005 73C373.005 60.29 380.221 51.2695 390.143 51.2695C395.882 51.2696 400.557 54.3038 402.853 59.3057V51.2695C402.853 43.9718 402.77 38.2319 402.442 32H413.759V72.918ZM394.078 57.2559C388.42 57.256 384.648 63.1601 384.648 72.5898C384.648 82.1017 388.256 87.8416 393.914 87.8418C399.572 87.6778 403.263 81.9378 403.263 72.5898C403.263 63.1599 399.572 57.4199 394.078 57.2559Z" fill="white"/>
<path d="M463.06 51.2705C467.078 51.2705 470.768 52.0084 473.884 53.4023V61.3564C469.784 57.4204 466.011 55.5342 462.403 55.5342C455.761 55.5343 451.252 61.9304 451.252 71.3604C451.252 80.9542 455.762 86.8584 462.813 86.8584C466.831 86.8584 470.932 84.9723 474.294 81.6104V85.9561C470.522 91.2041 465.273 93.9102 458.959 93.9102C447.643 93.9099 439.69 85.956 439.689 73.9844C439.689 60.6184 449.53 51.2705 463.06 51.2705Z" fill="white"/>
<path d="M363.944 80.9541C367.634 80.9541 370.504 83.6606 370.504 87.3506C370.504 90.9583 367.634 93.7461 363.944 93.7461C360.255 93.7461 357.385 90.9583 357.385 87.3506C357.385 83.6606 360.254 80.9541 363.944 80.9541Z" fill="white"/>
<path d="M494.466 52.582L504.634 52.5V57.0928L494.63 57.0107V81.7744C494.63 85.6283 496.434 87.6787 499.468 87.6787C501.19 87.6787 502.994 87.104 504.634 85.792V89.6465C502.748 92.1884 499.385 93.582 495.695 93.582C488.152 93.5819 483.806 89.1542 483.806 81.6924V57.0107L476.18 57.0928V52.5L483.97 52.582V41.1025L494.466 37.9043V52.582Z" fill="white"/>
<path d="M161.483 51.8447C163.115 51.8447 164.342 52.25 164.354 52.2539V62.3398C161.976 61.1099 160.171 60.6182 158.285 60.6182C153.365 60.6183 150.086 64.5549 150.086 72.2627V74.9678C150.086 81.3638 150.167 87.0227 150.495 92.6807H138.688C139.015 86.6127 139.098 80.9539 139.098 72.8359V71.7705C139.098 64.2265 139.015 58.568 138.688 52.5H149.758V63.4062C151.152 56.2723 155.497 51.8448 161.483 51.8447Z" fill="white"/>
<path d="M359.106 51.8447C360.739 51.8447 361.965 52.25 361.977 52.2539V62.3398C359.599 61.1099 357.794 60.6182 355.908 60.6182C350.988 60.6184 347.709 64.5549 347.709 72.2627V74.9678C347.709 81.3638 347.79 87.0227 348.118 92.6807H336.311C336.639 86.6127 336.721 80.9539 336.721 72.8359V71.7705C336.721 64.2265 336.639 58.568 336.311 52.5H347.381V63.4062C348.775 56.2723 353.121 51.8448 359.106 51.8447Z" fill="white"/>
<path d="M433.803 72.918C433.803 80.9538 433.885 86.6118 434.213 92.6797H422.405C422.733 86.6118 422.815 80.9538 422.815 72.918V71.7695C422.815 64.6357 422.733 58.8139 422.405 52.5H433.803V72.918Z" fill="white"/>
<path d="M428.146 33.1484C431.753 33.1486 434.459 35.772 434.459 39.2979C434.459 42.7417 431.753 45.448 428.146 45.4482C424.702 45.4482 421.913 42.7419 421.913 39.2979C421.913 35.7719 424.702 33.1484 428.146 33.1484Z" fill="white"/>
</svg>
