<svg xmlns="http://www.w3.org/2000/svg" width="90" height="29" fill="none"><path fill="#78716C" d="M20.296 28.217H4.395c-1.888 0-3.434-1.469-3.434-3.264V3.4C.961 1.605 2.507.137 4.395.137h15.9c1.889 0 3.434 1.468 3.434 3.263v21.553c0 1.795-1.545 3.264-3.433 3.264Z"/><path fill="#fff" d="M19.651 28.217H4.281c-1.826 0-3.32-1.469-3.32-3.264V3.4c0-1.795 1.494-3.263 3.32-3.263h15.37c1.826 0 3.32 1.468 3.32 3.263v21.553c0 1.795-1.494 3.264-3.32 3.264Z"/><path fill="#78716C" d="M12.4 20.018c3.15 0 5.713 2.576 5.713 5.743 0 .82-.172 1.6-.48 2.306H7.17a5.736 5.736 0 0 1-.481-2.306c0-3.167 2.562-5.743 5.712-5.743Z"/><path fill="#78716C" d="M15.639.137 9.506 6.823a2.677 2.677 0 0 0-.702 1.807v.41c0 .503.28 1.041.777 1.504 1.456 1.356 4.426 4.324 5.727 5.368.852.684.912 1.203 3.56 1.167.455-.006 1.858.003 3.203 0-.62-.265-1.219-.77-1.997-1.437-3.707-3.179-6.57-5.977-7.421-6.983l7.71-8.28a3.258 3.258 0 0 1 2.01 3.004v21.438c0 .874-.35 1.67-.914 2.255.062-.43.095-.869.095-1.315 0-5.074-4.106-9.202-9.153-9.202-5.047 0-9.153 4.128-9.153 9.202 0 .77.095 1.519.274 2.235a3.255 3.255 0 0 1-2.56-3.175V3.383A3.252 3.252 0 0 1 3.775.165v16.914l1.913-1.607 1.913 1.607V.137h8.037ZM35.173 10.166l-1.364 2.17a4.733 4.733 0 0 0-.825-.72c-.3-.207-.603-.31-.91-.31-.165 0-.346.037-.541.114a1.556 1.556 0 0 0-.549.383c-.17.179-.315.414-.432.705-.118.29-.177.648-.177 1.076v5.803h-2.57V9.096h2.57v1.106c.306-.44.645-.778 1.017-1.016a2.277 2.277 0 0 1 1.25-.356c.447 0 .887.122 1.317.365.43.243.836.567 1.214.97ZM46.63 14.223c0 .167-.01.34-.028.518-.016.178-.037.362-.06.552H38.36c.094.296.226.578.398.845.172.267.382.499.63.695.247.196.527.35.84.462.313.113.659.169 1.037.169.46 0 .92-.08 1.38-.239.46-.16.844-.377 1.15-.65l1.613 1.619c-.709.534-1.403.912-2.083 1.132a6.954 6.954 0 0 1-2.15.329 5.498 5.498 0 0 1-3.886-1.585 5.395 5.395 0 0 1-1.586-3.829c0-.747.142-1.45.426-2.107a5.327 5.327 0 0 1 1.169-1.718 5.601 5.601 0 0 1 1.734-1.158 5.315 5.315 0 0 1 2.125-.428c.722 0 1.412.134 2.072.401a5.65 5.65 0 0 1 1.754 1.113 5.217 5.217 0 0 1 1.646 3.88Zm-2.675-.995a3.083 3.083 0 0 0-1.07-1.576 2.778 2.778 0 0 0-1.746-.597c-.638 0-1.21.2-1.718.597a3.12 3.12 0 0 0-1.061 1.576h5.595ZM56.545 19.387h-2.567v-.552c-.45.308-.925.522-1.427.64a6.64 6.64 0 0 1-1.548.18c-.496 0-.944-.074-1.346-.223a3.038 3.038 0 0 1-1.046-.642 2.886 2.886 0 0 1-.68-.988c-.161-.38-.24-.8-.24-1.264 0-.58.126-1.087.38-1.52a3.309 3.309 0 0 1 1.035-1.087 4.8 4.8 0 0 1 1.532-.651 7.97 7.97 0 0 1 1.888-.214h1.47c0-.605-.195-1.085-.585-1.441-.39-.356-.95-.534-1.682-.534-.354 0-.72.066-1.098.196-.378.13-.756.368-1.133.712l-1.505-1.532a5.742 5.742 0 0 1 1.884-1.209 5.91 5.91 0 0 1 2.206-.428c.708 0 1.338.113 1.892.338.556.225 1.005.516 1.349.872.448.452.763.957.945 1.515.184.557.276 1.269.276 2.135v5.697Zm-2.567-2.563V14.92h-1.17c-.353 0-.687.025-1 .072a2.805 2.805 0 0 0-.816.24c-.23.112-.413.258-.549.436-.134.177-.201.39-.201.64 0 .355.137.647.414.873.278.225.635.338 1.073.338.377 0 .752-.06 1.124-.178a5.4 5.4 0 0 0 1.125-.516ZM67.986 19.387h-2.603v-.533a3.234 3.234 0 0 1-1.081.596 4.036 4.036 0 0 1-1.24.187c-.72 0-1.38-.146-1.984-.437a4.936 4.936 0 0 1-1.559-1.175 5.377 5.377 0 0 1-1.017-1.718 5.895 5.895 0 0 1-.362-2.065c0-.772.139-1.486.416-2.144a5.686 5.686 0 0 1 1.107-1.718 5.19 5.19 0 0 1 1.574-1.149 4.23 4.23 0 0 1 1.826-.418 4.6 4.6 0 0 1 1.274.177c.414.12.769.285 1.064.498V4.611h2.585v14.776ZM65.42 16.63v-4.95a3.09 3.09 0 0 0-.407-.24 3.556 3.556 0 0 0-1.418-.366c-.425 0-.811.075-1.16.223a2.656 2.656 0 0 0-.912.642 2.89 2.89 0 0 0-.603 1.005c-.14.391-.21.825-.21 1.299 0 .463.07.886.21 1.272.142.386.337.718.585.998.248.279.545.496.894.65.35.155.73.232 1.144.232.672 0 1.298-.255 1.877-.765ZM80.681 14.223c0 .167-.009.34-.027.518-.017.178-.037.362-.06.552H72.41c.094.296.227.578.4.845.17.267.38.499.628.695.248.196.528.35.84.462.314.113.66.169 1.038.169.46 0 .919-.08 1.38-.239.46-.16.844-.377 1.15-.65l1.613 1.619c-.71.534-1.404.912-2.083 1.132a6.954 6.954 0 0 1-2.15.329 5.497 5.497 0 0 1-3.886-1.585 5.395 5.395 0 0 1-1.586-3.829 5.326 5.326 0 0 1 1.595-3.826 5.6 5.6 0 0 1 1.733-1.157 5.315 5.315 0 0 1 2.126-.428c.721 0 1.412.134 2.072.401a5.65 5.65 0 0 1 1.754 1.113 5.215 5.215 0 0 1 1.646 3.88Zm-2.674-.995a3.084 3.084 0 0 0-1.071-1.576 2.778 2.778 0 0 0-1.745-.597c-.638 0-1.21.2-1.718.597a3.12 3.12 0 0 0-1.062 1.576h5.596ZM89.64 10.166l-1.364 2.17a4.73 4.73 0 0 0-.824-.72c-.3-.207-.604-.31-.91-.31-.165 0-.346.037-.541.114a1.558 1.558 0 0 0-.55.383c-.17.179-.314.414-.431.705-.119.29-.177.648-.177 1.076v5.803h-2.57V9.096h2.57v1.106c.305-.44.645-.778 1.016-1.016a2.276 2.276 0 0 1 1.25-.356c.448 0 .887.122 1.317.365.432.243.836.567 1.214.97Z"/></svg>