<svg width="127" height="126" viewBox="0 0 127 126" fill="none" xmlns="http://www.w3.org/2000/svg">
<path d="M98.5693 15.9995C105.197 15.9995 110.569 21.3721 110.569 27.9995V65.9067C110.569 73.3609 102.891 77.8919 96.5693 75.0854V97.9995C96.5693 104.627 91.1968 110 84.5693 110H28.5693C21.9419 110 16.5693 104.627 16.5693 97.9995V41.9995C16.5693 35.3721 21.9419 29.9995 28.5693 29.9995H50.5693V27.9995C50.5693 21.3721 55.9419 15.9995 62.5693 15.9995H98.5693Z" fill="#1C1917"/>
<path d="M34.9117 75.9175C36.922 75.0017 39.2936 75.8887 40.2095 77.8989C41.706 81.1838 43.6943 83.1099 46.3287 84.2964C49.1277 85.557 52.9691 86.1217 58.355 85.978L58.5611 85.9771C60.6765 86.0279 62.4034 87.7304 62.4605 89.8696C62.5192 92.0778 60.7761 93.9162 58.5679 93.9751L57.4732 93.9956C52.0344 94.0561 47.1677 93.4487 43.0435 91.5913C38.4799 89.536 35.1562 86.1016 32.9302 81.2153C32.0145 79.2051 32.9016 76.8334 34.9117 75.9175Z" fill="white"/>
<path d="M98.5699 23.9995C100.779 23.9997 102.57 25.7905 102.57 27.9995V65.9067C102.57 67.5716 100.654 68.5078 99.3404 67.4849L80.5699 52.8667L61.7984 67.4849C60.4848 68.5078 58.5699 67.5716 58.5699 65.9067V27.9995C58.5699 25.7904 60.3607 23.9995 62.5699 23.9995H98.5699Z" fill="white"/>
</svg>
