<svg width="211" height="20" viewBox="0 0 211 20" fill="none" xmlns="http://www.w3.org/2000/svg">
<g clip-path="url(#clip0_241_856)">
<path fill-rule="evenodd" clip-rule="evenodd" d="M195.148 0.041748L211.001 19.8628H207.041L201.09 12.4237L195.138 19.8623H191.181L199.111 9.94639L191.189 0.041748H195.148Z" fill="white"/>
<path fill-rule="evenodd" clip-rule="evenodd" d="M202.167 6.18187L207.034 0.041748H210.995L204.148 8.65562L202.167 6.18187" fill="#86C22B"/>
<path fill-rule="evenodd" clip-rule="evenodd" d="M175.383 10.0054C175.383 13.7924 178.454 16.8626 182.24 16.8626C186.028 16.8626 189.099 13.7922 189.099 10.0054C189.099 6.21663 186.028 3.14867 182.24 3.14867C178.454 3.14867 175.383 6.21663 175.383 10.0054ZM172.341 10.0054C172.341 4.5376 176.773 0.10498 182.24 0.10498C187.708 0.10498 192.141 4.53802 192.141 10.0054C192.141 15.4726 187.708 19.9065 182.24 19.9065C176.773 19.9065 172.341 15.4726 172.341 10.0054ZM153.405 10.0054C153.405 13.7924 156.473 16.8626 160.261 16.8626C164.049 16.8626 167.117 13.7922 167.117 10.0054C167.117 6.21663 164.049 3.14867 160.261 3.14867C156.473 3.14867 153.405 6.21663 153.405 10.0054ZM150.36 10.0054C150.36 4.53635 154.794 0.10498 160.261 0.10498C165.73 0.10498 170.163 4.53802 170.163 10.0054C170.163 15.4726 165.73 19.9065 160.261 19.9065C154.794 19.9053 150.36 15.4726 150.36 10.0054Z" fill="white"/>
<path d="M129.619 0.00124505H139.403C139.403 0.00124505 139.786 -0.0023131 140.369 0.0765942C143.294 0.48034 145.721 2.26842 145.721 5.60429C145.721 6.87581 145.346 7.97674 144.711 8.85875C147.253 9.46594 149.237 11.2161 149.237 14.2295C149.237 17.6809 146.465 19.8798 143.303 19.8325H129.619V0.00145436L129.619 0.00124505ZM132.176 11.2065V17.2543H143.311L143.841 17.2045C145.483 16.9594 146.659 16.1172 146.659 14.2295C146.659 12.0852 144.73 11.2161 142.926 11.2065L139.993 11.2073L139.787 11.2065H132.176ZM132.176 2.58049V8.62705L139.795 8.62872L140.328 8.57849C141.967 8.33444 143.142 7.49158 143.142 5.60429C143.142 3.4604 141.215 2.58928 139.411 2.58049H132.176Z" fill="white"/>
<path fill-rule="evenodd" clip-rule="evenodd" d="M113.296 18.2714L113.269 18.2442L105.023 9.70377L112.19 2.01815L112.196 2.01397C112.369 1.82978 112.475 1.59787 112.475 1.34294C112.475 0.756891 111.922 0.28282 111.239 0.28282L107.381 0.281982L101.752 6.31745L95.9247 0.281982H91.6277C90.9441 0.281982 90.3913 0.756682 90.3913 1.34294C90.3913 1.5872 90.4868 1.81052 90.6507 1.99031L98.3513 9.96477L90.6182 18.2574V18.2592C90.4403 18.4413 90.3363 18.677 90.3363 18.9317C90.3363 19.5178 90.8897 19.9927 91.572 19.9927H95.4299L101.481 13.5026L101.62 13.3519L107.661 19.6046L107.662 19.6082C107.889 19.8422 108.232 19.9927 108.615 19.9927H112.329C113.013 19.9927 113.565 19.518 113.565 18.9317C113.565 18.6825 113.464 18.4528 113.296 18.2714ZM85.6973 0.281982H81.1588L74.6049 7.06906L68.0503 0.281982H63.5137C62.8295 0.281982 62.2767 0.756682 62.2767 1.34294C62.2767 1.59787 62.3809 1.82999 62.5546 2.01376L62.5659 2.02359L71.8841 11.3428V18.9317C71.8841 19.5178 72.4388 19.9927 73.1203 19.9927H76.0886C76.7722 19.9927 77.325 19.518 77.325 18.9317V11.3428L86.6433 2.02359L86.6555 2.01376C86.828 1.82999 86.9339 1.59787 86.9339 1.34294C86.9339 0.756891 86.3813 0.28282 85.6973 0.281982ZM23.0813 14.9901C23.0813 15.5762 22.5296 16.05 21.8454 16.05H11.3428V4.23446H23.0813V14.9901ZM24.9399 0.281982H8.99103C7.28521 0.281982 5.90234 1.46706 5.90234 2.93071V17.3437C5.90234 18.8068 7.28542 19.9927 8.99082 19.9927H24.9401C26.6439 19.9927 28.0272 18.8066 28.0272 17.3437V2.93071C28.0272 1.46706 26.6437 0.283029 24.9399 0.281982Z" fill="white"/>
<path fill-rule="evenodd" clip-rule="evenodd" d="M1.83622 4.33331H1.1677C1.07393 4.33331 1.00026 4.40782 1.00026 4.49991V5.16717C1.00026 5.21158 1.0179 5.25417 1.0493 5.28557C1.0807 5.31697 1.12329 5.33462 1.1677 5.33462H1.83622C1.92622 5.33462 2.00157 5.25843 2.00157 5.16717V4.50012C2.00157 4.40803 1.92622 4.33352 1.83622 4.33352M1.83622 2.83093H1.25163C1.18531 2.83127 1.12157 2.80527 1.0744 2.75865C1.02723 2.71203 1.00049 2.6486 1.00005 2.58228V1.99686C0.999941 1.9527 0.982395 1.91038 0.951231 1.8791C0.920067 1.84782 0.877809 1.83011 0.833655 1.82983H0.166605C0.122414 1.83005 0.0801026 1.84774 0.0488938 1.87902C0.017685 1.91031 0.000109927 1.95267 0 1.99686L0 2.66349C0 2.75642 0.0753491 2.83093 0.166605 2.83093H0.750561C0.783446 2.83085 0.816022 2.83728 0.846409 2.84985C0.876796 2.86242 0.904393 2.88088 0.927608 2.90418C0.950822 2.92747 0.969194 2.95513 0.981663 2.98556C0.994133 3.01599 1.00045 3.04858 1.00026 3.08147V3.6648C1.00026 3.75689 1.07393 3.83224 1.1677 3.83224H1.83622C1.92622 3.83224 2.00157 3.75689 2.00157 3.66563V2.99816C2.00157 2.95412 1.98422 2.91184 1.95327 2.8805C1.92232 2.84916 1.88026 2.83148 1.83622 2.83093ZM1.83622 6.83511H1.25163C1.18491 6.83511 1.12092 6.8086 1.07374 6.76142C1.02656 6.71424 1.00005 6.65025 1.00005 6.58353V6.00041C1.00005 5.90832 0.924701 5.8338 0.833655 5.8338H0.166605C0.122453 5.83391 0.0801403 5.8515 0.0489197 5.88272C0.017699 5.91394 0.00011052 5.95626 0 6.00041L0 6.66767C0 6.75976 0.0753491 6.83511 0.166605 6.83511H0.750561C0.783358 6.83503 0.815848 6.84142 0.846166 6.85393C0.876485 6.86643 0.904035 6.88481 0.927235 6.90799C0.950436 6.93117 0.96883 6.9587 0.981361 6.98901C0.993893 7.01932 1.00032 7.0518 1.00026 7.0846V7.66897C1.00012 7.69095 1.00436 7.71274 1.01274 7.73306C1.02112 7.75338 1.03346 7.77183 1.04905 7.78732C1.06464 7.80281 1.08317 7.81504 1.10354 7.82329C1.12391 7.83154 1.14572 7.83565 1.1677 7.83537H1.83622C1.92622 7.83537 2.00157 7.7619 2.00157 7.66897V7.0013C2.0014 6.9574 1.98396 6.91533 1.95302 6.88419C1.92208 6.85305 1.88011 6.83555 1.83622 6.83511ZM2.45806 6.83511H3.45936V5.8338H2.45806V6.83511Z" fill="#8CD024"/>
<path fill-rule="evenodd" clip-rule="evenodd" d="M2.45801 13.6299C5.41504 13.6541 8.22619 14.4294 11.3542 16.0509V4.23424C8.22619 2.61298 5.41504 1.83856 2.45801 1.8147V2.83065H3.29271C3.38376 2.83065 3.45931 2.90621 3.45931 2.99914V3.66473C3.45931 3.75682 3.38376 3.83217 3.29271 3.83217L2.45801 3.83112V4.83222H3.29271C3.38376 4.83222 3.45931 4.90778 3.45931 4.99966V5.83353H4.29234C4.38506 5.83353 4.45769 5.90804 4.45769 6.00097V6.66739L4.45057 6.71909C4.44002 6.75275 4.41897 6.78215 4.39049 6.80298C4.36202 6.82381 4.32762 6.83497 4.29234 6.83483H3.45931V7.6687C3.45931 7.76079 3.38376 7.83509 3.29271 7.83509H2.45801V13.6299Z" fill="#8CD024"/>
<path fill-rule="evenodd" clip-rule="evenodd" d="M38.1655 0.281982H35.6926C35.0115 0.281982 34.4561 0.756682 34.4561 1.34294V18.9315C34.4561 19.5176 35.0107 19.9925 35.6926 19.9925H38.1657C38.8489 19.9925 39.4023 19.5178 39.4023 18.9315V1.34294C39.4023 0.756891 38.8479 0.28282 38.1655 0.281982Z" fill="white"/>
<path fill-rule="evenodd" clip-rule="evenodd" d="M57.3318 1.34545V1.33854C57.3289 0.75417 56.7763 0.281982 56.0957 0.281982H53.6221C52.9385 0.281982 52.3851 0.756682 52.3851 1.34294V12.067L41.9717 3.35204L41.956 3.33886C41.845 3.24718 41.6935 3.19025 41.5252 3.19025C41.1816 3.19025 40.9023 3.42823 40.9023 3.72293V9.08172C40.9023 9.37453 41.0407 9.63888 41.2642 9.82977L41.2659 9.83144L52.6051 19.3451L52.6788 19.4083C53.1219 19.7692 53.7203 19.9927 54.379 19.9927H56.0957C56.7763 19.9927 57.3289 19.5197 57.3318 18.9363V1.34545Z" fill="white"/>
</g>
<defs>
<clipPath id="clip0_241_856">
<rect width="211" height="19.9926" fill="white"/>
</clipPath>
</defs>
</svg>
