<svg xmlns="http://www.w3.org/2000/svg" width="136" height="21" fill="none"><path fill="#78716C" fill-rule="evenodd" d="M101.056 7.963c-1.276 0-2.153.398-2.79 1.116-.638.797-.957 1.992-.957 3.507 0 1.514.319 2.71 1.036 3.507.638.797 1.594 1.196 2.79 1.196s2.152-.399 2.79-1.116c.638-.797.957-1.913.957-3.507 0-1.515-.319-2.71-.957-3.508-.638-.797-1.514-1.116-2.79-1.116m0 11.718c-1.196 0-2.232-.16-3.109-.558-.876-.399-1.514-.877-2.072-1.514-.478-.638-.877-1.356-1.116-2.232-.24-.877-.319-1.754-.319-2.71 0-.957.16-1.914.399-2.79.239-.877.717-1.595 1.275-2.233.558-.637 1.275-1.116 2.073-1.514a7.995 7.995 0 0 1 2.869-.558c1.116 0 2.152.16 2.95.558.797.319 1.514.877 2.072 1.514a5.495 5.495 0 0 1 1.196 2.232c.239.877.398 1.754.398 2.79 0 .957-.159 1.914-.398 2.79a5.496 5.496 0 0 1-1.196 2.232c-.558.638-1.275 1.116-2.072 1.515-.877.319-1.834.558-3.029.558M115.485 7.963c-1.196 0-2.153.398-2.79 1.116-.638.797-.957 1.992-.957 3.507 0 1.514.319 2.71 1.036 3.507.638.797 1.595 1.196 2.79 1.196 1.196 0 2.153-.399 2.79-1.116.638-.797.957-1.913.957-3.507 0-1.515-.319-2.71-.957-3.508-.637-.797-1.514-1.116-2.79-1.116m0 11.718c-1.195 0-2.232-.16-3.108-.558-.877-.399-1.515-.877-2.073-1.514-.478-.638-.877-1.356-1.116-2.232-.239-.877-.319-1.754-.319-2.71 0-.957.16-1.914.399-2.79.239-.877.717-1.595 1.275-2.233.558-.637 1.276-1.116 2.073-1.514a7.992 7.992 0 0 1 2.869-.558c1.116 0 2.153.16 2.95.558.797.319 1.514.877 2.072 1.514a5.495 5.495 0 0 1 1.196 2.232c.239.877.399 1.754.399 2.79 0 .957-.16 1.914-.399 2.79a5.496 5.496 0 0 1-1.196 2.232c-.558.638-1.275 1.116-2.072 1.515-.877.319-1.834.558-3.029.558M133.34 19.84c-.319 0-.638-.16-.798-.32l-4.543-4.702c-.239-.24-.478-.479-.718-.558-.159-.08-.478-.16-.876-.16h-.16v4.624a1.09 1.09 0 0 1-1.116 1.116h-.638a1.09 1.09 0 0 1-1.116-1.116V2.144a1.09 1.09 0 0 1 1.116-1.117h.638a1.09 1.09 0 0 1 1.116 1.116v9.406c.319 0 .638 0 .797-.08.16-.079.399-.159.558-.398l3.667-4.225c.239-.239.558-.398.877-.398.239 0 .478.08.717.239l.399.319c.239.16.398.398.398.717 0 .32-.079.558-.239.797l-3.746 4.146 4.862 5.021c.239.24.319.479.319.797 0 .32-.159.558-.319.718l-.398.319c-.239.16-.479.319-.718.319M84.236 8.6h-.16a1.207 1.207 0 0 0-1.035 1.196v.16c0 .557.478 1.036 1.036 1.195h2.551c.319 0 .717.08 1.036.16.24.08.558.159.797.318.24.16.478.32.638.558.16.24.319.479.478.798.08.318.16.717.16 1.116 0 1.115-.32 1.833-.957 2.311-.638.479-1.594.718-2.63.718h-4.943V3.26h3.348c1.355 0 2.391.159 3.109.558.717.398 1.036 1.036 1.036 1.913 0 .478-.08.956-.239 1.275-.16.319-.398.638-.717.877-.32.239-.718.398-1.116.478-.479.08-.957.16-1.435.16h-.957v.08Zm8.21 3.667a6.254 6.254 0 0 0-.876-1.435 3.53 3.53 0 0 0-1.196-.956c-.239-.16-.558-.24-.797-.399.16-.08.399-.239.558-.398.319-.24.558-.558.797-.957.24-.319.399-.717.558-1.116.16-.398.24-.877.24-1.275 0-.877-.16-1.674-.559-2.312a5.227 5.227 0 0 0-1.434-1.515c-.638-.398-1.276-.637-2.073-.797-.797-.16-1.594-.239-2.471-.239H79.374a1.09 1.09 0 0 0-1.116 1.116v16.58a1.09 1.09 0 0 0 1.116 1.116h7.094c.957 0 1.834-.08 2.551-.318.797-.24 1.435-.558 1.993-1.037.558-.478 1.036-1.036 1.275-1.753.32-.638.479-1.435.479-2.312 0-.717-.08-1.355-.32-1.913v-.08ZM20.865 7.963c-1.276 0-2.152.398-2.79 1.116-.638.797-.957 1.992-.957 3.507 0 1.514.32 2.71.957 3.507.637.797 1.594 1.196 2.79 1.196 1.195 0 2.152-.399 2.79-1.116.637-.797.956-1.913.956-3.507 0-1.515-.319-2.71-.956-3.508-.638-.797-1.515-1.116-2.79-1.116m0 11.718c-1.196 0-2.232-.16-3.11-.558-.876-.399-1.514-.877-2.072-1.514-.478-.638-.877-1.356-1.116-2.232-.239-.877-.319-1.754-.319-2.71 0-.957.16-1.914.4-2.79.238-.877.716-1.595 1.274-2.233.558-.637 1.276-1.116 2.073-1.514a7.995 7.995 0 0 1 2.87-.558c1.116 0 2.152.16 2.95.558.796.319 1.514.877 2.072 1.514a5.496 5.496 0 0 1 1.195 2.232c.24.877.399 1.754.399 2.79 0 .957-.16 1.914-.399 2.79a5.496 5.496 0 0 1-1.195 2.232c-.558.638-1.276 1.116-2.073 1.515-.877.319-1.833.558-3.029.558M51.953 19.68c-.319 0-.638-.159-.797-.318l-4.544-4.703c-.239-.24-.478-.479-.717-.559-.16-.08-.479-.159-.877-.159h-.16v4.623a1.09 1.09 0 0 1-1.115 1.116h-.638a1.09 1.09 0 0 1-1.116-1.116V1.985A1.09 1.09 0 0 1 43.105.868h.638a1.09 1.09 0 0 1 1.115 1.116v9.406c.32 0 .638 0 .798-.08.159-.08.398-.159.558-.398l3.666-4.225c.24-.239.558-.398.877-.398.24 0 .479.08.718.239l.398.319c.24.16.399.398.399.717 0 .319-.08.558-.24.797l-3.746 4.145 4.863 5.022c.239.24.319.479.319.797 0 .32-.16.558-.32.718l-.398.319c-.24.159-.478.319-.717.319M13.292 4.136c-.32-.797-.798-1.434-1.435-1.913-.558-.478-1.276-.877-2.073-1.036C8.987.947 8.19.868 7.314.868h-5.9A1.09 1.09 0 0 0 .298 1.984v16.58a1.09 1.09 0 0 0 1.116 1.116h.718a1.09 1.09 0 0 0 1.116-1.116V3.34h3.427c.558 0 1.037.08 1.515.16s.877.239 1.275.478c.399.24.638.638.877 1.116.24.478.319 1.116.319 1.913 0 .638-.08 1.196-.319 1.674s-.558.797-.877 1.036c-.398.24-.797.479-1.275.558-.478.08-.957.16-1.515.16H5.798c-.557.08-1.036.558-1.036 1.116v.16c0 .557.479 1.115 1.037 1.115h1.275c.957 0 1.833-.16 2.63-.398.798-.32 1.515-.718 2.073-1.196s1.036-1.116 1.435-1.834c.319-.717.558-1.514.558-2.39 0-1.037-.16-1.994-.558-2.711M63.83 10.434v.239c0 .16 0 .319.08.558h-6.617c.08-.957.479-1.754.957-2.312.478-.558 1.196-.877 2.072-.877h.399c.399 0 .877.08 1.196.16.398.08.717.319.956.558.24.239.479.637.638 1.036.08.16.16.399.16.638m2.949 1.674c0-.479-.08-.957-.08-1.435 0-.24-.08-.479-.08-.638-.08-.16-.08-.398-.159-.558v-.08c-.08-.159-.08-.318-.16-.478 0-.08-.08-.08-.08-.16-.079-.159-.079-.238-.159-.398-.08-.08-.08-.16-.159-.239-.08-.08-.08-.16-.16-.24-.08-.159-.239-.318-.318-.477-.957-1.196-2.471-1.754-4.464-1.754H60.242c-.876.08-1.673.239-2.39.558-.798.398-1.515.877-2.073 1.594-.558.638-.957 1.435-1.196 2.232-.239.877-.398 1.754-.398 2.71 0 1.037.159 1.993.398 2.79.24.877.638 1.595 1.196 2.232.558.638 1.275 1.116 2.152 1.435.877.319 1.913.478 3.189.478 1.195 0 2.232-.08 3.029-.319h.08c.08 0 .239-.08.318-.08h.08c.16-.079.319-.079.398-.079h.08l.24-.08h.08c.238-.08.477-.319.637-.558.16-.239.16-.558.08-.797l-.08-.16c-.16-.477-.638-.717-1.116-.717h-.24l-.318.08h-.08c-.319.08-.717.16-1.036.24-.319.079-.638.079-.957.159-.319 0-.717.08-1.116.08-1.275 0-2.232-.32-2.95-1.037-.637-.638-.956-1.514-1.035-2.63h8.369a1.09 1.09 0 0 0 1.117-1.116v-.399M40.474 17.608l-.08-.16c-.159-.478-.637-.717-1.115-.717h-.24l-.239.08c-.08 0-.08 0-.16.08h-.159l-.956.238c-.718.16-1.355.24-1.993.24-1.275 0-2.312-.4-2.95-1.116-.637-.718-1.036-1.914-1.036-3.348 0-.718.08-1.356.24-1.914.159-.558.478-1.116.797-1.514.318-.399.797-.718 1.275-.957.478-.239 1.116-.319 1.833-.319.638 0 1.196 0 1.754.08.24.08.558.16.877.24 0 0 .08 0 .08.079h.08c.318.08.398.08.398.08.08 0 .24.08.319.08.478 0 .956-.32 1.116-.718l.08-.16c.08-.239.08-.557-.08-.797-.16-.239-.32-.478-.638-.558 0 0-.478-.159-1.355-.398h-.08c-.797-.16-1.674-.319-2.71-.319-1.116 0-2.152.16-3.03.558-.876.399-1.593.877-2.231 1.515a7.37 7.37 0 0 0-1.355 2.311 8.21 8.21 0 0 0-.479 2.79c0 1.037.16 1.993.4 2.79.238.877.637 1.595 1.195 2.152.558.638 1.275 1.116 2.152 1.435.877.32 1.913.479 3.189.479.956 0 1.913-.08 2.71-.24.319-.08.558-.159.877-.239l.16-.08c.238-.08.398-.159.398-.159.239-.08.478-.319.637-.558.16-.239.16-.558.08-.797M76.504 18.006v-.08c-.16-.478-.558-.796-1.036-.796h-.24l-.318.08h-.24c-.318.079-.637.079-1.036.079-.717 0-1.195-.16-1.514-.478-.32-.32-.479-1.037-.479-1.993V8.44h3.189a1.09 1.09 0 0 0 1.116-1.116v-.16A1.09 1.09 0 0 0 74.83 6.05h-3.189V3.34a1.09 1.09 0 0 0-1.116-1.116h-.558a1.09 1.09 0 0 0-1.115 1.116v11.957c0 .797.08 1.435.318 1.993.24.558.558.956.877 1.355.399.319.877.558 1.435.718.558.159 1.116.239 1.754.239h.877s.319 0 .797-.08c.478-.08.797-.16.797-.16.319-.08.558-.239.638-.478.159-.239.159-.558.159-.797" clip-rule="evenodd"/><path fill="#78716C" fill-rule="evenodd" d="M76.504 18.006v-.08c-.16-.478-.558-.796-1.036-.796h-.24l-.318.08h-.24c-.318.079-.637.079-1.036.079-.717 0-1.195-.16-1.514-.478-.32-.32-.479-1.037-.479-1.993V8.44h3.189a1.09 1.09 0 0 0 1.116-1.116v-.16A1.09 1.09 0 0 0 74.83 6.05h-3.189V3.34a1.09 1.09 0 0 0-1.116-1.116h-.558a1.09 1.09 0 0 0-1.115 1.116v11.957c0 .797.08 1.435.318 1.993.24.558.558.956.877 1.355.399.319.877.558 1.435.718.558.159 1.116.239 1.754.239h.877s.319 0 .797-.08c.478-.08.797-.16.797-.16.319-.08.558-.239.638-.478.159-.239.159-.558.159-.797" clip-rule="evenodd"/></svg>