<svg width="212" height="32" viewBox="0 0 212 32" fill="none" xmlns="http://www.w3.org/2000/svg">
<g clip-path="url(#clip0_241_842)">
<path fill-rule="evenodd" clip-rule="evenodd" d="M158.721 12.1067C156.72 12.1067 155.344 12.732 154.344 13.8576C153.343 15.1083 152.843 16.9843 152.843 19.3605C152.843 21.7368 153.343 23.6128 154.469 24.8634C155.47 26.1141 156.97 26.7394 158.846 26.7394C160.722 26.7394 162.223 26.1141 163.224 24.9885C164.224 23.7378 164.724 21.9869 164.724 19.4856C164.724 17.1093 164.224 15.2333 163.224 13.9827C162.223 12.732 160.847 12.2317 158.846 12.2317M158.846 30.6165C156.97 30.6165 155.344 30.3664 153.969 29.741C152.593 29.1157 151.592 28.3653 150.717 27.3648C149.967 26.3642 149.341 25.2386 148.966 23.8629C148.591 22.4872 148.466 21.1114 148.466 19.6107C148.466 18.1099 148.716 16.6091 149.091 15.2333C149.466 13.8576 150.217 12.732 151.092 11.7315C151.968 10.7309 153.093 9.98053 154.344 9.3552C155.595 8.85494 157.22 8.47974 158.846 8.47974C160.597 8.47974 162.223 8.72987 163.474 9.3552C164.724 9.85547 165.85 10.7309 166.726 11.7315C167.601 12.732 168.226 13.8576 168.602 15.2333C168.977 16.6091 169.227 17.9848 169.227 19.6107C169.227 21.1114 168.977 22.6122 168.602 23.988C168.226 25.3637 167.601 26.4893 166.726 27.4898C165.85 28.4904 164.724 29.2408 163.474 29.8661C162.098 30.3664 160.597 30.7416 158.721 30.7416" fill="white"/>
<path fill-rule="evenodd" clip-rule="evenodd" d="M181.36 12.1067C179.484 12.1067 177.983 12.732 176.983 13.8576C175.982 15.1083 175.482 16.9843 175.482 19.3605C175.482 21.7368 175.982 23.6128 177.108 24.8634C178.108 26.1141 179.609 26.7394 181.485 26.7394C183.361 26.7394 184.862 26.1141 185.862 24.9885C186.863 23.7378 187.363 21.9869 187.363 19.4856C187.363 17.1093 186.863 15.2333 185.862 13.9827C184.862 12.732 183.486 12.2317 181.485 12.2317M181.485 30.6165C179.609 30.6165 177.983 30.3664 176.607 29.741C175.232 29.1157 174.231 28.3653 173.356 27.3648C172.605 26.3642 171.98 25.2386 171.605 23.8629C171.23 22.4872 171.104 21.1114 171.104 19.6107C171.104 18.1099 171.355 16.6091 171.73 15.2333C172.105 13.8576 172.855 12.732 173.731 11.7315C174.606 10.7309 175.732 9.98053 176.983 9.3552C178.233 8.85494 179.859 8.47974 181.485 8.47974C183.236 8.47974 184.862 8.72987 186.112 9.3552C187.363 9.85547 188.489 10.7309 189.364 11.7315C190.24 12.732 190.865 13.8576 191.24 15.2333C191.615 16.6091 191.866 17.9848 191.866 19.6107C191.866 21.1114 191.615 22.6122 191.24 23.988C190.865 25.3637 190.24 26.4893 189.364 27.4898C188.489 28.4904 187.363 29.2408 186.112 29.8661C184.737 30.3664 183.236 30.7416 181.36 30.7416" fill="white"/>
<path fill-rule="evenodd" clip-rule="evenodd" d="M209.374 30.7415C208.873 30.7415 208.373 30.4914 208.123 30.2412L200.994 22.8623C200.619 22.4871 200.244 22.1119 199.869 21.9869C199.618 21.8618 199.118 21.7367 198.493 21.7367H198.243V28.9906C198.243 29.9911 197.492 30.7415 196.492 30.7415H195.491C194.491 30.7415 193.74 29.9911 193.74 28.9906V2.97676C193.74 1.97623 194.491 1.22583 195.491 1.22583H196.492C197.492 1.22583 198.243 1.97623 198.243 2.97676V17.7346C198.743 17.7346 199.243 17.7346 199.493 17.6095C199.743 17.4845 200.119 17.3594 200.369 16.9842L206.122 10.3557C206.497 9.98048 206.997 9.73035 207.498 9.73035C207.873 9.73035 208.248 9.85542 208.623 10.1055L209.248 10.6058C209.624 10.8559 209.874 11.2311 209.874 11.7314C209.874 12.2317 209.749 12.6069 209.499 12.9821L203.62 19.4855L211.25 27.3647C211.625 27.7399 211.75 28.1151 211.75 28.6154C211.75 29.1156 211.5 29.4908 211.25 29.741L210.624 30.2412C210.249 30.4914 209.874 30.7415 209.499 30.7415" fill="white"/>
<path fill-rule="evenodd" clip-rule="evenodd" d="M132.333 13.1073H132.208H132.083C131.208 13.2323 130.457 13.9827 130.457 14.9833V15.2334C130.457 16.1089 131.208 16.8593 132.083 17.1094H132.333H133.459H134.209C134.834 17.1094 135.585 17.1094 136.085 17.1094C136.585 17.1094 137.211 17.2345 137.711 17.3595C138.086 17.4846 138.586 17.6097 138.962 17.8598C139.337 18.1099 139.712 18.3601 139.962 18.7353C140.212 19.1105 140.462 19.4857 140.713 19.9859C140.838 20.4862 140.963 21.1115 140.963 21.7369C140.963 23.4878 140.462 24.6134 139.462 25.3638C138.461 26.1142 136.961 26.4894 135.335 26.4894H127.581V4.72782H132.833C134.959 4.72782 136.585 4.97796 137.711 5.60329C138.837 6.22862 139.337 7.22915 139.337 8.60488C139.337 9.35528 139.212 10.1057 138.962 10.6059C138.711 11.1062 138.336 11.6065 137.836 11.9817C137.336 12.3569 136.71 12.607 136.085 12.7321C135.335 12.8571 134.584 12.9822 133.834 12.9822H133.459H132.333V13.1073ZM145.215 18.8603C144.84 17.9849 144.339 17.2345 143.839 16.6091C143.339 15.9838 142.714 15.4835 141.963 15.1083C141.588 14.8582 141.088 14.7331 140.713 14.483C140.963 14.3579 141.338 14.1078 141.588 13.8577C142.088 13.4825 142.463 12.9822 142.839 12.3569C143.214 11.8566 143.464 11.2313 143.714 10.6059C143.964 9.98061 144.089 9.23022 144.089 8.60488C144.089 7.22915 143.839 5.97849 143.214 4.97796C142.589 3.97743 141.838 3.22703 140.963 2.60169C139.962 1.97636 138.962 1.60116 137.711 1.35103C136.46 1.1009 135.21 0.97583 133.834 0.97583H127.706H126.955H124.704C123.704 0.97583 122.953 1.72623 122.953 2.72676V28.7406C122.953 29.7411 123.704 30.4915 124.704 30.4915H126.955H127.706H135.835C137.336 30.4915 138.711 30.3664 139.837 29.9912C141.088 29.6161 142.088 29.1158 142.964 28.3654C143.839 27.615 144.59 26.7395 144.965 25.6139C145.465 24.6134 145.715 23.3627 145.715 21.987C145.715 20.8614 145.59 19.8609 145.215 18.9854V18.8603Z" fill="white"/>
<path fill-rule="evenodd" clip-rule="evenodd" d="M32.9059 12.1067C30.9048 12.1067 29.5291 12.732 28.5286 13.8576C27.528 15.1083 27.0278 16.9843 27.0278 19.3605C27.0278 21.7368 27.528 23.6128 28.5286 24.8634C29.5291 26.1141 31.0299 26.7394 32.9059 26.7394C34.7819 26.7394 36.2827 26.1141 37.2832 24.9885C38.2838 23.7378 38.784 21.9869 38.784 19.4856C38.784 17.1093 38.2838 15.2333 37.2832 13.9827C36.2827 12.732 34.907 12.2317 32.9059 12.2317M32.9059 30.6165C31.0299 30.6165 29.404 30.3664 28.0283 29.741C26.6526 29.1157 25.6521 28.3653 24.7766 27.3648C24.0262 26.3642 23.4009 25.2386 23.0257 23.8629C22.6505 22.4872 22.5254 21.1114 22.5254 19.6107C22.5254 18.1099 22.7755 16.6091 23.1507 15.2333C23.5259 13.8576 24.2763 12.732 25.1518 11.7315C26.0273 10.7309 27.1529 9.98053 28.4035 9.3552C29.6542 8.85494 31.28 8.47974 32.9059 8.47974C34.6568 8.47974 36.2827 8.72987 37.5334 9.3552C38.784 9.85547 39.9096 10.7309 40.7851 11.7315C41.6606 12.732 42.2859 13.8576 42.6611 15.2333C43.0363 16.6091 43.2864 17.9848 43.2864 19.6107C43.2864 21.1114 43.0363 22.6122 42.6611 23.988C42.2859 25.3637 41.6606 26.4893 40.7851 27.4898C39.9096 28.4904 38.784 29.2408 37.5334 29.8661C36.1576 30.3664 34.6568 30.7416 32.7808 30.7416" fill="white"/>
<path fill-rule="evenodd" clip-rule="evenodd" d="M81.6812 30.4915C81.1809 30.4915 80.6806 30.2414 80.4305 29.9912L73.3017 22.6123C72.9265 22.2371 72.5513 21.8619 72.1761 21.7369C71.926 21.6118 71.4257 21.4867 70.8004 21.4867H70.5502V28.7406C70.5502 29.7411 69.7998 30.4915 68.7993 30.4915H67.7988C66.7983 30.4915 66.0479 29.7411 66.0479 28.7406V2.72676C66.0479 1.72623 66.7983 0.97583 67.7988 0.97583H68.7993C69.7998 0.97583 70.5502 1.72623 70.5502 2.72676V17.4846C71.0505 17.4846 71.5508 17.4846 71.8009 17.3595C72.051 17.2345 72.4262 17.1094 72.6764 16.7342L78.4294 10.1057C78.8046 9.73048 79.3049 9.48035 79.8052 9.48035C80.1804 9.48035 80.5556 9.60542 80.9308 9.85555L81.5561 10.3558C81.9313 10.6059 82.1814 10.9811 82.1814 11.4814C82.1814 11.9817 82.0564 12.3569 81.8062 12.7321L75.9281 19.2355L83.5572 27.1147C83.9324 27.4899 84.0574 27.8651 84.0574 28.3654C84.0574 28.8657 83.8073 29.2408 83.5572 29.491L82.9318 29.9912C82.5566 30.2414 82.1814 30.4915 81.8062 30.4915" fill="white"/>
<path fill-rule="evenodd" clip-rule="evenodd" d="M21.0235 6.10355C20.5233 4.85289 19.7729 3.85236 18.7723 3.10196C17.8969 2.35156 16.7713 1.72623 15.5206 1.4761C14.2699 1.1009 13.0193 0.97583 11.6435 0.97583H5.26515H4.63982H2.38863C1.38809 0.97583 0.637695 1.72623 0.637695 2.72676V28.7406C0.637695 29.7411 1.38809 30.4915 2.38863 30.4915H3.51422C4.51476 30.4915 5.26515 29.7411 5.26515 28.7406V4.85289H10.643C11.5185 4.85289 12.2689 4.97796 13.0193 5.10302C13.7697 5.22809 14.395 5.47822 15.0203 5.85342C15.6457 6.22862 16.0209 6.85395 16.3961 7.60435C16.7713 8.35475 16.8963 9.35528 16.8963 10.6059C16.8963 11.6065 16.7713 12.4819 16.3961 13.2323C16.0209 13.9827 15.5206 14.483 15.0203 14.8582C14.395 15.2334 13.7697 15.6086 13.0193 15.7337C12.2689 15.8587 11.5185 15.9838 10.643 15.9838H10.5179H9.39235H9.26728C8.39182 16.1089 7.64142 16.8593 7.64142 17.7347V17.9849C7.64142 18.8603 8.39182 19.7358 9.26728 19.7358H9.39235H10.5179H11.2683C12.7691 19.7358 14.1449 19.4857 15.3955 19.1105C16.6462 18.6102 17.7718 17.9849 18.6473 17.2345C19.5227 16.4841 20.2731 15.4835 20.8985 14.3579C21.3987 13.2323 21.7739 11.9817 21.7739 10.6059C21.7739 8.98008 21.5238 7.47929 20.8985 6.35369" fill="white"/>
<path fill-rule="evenodd" clip-rule="evenodd" d="M100.316 15.9837C100.316 16.1088 100.316 16.2339 100.316 16.2339V16.3589C100.316 16.6091 100.316 16.8592 100.441 17.2344H94.8127H90.0602C90.1853 15.7336 90.8106 14.4829 91.561 13.6075C92.3114 12.732 93.437 12.2317 94.8127 12.2317H95.0629C95.1879 12.2317 95.313 12.2317 95.4381 12.2317C96.0634 12.2317 96.8138 12.3568 97.3141 12.4819C97.9394 12.6069 98.4397 12.9821 98.8149 13.3573C99.1901 13.7325 99.5653 14.3579 99.8154 14.9832C99.9405 15.2333 100.066 15.6085 100.066 15.9837M104.693 18.6101C104.693 17.8597 104.568 17.1093 104.568 16.3589C104.568 15.9837 104.443 15.6085 104.443 15.3584C104.318 15.1083 104.318 14.7331 104.193 14.4829V14.3579C104.068 14.1077 104.068 13.8576 103.943 13.6075C103.943 13.4824 103.818 13.4824 103.818 13.3573C103.692 13.1072 103.692 12.9821 103.567 12.732C103.442 12.6069 103.442 12.4819 103.317 12.3568C103.192 12.2317 103.192 12.1067 103.067 11.9816C102.942 11.7315 102.692 11.4813 102.567 11.2312C101.066 9.3552 98.6898 8.47974 95.5631 8.47974C95.4381 8.47974 95.1879 8.47974 95.0629 8.47974C94.9378 8.47974 94.9378 8.47974 94.8127 8.47974H94.6877C93.3119 8.6048 92.0613 8.85494 90.9357 9.3552C89.685 9.98053 88.5594 10.7309 87.6839 11.8565C86.8085 12.8571 86.1831 14.1077 85.8079 15.3584C85.4328 16.7341 85.1826 18.1099 85.1826 19.6107C85.1826 21.2365 85.4328 22.7373 85.8079 23.988C86.1831 25.3637 86.8085 26.4893 87.6839 27.4898C88.5594 28.4904 89.685 29.2408 91.0607 29.741C92.4365 30.2413 94.0623 30.4914 96.0634 30.4914C97.9394 30.4914 99.5653 30.3664 100.816 29.9912H100.941C101.066 29.9912 101.316 29.8661 101.441 29.8661H101.566C101.816 29.741 102.067 29.741 102.192 29.741H102.317L102.692 29.616C102.817 29.616 102.817 29.616 102.817 29.616C103.192 29.4909 103.567 29.1157 103.818 28.7405C104.068 28.3653 104.068 27.865 103.943 27.4898L103.818 27.2397C103.567 26.4893 102.817 26.1141 102.067 26.1141C101.942 26.1141 101.816 26.1141 101.691 26.1141L101.191 26.2392H101.066C100.566 26.3642 99.9405 26.4893 99.4402 26.6144C98.9399 26.7394 98.4397 26.7394 97.9394 26.8645C97.4391 26.8645 96.8138 26.9896 96.1885 26.9896C94.1874 26.9896 92.6866 26.4893 91.561 25.3637C90.5605 24.3632 90.0602 22.9874 89.9351 21.2365H94.6877H102.317H103.067C104.068 21.2365 104.818 20.4861 104.818 19.4856V19.1104C104.818 18.9853 104.818 18.9853 104.818 18.8603" fill="white"/>
<path fill-rule="evenodd" clip-rule="evenodd" d="M63.6721 27.2396L63.5471 26.9894C63.2969 26.239 62.5465 25.8638 61.7961 25.8638C61.6711 25.8638 61.546 25.8638 61.4209 25.8638L61.0457 25.9889C60.9207 25.9889 60.9207 25.9889 60.7956 26.114H60.5455C60.0452 26.239 59.545 26.3641 59.0447 26.4892C57.9191 26.7393 56.9186 26.8644 55.918 26.8644C53.917 26.8644 52.2911 26.239 51.2906 25.1134C50.29 23.9878 49.6647 22.1118 49.6647 19.8607C49.6647 18.7351 49.7898 17.7345 50.0399 16.8591C50.29 15.9836 50.7903 15.1081 51.2906 14.4828C51.7908 13.8575 52.5412 13.3572 53.2916 12.982C54.042 12.6068 55.0426 12.4817 56.1682 12.4817C57.1687 12.4817 58.0442 12.4817 58.9196 12.6068C59.2948 12.7319 59.7951 12.8569 60.2954 12.982C60.2954 12.982 60.4204 12.982 60.4204 13.1071H60.5455C61.0458 13.2321 61.1708 13.2321 61.1708 13.2321C61.2959 13.2321 61.546 13.3572 61.6711 13.3572C62.4215 13.3572 63.1719 12.8569 63.422 12.2316L63.5471 11.9815C63.6721 11.6063 63.6721 11.106 63.422 10.7308C63.1719 10.3556 62.9217 9.9804 62.4215 9.85533C62.4215 9.85533 61.6711 9.6052 60.2954 9.23H60.1703C58.9196 8.97987 57.5439 8.72974 55.918 8.72974C54.1671 8.72974 52.5412 8.97987 51.1655 9.6052C49.7898 10.2305 48.6642 10.9809 47.6636 11.9815C46.7882 12.982 46.0378 14.2327 45.5375 15.6084C45.0372 16.9841 44.7871 18.4849 44.7871 19.9857C44.7871 21.6116 45.0372 23.1124 45.4124 24.363C45.7876 25.7388 46.413 26.8644 47.2884 27.7398C48.1639 28.7404 49.2895 29.4908 50.6652 29.991C52.041 30.4913 53.6668 30.7414 55.6679 30.7414C57.1687 30.7414 58.6695 30.6164 59.9202 30.3662C60.4204 30.2412 60.7956 30.1161 61.2959 29.991L61.546 29.866C61.9212 29.7409 62.1713 29.6158 62.1713 29.6158C62.5465 29.4908 62.9217 29.1156 63.1719 28.7404C63.422 28.3652 63.422 27.8649 63.2969 27.4897" fill="white"/>
<path fill-rule="evenodd" clip-rule="evenodd" d="M120.202 27.865V27.7399C119.952 26.9895 119.326 26.4892 118.576 26.4892C118.451 26.4892 118.326 26.4892 118.201 26.4892L117.7 26.6143H117.325C116.825 26.7394 116.325 26.7394 115.699 26.7394C114.574 26.7394 113.823 26.4892 113.323 25.989C112.823 25.4887 112.573 24.3631 112.573 22.8623V12.857H113.948H116.2H117.575C118.576 12.857 119.326 12.1066 119.326 11.1061V10.8559C119.326 9.8554 118.576 9.105 117.575 9.105H116.2H113.948H112.573V8.47966V6.72873V4.85274C112.573 3.85221 111.822 3.10181 110.822 3.10181H109.946C108.946 3.10181 108.195 3.85221 108.195 4.85274V6.72873V8.47966V23.6127C108.195 24.8634 108.32 25.8639 108.696 26.7394C109.071 27.6148 109.571 28.2402 110.071 28.8655C110.697 29.3658 111.447 29.741 112.323 29.9911C113.198 30.2412 114.073 30.3663 115.074 30.3663C115.574 30.3663 116.074 30.3663 116.45 30.3663C116.45 30.3663 116.95 30.3663 117.7 30.2412C118.451 30.1162 118.951 29.9911 118.951 29.9911C119.451 29.866 119.826 29.6159 119.952 29.2407C120.202 28.8655 120.202 28.3652 120.202 27.99" fill="white"/>
<path fill-rule="evenodd" clip-rule="evenodd" d="M120.202 27.865V27.7399C119.952 26.9895 119.326 26.4892 118.576 26.4892C118.451 26.4892 118.326 26.4892 118.201 26.4892L117.7 26.6143H117.325C116.825 26.7394 116.325 26.7394 115.699 26.7394C114.574 26.7394 113.823 26.4892 113.323 25.989C112.823 25.4887 112.573 24.3631 112.573 22.8623V12.857H113.948H116.2H117.575C118.576 12.857 119.326 12.1066 119.326 11.1061V10.8559C119.326 9.8554 118.576 9.105 117.575 9.105H116.2H113.948H112.573V8.47966V6.72873V4.85274C112.573 3.85221 111.822 3.10181 110.822 3.10181H109.946C108.946 3.10181 108.195 3.85221 108.195 4.85274V6.72873V8.47966V23.6127C108.195 24.8634 108.32 25.8639 108.696 26.7394C109.071 27.6148 109.571 28.2402 110.071 28.8655C110.697 29.3658 111.447 29.741 112.323 29.9911C113.198 30.2412 114.073 30.3663 115.074 30.3663C115.574 30.3663 116.074 30.3663 116.45 30.3663C116.45 30.3663 116.95 30.3663 117.7 30.2412C118.451 30.1162 118.951 29.9911 118.951 29.9911C119.451 29.866 119.826 29.6159 119.952 29.2407C120.202 28.8655 120.202 28.3652 120.202 27.99" fill="white"/>
</g>
<defs>
<clipPath id="clip0_241_842">
<rect width="211.362" height="31.0827" fill="white" transform="translate(0.637695 0.442383)"/>
</clipPath>
</defs>
</svg>
