<?xml version="1.0" encoding="UTF-8" standalone="no"?>
<svg
   width="486"
   height="392"
   viewBox="0 0 486 392"
   fill="none"
   version="1.1"
   id="svg15"
   sodipodi:docname="preview-infinitive.svg"
   inkscape:version="1.4 (e7c3feb100, 2024-10-09)"
   xmlns:inkscape="http://www.inkscape.org/namespaces/inkscape"
   xmlns:sodipodi="http://sodipodi.sourceforge.net/DTD/sodipodi-0.dtd"
   xmlns="http://www.w3.org/2000/svg"
   xmlns:svg="http://www.w3.org/2000/svg">
  <defs
     id="defs15" />
  <sodipodi:namedview
     id="namedview15"
     pagecolor="#505050"
     bordercolor="#eeeeee"
     borderopacity="1"
     inkscape:showpageshadow="0"
     inkscape:pageopacity="0"
     inkscape:pagecheckerboard="0"
     inkscape:deskcolor="#d1d1d1"
     inkscape:zoom="0.9625"
     inkscape:cx="330.90909"
     inkscape:cy="227.01299"
     inkscape:window-width="1920"
     inkscape:window-height="1024"
     inkscape:window-x="0"
     inkscape:window-y="26"
     inkscape:window-maximized="1"
     inkscape:current-layer="g15" />
  <g
     id="g15"
     transform="translate(-88,-24)">
    <rect
       x="140"
       y="208"
       width="70"
       height="12"
       rx="6"
       fill="#e7e5e4"
       id="rect1"
       style="fill:#c8c8c8" />
    <rect
       x="156"
       y="232"
       width="384"
       height="12"
       rx="6"
       fill="#e7e5e4"
       id="rect2"
       style="fill:#c8c8c8" />
    <rect
       x="172"
       y="256"
       width="82"
       height="12"
       rx="6"
       fill="#e7e5e4"
       id="rect3"
       style="fill:#c8c8c8" />
    <rect
       x="156"
       y="280"
       width="349"
       height="12"
       rx="6"
       fill="#e7e5e4"
       id="rect4"
       style="fill:#c8c8c8" />
    <rect
       x="156"
       y="304"
       width="370"
       height="12"
       rx="6"
       fill="#e7e5e4"
       id="rect5"
       style="fill:#c8c8c8" />
    <rect
       x="156"
       y="328"
       width="312"
       height="12"
       rx="6"
       fill="#e7e5e4"
       id="rect6"
       style="fill:#c8c8c8" />
    <rect
       x="140"
       y="364"
       width="373"
       height="12"
       rx="6"
       fill="#e7e5e4"
       id="rect7"
       style="fill:#c8c8c8" />
    <rect
       x="140"
       y="384"
       width="289"
       height="12"
       rx="6"
       fill="#e7e5e4"
       id="rect8"
       style="fill:#c8c8c8" />
    <rect
       x="140"
       y="404"
       width="76"
       height="12"
       rx="6"
       fill="#e7e5e4"
       id="rect9"
       style="fill:#c8c8c8" />
    <rect
       x="88"
       y="92"
       width="169"
       height="36"
       rx="18"
       fill="#d6d3d1"
       id="rect10" />
    <path
       d="M 113.461,112.703 112.469,116 h -8.664 l 0.117,-0.516 c 0.13,-0.01 0.315,-0.028 0.555,-0.054 0.239,-0.026 0.414,-0.06 0.523,-0.102 0.188,-0.073 0.328,-0.177 0.422,-0.312 0.099,-0.141 0.167,-0.302 0.203,-0.485 l 1.852,-8.015 c 0.01,-0.047 0.018,-0.094 0.023,-0.141 0.01,-0.052 0.016,-0.102 0.016,-0.148 0,-0.105 -0.024,-0.198 -0.071,-0.282 -0.041,-0.088 -0.119,-0.164 -0.234,-0.226 -0.104,-0.063 -0.258,-0.123 -0.461,-0.18 -0.198,-0.057 -0.367,-0.094 -0.508,-0.109 l 0.117,-0.516 h 4.68 l -0.117,0.516 c -0.12,0.005 -0.294,0.028 -0.524,0.07 -0.224,0.036 -0.421,0.081 -0.593,0.133 -0.203,0.068 -0.352,0.177 -0.446,0.328 -0.093,0.151 -0.161,0.31 -0.203,0.477 l -1.734,7.523 c -0.042,0.182 -0.076,0.344 -0.102,0.484 -0.021,0.136 -0.031,0.248 -0.031,0.336 0,0.287 0.115,0.466 0.344,0.539 0.234,0.073 0.659,0.11 1.273,0.11 0.344,0 0.735,-0.029 1.172,-0.086 0.443,-0.063 0.75,-0.172 0.922,-0.328 0.266,-0.235 0.599,-0.597 1,-1.086 0.406,-0.495 0.708,-0.904 0.906,-1.227 z m 5.633,2.266 h -0.055 c -0.115,0.093 -0.253,0.213 -0.414,0.359 -0.156,0.141 -0.341,0.276 -0.555,0.406 -0.203,0.131 -0.424,0.243 -0.664,0.336 -0.239,0.099 -0.5,0.149 -0.781,0.149 -0.755,0 -1.349,-0.271 -1.781,-0.813 -0.427,-0.541 -0.641,-1.281 -0.641,-2.218 0,-0.646 0.12,-1.274 0.359,-1.883 0.24,-0.61 0.571,-1.157 0.993,-1.641 0.401,-0.463 0.877,-0.836 1.429,-1.117 0.552,-0.287 1.12,-0.43 1.704,-0.43 0.369,0 0.721,0.05 1.054,0.149 0.339,0.099 0.604,0.211 0.797,0.336 l 1.43,-0.368 0.093,0.118 -1.187,5.039 c -0.042,0.161 -0.086,0.359 -0.133,0.593 -0.041,0.23 -0.062,0.399 -0.062,0.508 0,0.297 0.062,0.498 0.187,0.602 0.125,0.104 0.336,0.156 0.633,0.156 0.099,0 0.24,-0.016 0.422,-0.047 0.182,-0.031 0.323,-0.065 0.422,-0.101 l -0.117,0.5 c -0.469,0.187 -0.818,0.322 -1.047,0.406 -0.229,0.083 -0.508,0.125 -0.836,0.125 -0.375,0 -0.672,-0.11 -0.891,-0.328 -0.219,-0.219 -0.338,-0.498 -0.359,-0.836 z m 1.117,-4.938 c 0,-0.172 -0.018,-0.336 -0.055,-0.492 -0.036,-0.156 -0.112,-0.302 -0.226,-0.437 -0.104,-0.131 -0.248,-0.235 -0.43,-0.313 -0.182,-0.078 -0.411,-0.117 -0.688,-0.117 -0.38,0 -0.75,0.125 -1.109,0.375 -0.359,0.25 -0.682,0.586 -0.969,1.008 -0.27,0.396 -0.492,0.875 -0.664,1.437 -0.172,0.563 -0.258,1.133 -0.258,1.711 0,0.318 0.019,0.599 0.055,0.844 0.037,0.245 0.107,0.469 0.211,0.672 0.099,0.198 0.242,0.351 0.43,0.461 0.187,0.109 0.424,0.164 0.711,0.164 0.291,0 0.596,-0.081 0.914,-0.242 0.323,-0.167 0.685,-0.456 1.086,-0.868 z m 11.594,5.063 -0.117,0.5 c -0.469,0.187 -0.834,0.323 -1.094,0.406 -0.261,0.089 -0.524,0.133 -0.789,0.133 -0.417,0 -0.729,-0.107 -0.938,-0.321 -0.208,-0.218 -0.312,-0.486 -0.312,-0.804 0,-0.115 0.01,-0.24 0.031,-0.375 0.021,-0.141 0.055,-0.305 0.102,-0.492 l 0.765,-2.914 c 0.057,-0.224 0.102,-0.428 0.133,-0.61 0.036,-0.182 0.055,-0.328 0.055,-0.437 0,-0.349 -0.084,-0.625 -0.25,-0.828 -0.167,-0.204 -0.414,-0.305 -0.743,-0.305 -0.317,0 -0.674,0.104 -1.07,0.312 -0.396,0.209 -0.768,0.511 -1.117,0.907 l -1.32,5.734 h -1.453 l 1.164,-5.062 c 0.026,-0.126 0.062,-0.305 0.109,-0.54 0.052,-0.239 0.078,-0.432 0.078,-0.578 0,-0.291 -0.049,-0.487 -0.148,-0.586 -0.099,-0.099 -0.297,-0.148 -0.594,-0.148 -0.115,0 -0.261,0.021 -0.438,0.062 -0.177,0.037 -0.315,0.068 -0.414,0.094 l 0.117,-0.5 c 0.407,-0.182 0.766,-0.318 1.079,-0.406 0.312,-0.089 0.58,-0.133 0.804,-0.133 0.412,0 0.706,0.112 0.883,0.336 0.177,0.224 0.271,0.534 0.281,0.93 h 0.047 c 0.573,-0.459 1.068,-0.797 1.485,-1.016 0.416,-0.224 0.89,-0.336 1.421,-0.336 0.5,0 0.891,0.146 1.172,0.438 0.282,0.286 0.422,0.664 0.422,1.133 0,0.093 -0.015,0.26 -0.047,0.5 -0.026,0.239 -0.07,0.476 -0.132,0.71 l -0.657,2.508 c -0.047,0.167 -0.093,0.36 -0.14,0.578 -0.042,0.214 -0.063,0.381 -0.063,0.5 0,0.297 0.065,0.5 0.195,0.61 0.131,0.104 0.344,0.156 0.641,0.156 0.099,0 0.24,-0.016 0.422,-0.047 0.187,-0.036 0.331,-0.073 0.43,-0.109 z m 6,-0.149 -0.055,-0.015 c -0.104,0.083 -0.253,0.2 -0.445,0.351 -0.188,0.151 -0.386,0.284 -0.594,0.399 -0.24,0.14 -0.482,0.255 -0.727,0.343 -0.244,0.089 -0.515,0.133 -0.812,0.133 -0.755,0 -1.339,-0.265 -1.75,-0.797 -0.406,-0.536 -0.61,-1.273 -0.61,-2.211 0,-0.645 0.118,-1.273 0.352,-1.882 0.24,-0.61 0.565,-1.151 0.977,-1.625 0.395,-0.459 0.869,-0.826 1.421,-1.102 0.553,-0.281 1.131,-0.422 1.735,-0.422 0.375,0 0.729,0.05 1.062,0.149 0.334,0.093 0.602,0.205 0.805,0.336 l 1.43,-0.368 0.094,0.118 -1.313,6.156 c -0.198,0.932 -0.453,1.719 -0.766,2.359 -0.307,0.646 -0.664,1.156 -1.07,1.531 -0.417,0.386 -0.878,0.659 -1.383,0.821 -0.5,0.166 -1.067,0.25 -1.703,0.25 -0.432,0 -0.786,-0.034 -1.062,-0.102 -0.271,-0.068 -0.485,-0.156 -0.641,-0.265 -0.156,-0.11 -0.263,-0.235 -0.32,-0.375 -0.052,-0.136 -0.078,-0.266 -0.078,-0.391 0,-0.234 0.07,-0.432 0.21,-0.594 0.141,-0.156 0.334,-0.234 0.579,-0.234 0.192,0 0.356,0.054 0.492,0.164 0.135,0.114 0.245,0.237 0.328,0.367 0.088,0.135 0.174,0.297 0.258,0.484 0.083,0.188 0.146,0.329 0.187,0.422 h 0.235 c 0.286,0 0.593,-0.065 0.921,-0.195 0.329,-0.13 0.628,-0.341 0.899,-0.633 0.276,-0.302 0.534,-0.708 0.773,-1.219 0.24,-0.505 0.43,-1.156 0.571,-1.953 z m 1.047,-4.992 c 0,-0.146 -0.024,-0.294 -0.071,-0.445 -0.041,-0.156 -0.122,-0.3 -0.242,-0.43 -0.115,-0.125 -0.26,-0.224 -0.437,-0.297 -0.178,-0.073 -0.404,-0.109 -0.68,-0.109 -0.401,0 -0.781,0.122 -1.141,0.367 -0.354,0.24 -0.674,0.57 -0.961,0.992 -0.265,0.396 -0.481,0.875 -0.648,1.438 -0.167,0.562 -0.25,1.127 -0.25,1.695 0,0.307 0.021,0.591 0.062,0.852 0.047,0.255 0.125,0.479 0.235,0.672 0.109,0.192 0.252,0.343 0.429,0.453 0.183,0.104 0.417,0.156 0.704,0.156 0.364,0 0.726,-0.104 1.086,-0.313 0.359,-0.213 0.7,-0.484 1.023,-0.812 z m 8.109,4.953 h -0.047 c -0.24,0.193 -0.469,0.37 -0.687,0.532 -0.219,0.161 -0.435,0.296 -0.649,0.406 -0.25,0.125 -0.476,0.213 -0.68,0.265 -0.203,0.058 -0.468,0.086 -0.796,0.086 -0.5,0 -0.888,-0.143 -1.164,-0.429 -0.277,-0.292 -0.415,-0.672 -0.415,-1.141 0,-0.125 0.011,-0.273 0.032,-0.445 0.021,-0.172 0.07,-0.427 0.148,-0.766 l 0.609,-2.476 c 0.053,-0.23 0.094,-0.433 0.126,-0.61 0.036,-0.177 0.054,-0.346 0.054,-0.508 0,-0.291 -0.049,-0.484 -0.148,-0.578 -0.094,-0.099 -0.289,-0.148 -0.586,-0.148 -0.115,0 -0.261,0.021 -0.438,0.062 -0.177,0.042 -0.315,0.076 -0.414,0.102 l 0.117,-0.5 c 0.407,-0.182 0.763,-0.32 1.071,-0.414 0.312,-0.094 0.562,-0.141 0.75,-0.141 0.416,0 0.721,0.099 0.914,0.297 0.198,0.193 0.297,0.469 0.297,0.828 0,0.094 -0.011,0.221 -0.032,0.383 -0.02,0.161 -0.052,0.323 -0.093,0.484 l -0.696,2.891 c -0.052,0.219 -0.096,0.424 -0.132,0.617 -0.032,0.188 -0.047,0.331 -0.047,0.43 0,0.349 0.075,0.625 0.226,0.828 0.151,0.203 0.391,0.305 0.719,0.305 0.333,0 0.674,-0.086 1.023,-0.258 0.355,-0.177 0.709,-0.443 1.063,-0.797 l 1.367,-5.883 1.359,-0.094 0.094,0.118 -1.164,5.031 c -0.052,0.213 -0.099,0.429 -0.14,0.648 -0.042,0.214 -0.063,0.365 -0.063,0.453 0,0.297 0.063,0.5 0.188,0.61 0.13,0.104 0.343,0.156 0.64,0.156 0.099,0 0.24,-0.016 0.422,-0.047 0.182,-0.031 0.323,-0.065 0.422,-0.101 l -0.117,0.5 c -0.433,0.177 -0.795,0.309 -1.086,0.398 -0.287,0.089 -0.552,0.133 -0.797,0.133 -0.422,0 -0.737,-0.123 -0.945,-0.367 -0.204,-0.245 -0.305,-0.532 -0.305,-0.86 z m 9.117,0.063 h -0.055 c -0.114,0.093 -0.252,0.213 -0.414,0.359 -0.156,0.141 -0.341,0.276 -0.554,0.406 -0.203,0.131 -0.425,0.243 -0.664,0.336 -0.24,0.099 -0.5,0.149 -0.782,0.149 -0.755,0 -1.349,-0.271 -1.781,-0.813 -0.427,-0.541 -0.64,-1.281 -0.64,-2.218 0,-0.646 0.119,-1.274 0.359,-1.883 0.239,-0.61 0.57,-1.157 0.992,-1.641 0.401,-0.463 0.878,-0.836 1.43,-1.117 0.552,-0.287 1.12,-0.43 1.703,-0.43 0.37,0 0.721,0.05 1.055,0.149 0.338,0.099 0.604,0.211 0.796,0.336 l 1.43,-0.368 0.094,0.118 -1.188,5.039 c -0.041,0.161 -0.086,0.359 -0.132,0.593 -0.042,0.23 -0.063,0.399 -0.063,0.508 0,0.297 0.063,0.498 0.188,0.602 0.125,0.104 0.336,0.156 0.632,0.156 0.099,0 0.24,-0.016 0.422,-0.047 0.183,-0.031 0.323,-0.065 0.422,-0.101 l -0.117,0.5 c -0.469,0.187 -0.818,0.322 -1.047,0.406 -0.229,0.083 -0.508,0.125 -0.836,0.125 -0.375,0 -0.672,-0.11 -0.89,-0.328 -0.219,-0.219 -0.339,-0.498 -0.36,-0.836 z m 1.117,-4.938 c 0,-0.172 -0.018,-0.336 -0.054,-0.492 -0.037,-0.156 -0.112,-0.302 -0.227,-0.437 -0.104,-0.131 -0.247,-0.235 -0.43,-0.313 -0.182,-0.078 -0.411,-0.117 -0.687,-0.117 -0.38,0 -0.75,0.125 -1.109,0.375 -0.36,0.25 -0.683,0.586 -0.969,1.008 -0.271,0.396 -0.492,0.875 -0.664,1.437 -0.172,0.563 -0.258,1.133 -0.258,1.711 0,0.318 0.018,0.599 0.055,0.844 0.036,0.245 0.106,0.469 0.21,0.672 0.099,0.198 0.243,0.351 0.43,0.461 0.188,0.109 0.425,0.164 0.711,0.164 0.292,0 0.596,-0.081 0.914,-0.242 0.323,-0.167 0.685,-0.456 1.086,-0.868 z m 8.157,4.914 -0.055,-0.015 c -0.104,0.083 -0.253,0.2 -0.445,0.351 -0.188,0.151 -0.386,0.284 -0.594,0.399 -0.24,0.14 -0.482,0.255 -0.727,0.343 -0.245,0.089 -0.515,0.133 -0.812,0.133 -0.755,0 -1.339,-0.265 -1.75,-0.797 -0.407,-0.536 -0.61,-1.273 -0.61,-2.211 0,-0.645 0.118,-1.273 0.352,-1.882 0.24,-0.61 0.565,-1.151 0.977,-1.625 0.395,-0.459 0.869,-0.826 1.421,-1.102 0.552,-0.281 1.131,-0.422 1.735,-0.422 0.375,0 0.729,0.05 1.062,0.149 0.334,0.093 0.602,0.205 0.805,0.336 l 1.43,-0.368 0.093,0.118 -1.312,6.156 c -0.198,0.932 -0.453,1.719 -0.766,2.359 -0.307,0.646 -0.664,1.156 -1.07,1.531 -0.417,0.386 -0.878,0.659 -1.383,0.821 -0.5,0.166 -1.068,0.25 -1.703,0.25 -0.432,0 -0.786,-0.034 -1.062,-0.102 -0.271,-0.068 -0.485,-0.156 -0.641,-0.265 -0.156,-0.11 -0.263,-0.235 -0.32,-0.375 -0.053,-0.136 -0.079,-0.266 -0.079,-0.391 0,-0.234 0.071,-0.432 0.211,-0.594 0.141,-0.156 0.334,-0.234 0.579,-0.234 0.192,0 0.356,0.054 0.492,0.164 0.135,0.114 0.244,0.237 0.328,0.367 0.088,0.135 0.174,0.297 0.258,0.484 0.083,0.188 0.145,0.329 0.187,0.422 h 0.235 c 0.286,0 0.593,-0.065 0.921,-0.195 0.329,-0.13 0.628,-0.341 0.899,-0.633 0.276,-0.302 0.534,-0.708 0.773,-1.219 0.24,-0.505 0.43,-1.156 0.571,-1.953 z m 1.046,-4.992 c 0,-0.146 -0.023,-0.294 -0.07,-0.445 -0.042,-0.156 -0.122,-0.3 -0.242,-0.43 -0.115,-0.125 -0.26,-0.224 -0.438,-0.297 -0.177,-0.073 -0.403,-0.109 -0.679,-0.109 -0.401,0 -0.781,0.122 -1.141,0.367 -0.354,0.24 -0.674,0.57 -0.961,0.992 -0.265,0.396 -0.482,0.875 -0.648,1.438 -0.167,0.562 -0.25,1.127 -0.25,1.695 0,0.307 0.021,0.591 0.062,0.852 0.047,0.255 0.125,0.479 0.235,0.672 0.109,0.192 0.252,0.343 0.429,0.453 0.183,0.104 0.417,0.156 0.703,0.156 0.365,0 0.727,-0.104 1.086,-0.313 0.36,-0.213 0.701,-0.484 1.024,-0.812 z m 9.821,-0.211 c 0,0.552 -0.175,1.026 -0.524,1.422 -0.343,0.396 -0.846,0.711 -1.507,0.945 -0.485,0.177 -0.974,0.321 -1.469,0.43 -0.495,0.109 -1.042,0.201 -1.641,0.273 0,0.823 0.151,1.454 0.453,1.891 0.308,0.432 0.755,0.649 1.344,0.649 0.521,0 0.979,-0.131 1.375,-0.391 0.401,-0.26 0.794,-0.649 1.18,-1.164 l 0.445,0.328 c -0.417,0.635 -0.937,1.143 -1.563,1.523 -0.624,0.381 -1.273,0.571 -1.945,0.571 -0.922,0 -1.627,-0.258 -2.117,-0.774 -0.484,-0.515 -0.727,-1.247 -0.727,-2.195 0,-0.656 0.102,-1.281 0.305,-1.875 0.208,-0.599 0.511,-1.146 0.906,-1.641 0.386,-0.484 0.857,-0.875 1.414,-1.172 0.563,-0.296 1.183,-0.445 1.86,-0.445 0.75,0 1.304,0.154 1.664,0.461 0.364,0.302 0.547,0.69 0.547,1.164 z m -1.438,-0.195 c 0,-0.203 -0.028,-0.362 -0.086,-0.477 -0.057,-0.119 -0.13,-0.208 -0.218,-0.265 -0.094,-0.063 -0.193,-0.102 -0.297,-0.117 -0.104,-0.016 -0.211,-0.024 -0.321,-0.024 -0.625,0 -1.203,0.344 -1.734,1.031 -0.526,0.688 -0.859,1.545 -1,2.571 0.365,-0.052 0.776,-0.125 1.234,-0.219 0.459,-0.099 0.839,-0.227 1.141,-0.383 0.432,-0.224 0.753,-0.51 0.961,-0.859 0.213,-0.354 0.32,-0.774 0.32,-1.258 z m 6.531,-0.211 c 0,0.292 -0.106,0.542 -0.32,0.75 -0.208,0.208 -0.458,0.312 -0.75,0.312 -0.291,0 -0.544,-0.104 -0.758,-0.312 -0.208,-0.208 -0.312,-0.458 -0.312,-0.75 0,-0.292 0.104,-0.542 0.312,-0.75 0.209,-0.214 0.461,-0.32 0.758,-0.32 0.297,0 0.55,0.106 0.758,0.32 0.208,0.208 0.312,0.458 0.312,0.75 z m -1.289,5.766 c 0,0.291 -0.106,0.541 -0.32,0.75 -0.208,0.203 -0.458,0.304 -0.75,0.304 -0.292,0 -0.544,-0.101 -0.758,-0.304 -0.208,-0.209 -0.312,-0.459 -0.312,-0.75 0,-0.292 0.104,-0.542 0.312,-0.75 0.214,-0.214 0.466,-0.321 0.758,-0.321 0.292,0 0.542,0.107 0.75,0.321 0.214,0.208 0.32,0.458 0.32,0.75 z m 17.352,-10.188 -0.617,2.672 h -0.586 c -0.031,-0.552 -0.149,-1.016 -0.352,-1.391 -0.198,-0.375 -0.466,-0.588 -0.804,-0.64 -0.157,-0.021 -0.347,-0.037 -0.571,-0.047 -0.224,-0.011 -0.476,-0.016 -0.757,-0.016 h -1.782 l -1.023,4.461 h 1.25 c 0.385,0 0.685,-0.036 0.898,-0.109 0.214,-0.078 0.404,-0.206 0.571,-0.383 0.156,-0.156 0.307,-0.37 0.453,-0.641 0.146,-0.276 0.25,-0.508 0.312,-0.695 h 0.586 l -1,4.336 h -0.578 c 0,-0.057 0.003,-0.125 0.008,-0.203 0.01,-0.084 0.015,-0.172 0.015,-0.266 0,-0.193 -0.013,-0.377 -0.039,-0.554 -0.026,-0.178 -0.062,-0.308 -0.109,-0.391 -0.109,-0.203 -0.266,-0.336 -0.469,-0.399 -0.203,-0.062 -0.469,-0.093 -0.797,-0.093 h -1.25 l -0.773,3.383 c -0.031,0.124 -0.057,0.26 -0.078,0.406 -0.021,0.146 -0.031,0.26 -0.031,0.344 0,0.286 0.101,0.476 0.304,0.57 0.209,0.094 0.664,0.14 1.367,0.14 0.875,0 1.469,-0.031 1.782,-0.093 0.312,-0.063 0.544,-0.154 0.695,-0.274 0.297,-0.239 0.643,-0.622 1.039,-1.148 0.401,-0.526 0.669,-0.909 0.805,-1.149 h 0.562 L 195.445,116 h -9.203 l 0.117,-0.516 c 0.162,-0.01 0.375,-0.031 0.641,-0.062 0.266,-0.037 0.445,-0.073 0.539,-0.11 0.182,-0.067 0.32,-0.169 0.414,-0.304 0.099,-0.136 0.167,-0.294 0.203,-0.477 l 1.86,-8.047 c 0.01,-0.041 0.018,-0.088 0.023,-0.14 0.01,-0.052 0.016,-0.102 0.016,-0.149 0,-0.104 -0.024,-0.198 -0.071,-0.281 -0.041,-0.083 -0.119,-0.154 -0.234,-0.211 -0.125,-0.068 -0.302,-0.127 -0.531,-0.18 -0.229,-0.052 -0.409,-0.083 -0.539,-0.093 l 0.117,-0.516 z m 8.586,10.18 -0.117,0.5 c -0.469,0.187 -0.834,0.323 -1.094,0.406 -0.26,0.089 -0.523,0.133 -0.789,0.133 -0.417,0 -0.729,-0.107 -0.938,-0.321 -0.208,-0.218 -0.312,-0.486 -0.312,-0.804 0,-0.115 0.01,-0.24 0.031,-0.375 0.021,-0.141 0.055,-0.305 0.102,-0.492 l 0.765,-2.914 c 0.058,-0.224 0.102,-0.428 0.133,-0.61 0.037,-0.182 0.055,-0.328 0.055,-0.437 0,-0.349 -0.083,-0.625 -0.25,-0.828 -0.167,-0.204 -0.414,-0.305 -0.742,-0.305 -0.318,0 -0.675,0.104 -1.071,0.312 -0.395,0.209 -0.768,0.511 -1.117,0.907 l -1.32,5.734 h -1.453 l 1.164,-5.062 c 0.026,-0.126 0.062,-0.305 0.109,-0.54 0.052,-0.239 0.078,-0.432 0.078,-0.578 0,-0.291 -0.049,-0.487 -0.148,-0.586 -0.099,-0.099 -0.297,-0.148 -0.594,-0.148 -0.114,0 -0.26,0.021 -0.437,0.062 -0.177,0.037 -0.315,0.068 -0.414,0.094 l 0.117,-0.5 c 0.406,-0.182 0.765,-0.318 1.078,-0.406 0.312,-0.089 0.581,-0.133 0.805,-0.133 0.411,0 0.705,0.112 0.882,0.336 0.177,0.224 0.271,0.534 0.282,0.93 h 0.046 c 0.573,-0.459 1.068,-0.797 1.485,-1.016 0.417,-0.224 0.891,-0.336 1.422,-0.336 0.5,0 0.89,0.146 1.172,0.438 0.281,0.286 0.421,0.664 0.421,1.133 0,0.093 -0.015,0.26 -0.046,0.5 -0.026,0.239 -0.071,0.476 -0.133,0.71 l -0.656,2.508 c -0.047,0.167 -0.094,0.36 -0.141,0.578 -0.042,0.214 -0.063,0.381 -0.063,0.5 0,0.297 0.066,0.5 0.196,0.61 0.13,0.104 0.343,0.156 0.64,0.156 0.099,0 0.24,-0.016 0.422,-0.047 0.188,-0.036 0.331,-0.073 0.43,-0.109 z m 6,-0.149 -0.055,-0.015 c -0.104,0.083 -0.252,0.2 -0.445,0.351 -0.188,0.151 -0.385,0.284 -0.594,0.399 -0.239,0.14 -0.482,0.255 -0.726,0.343 -0.245,0.089 -0.516,0.133 -0.813,0.133 -0.755,0 -1.338,-0.265 -1.75,-0.797 -0.406,-0.536 -0.609,-1.273 -0.609,-2.211 0,-0.645 0.117,-1.273 0.351,-1.882 0.24,-0.61 0.565,-1.151 0.977,-1.625 0.396,-0.459 0.87,-0.826 1.422,-1.102 0.552,-0.281 1.13,-0.422 1.734,-0.422 0.375,0 0.729,0.05 1.063,0.149 0.333,0.093 0.601,0.205 0.804,0.336 l 1.43,-0.368 0.094,0.118 -1.313,6.156 c -0.198,0.932 -0.453,1.719 -0.765,2.359 -0.308,0.646 -0.664,1.156 -1.071,1.531 -0.416,0.386 -0.877,0.659 -1.383,0.821 -0.5,0.166 -1.067,0.25 -1.703,0.25 -0.432,0 -0.786,-0.034 -1.062,-0.102 -0.271,-0.068 -0.485,-0.156 -0.641,-0.265 -0.156,-0.11 -0.263,-0.235 -0.32,-0.375 -0.052,-0.136 -0.078,-0.266 -0.078,-0.391 0,-0.234 0.07,-0.432 0.211,-0.594 0.14,-0.156 0.333,-0.234 0.578,-0.234 0.193,0 0.357,0.054 0.492,0.164 0.135,0.114 0.245,0.237 0.328,0.367 0.089,0.135 0.175,0.297 0.258,0.484 0.083,0.188 0.146,0.329 0.187,0.422 h 0.235 c 0.286,0 0.594,-0.065 0.922,-0.195 0.328,-0.13 0.627,-0.341 0.898,-0.633 0.276,-0.302 0.534,-0.708 0.774,-1.219 0.239,-0.505 0.429,-1.156 0.57,-1.953 z m 1.047,-4.992 c 0,-0.146 -0.024,-0.294 -0.07,-0.445 -0.042,-0.156 -0.123,-0.3 -0.243,-0.43 -0.114,-0.125 -0.26,-0.224 -0.437,-0.297 -0.177,-0.073 -0.404,-0.109 -0.68,-0.109 -0.401,0 -0.781,0.122 -1.14,0.367 -0.355,0.24 -0.675,0.57 -0.961,0.992 -0.266,0.396 -0.482,0.875 -0.649,1.438 -0.167,0.562 -0.25,1.127 -0.25,1.695 0,0.307 0.021,0.591 0.063,0.852 0.047,0.255 0.125,0.479 0.234,0.672 0.109,0.192 0.253,0.343 0.43,0.453 0.182,0.104 0.416,0.156 0.703,0.156 0.364,0 0.726,-0.104 1.086,-0.313 0.359,-0.213 0.7,-0.484 1.023,-0.812 z m 7.273,-5.93 -2.179,9.407 c -0.047,0.198 -0.092,0.396 -0.133,0.593 -0.042,0.198 -0.063,0.36 -0.063,0.485 0,0.297 0.065,0.5 0.196,0.609 0.135,0.11 0.351,0.164 0.648,0.164 0.104,0 0.258,-0.013 0.461,-0.039 0.208,-0.026 0.365,-0.057 0.469,-0.094 l -0.118,0.5 c -0.468,0.188 -0.83,0.321 -1.085,0.399 -0.25,0.078 -0.534,0.117 -0.852,0.117 -0.417,0 -0.734,-0.107 -0.953,-0.32 -0.214,-0.219 -0.32,-0.487 -0.32,-0.805 0,-0.12 0.01,-0.245 0.031,-0.375 0.026,-0.13 0.06,-0.294 0.101,-0.492 l 1.899,-8.227 c 0.036,-0.161 0.06,-0.273 0.07,-0.336 0.016,-0.062 0.024,-0.14 0.024,-0.234 0,-0.187 -0.032,-0.331 -0.094,-0.43 -0.063,-0.104 -0.151,-0.182 -0.266,-0.234 -0.109,-0.047 -0.247,-0.078 -0.414,-0.094 -0.167,-0.015 -0.336,-0.034 -0.508,-0.055 l 0.11,-0.476 2.898,-0.18 z m 4.18,11.125 -0.117,0.5 c -0.479,0.193 -0.862,0.326 -1.149,0.399 -0.286,0.078 -0.531,0.117 -0.734,0.117 -0.417,0 -0.729,-0.107 -0.938,-0.32 -0.208,-0.219 -0.312,-0.487 -0.312,-0.805 0,-0.12 0.01,-0.245 0.031,-0.375 0.021,-0.13 0.055,-0.294 0.102,-0.492 l 0.828,-3.32 c 0.042,-0.183 0.081,-0.378 0.117,-0.586 0.042,-0.209 0.063,-0.386 0.063,-0.532 0,-0.291 -0.05,-0.484 -0.149,-0.578 -0.094,-0.099 -0.289,-0.148 -0.586,-0.148 -0.114,0 -0.268,0.018 -0.461,0.054 -0.187,0.037 -0.33,0.068 -0.429,0.094 l 0.117,-0.5 c 0.406,-0.182 0.771,-0.317 1.094,-0.406 0.322,-0.089 0.578,-0.133 0.765,-0.133 0.427,0 0.737,0.102 0.93,0.305 0.193,0.203 0.289,0.476 0.289,0.82 0,0.094 -0.011,0.222 -0.031,0.383 -0.021,0.161 -0.052,0.323 -0.094,0.484 l -0.836,3.321 c -0.052,0.203 -0.099,0.403 -0.141,0.601 -0.036,0.193 -0.054,0.352 -0.054,0.477 0,0.297 0.065,0.5 0.195,0.609 0.135,0.11 0.351,0.164 0.648,0.164 0.099,0 0.24,-0.013 0.422,-0.039 0.188,-0.026 0.331,-0.057 0.43,-0.094 z m 0.555,-9.984 c 0,0.297 -0.097,0.557 -0.289,0.781 -0.193,0.219 -0.433,0.328 -0.719,0.328 -0.266,0 -0.495,-0.104 -0.688,-0.312 -0.192,-0.214 -0.289,-0.456 -0.289,-0.727 0,-0.286 0.097,-0.536 0.289,-0.75 0.193,-0.213 0.422,-0.32 0.688,-0.32 0.297,0 0.539,0.102 0.726,0.305 0.188,0.198 0.282,0.429 0.282,0.695 z m 2.734,11.063 c -0.771,0 -1.414,-0.136 -1.93,-0.407 -0.51,-0.276 -0.765,-0.635 -0.765,-1.078 0,-0.208 0.075,-0.403 0.226,-0.586 0.151,-0.182 0.336,-0.273 0.555,-0.273 0.208,0 0.375,0.049 0.5,0.148 0.13,0.094 0.232,0.206 0.305,0.336 0.078,0.136 0.145,0.297 0.203,0.485 0.062,0.187 0.114,0.341 0.156,0.46 0.078,0.089 0.185,0.172 0.32,0.25 0.141,0.073 0.341,0.11 0.602,0.11 0.562,0 0.987,-0.141 1.273,-0.422 0.292,-0.281 0.438,-0.661 0.438,-1.141 0,-0.354 -0.136,-0.635 -0.406,-0.843 -0.271,-0.214 -0.675,-0.409 -1.211,-0.586 -0.193,-0.063 -0.42,-0.157 -0.68,-0.282 -0.26,-0.13 -0.469,-0.268 -0.625,-0.414 -0.188,-0.166 -0.339,-0.364 -0.453,-0.593 -0.115,-0.23 -0.172,-0.5 -0.172,-0.813 0,-0.667 0.297,-1.242 0.891,-1.726 0.599,-0.49 1.333,-0.735 2.203,-0.735 0.203,0 0.422,0.011 0.656,0.031 0.234,0.021 0.492,0.079 0.773,0.172 0.245,0.084 0.453,0.209 0.625,0.375 0.172,0.162 0.258,0.373 0.258,0.633 0,0.214 -0.073,0.409 -0.219,0.586 -0.14,0.172 -0.328,0.258 -0.562,0.258 -0.193,0 -0.352,-0.042 -0.477,-0.125 -0.125,-0.083 -0.229,-0.195 -0.312,-0.336 -0.083,-0.141 -0.151,-0.292 -0.203,-0.453 -0.052,-0.162 -0.11,-0.32 -0.172,-0.477 -0.099,-0.041 -0.188,-0.07 -0.266,-0.086 -0.078,-0.015 -0.182,-0.023 -0.312,-0.023 -0.511,0 -0.899,0.138 -1.164,0.414 -0.261,0.271 -0.391,0.594 -0.391,0.969 0,0.364 0.117,0.64 0.352,0.828 0.239,0.182 0.632,0.372 1.179,0.57 0.709,0.255 1.222,0.547 1.539,0.875 0.323,0.328 0.485,0.734 0.485,1.219 0,0.792 -0.305,1.437 -0.914,1.937 -0.61,0.495 -1.378,0.743 -2.305,0.743 z m 12.625,-1.133 -0.117,0.5 c -0.469,0.187 -0.834,0.323 -1.094,0.406 -0.26,0.089 -0.523,0.133 -0.789,0.133 -0.417,0 -0.729,-0.107 -0.937,-0.321 -0.209,-0.218 -0.313,-0.486 -0.313,-0.804 0,-0.115 0.01,-0.24 0.031,-0.375 0.021,-0.141 0.055,-0.305 0.102,-0.492 l 0.765,-2.914 c 0.058,-0.224 0.102,-0.428 0.133,-0.61 0.037,-0.182 0.055,-0.328 0.055,-0.437 0,-0.349 -0.083,-0.625 -0.25,-0.828 -0.167,-0.204 -0.414,-0.305 -0.742,-0.305 -0.334,0 -0.696,0.107 -1.086,0.32 -0.386,0.214 -0.753,0.513 -1.102,0.899 l -1.32,5.734 h -1.453 l 2.32,-10.055 c 0.026,-0.119 0.047,-0.221 0.063,-0.304 0.02,-0.084 0.031,-0.172 0.031,-0.266 0,-0.187 -0.031,-0.331 -0.094,-0.43 -0.062,-0.104 -0.151,-0.182 -0.266,-0.234 -0.098,-0.047 -0.234,-0.078 -0.406,-0.094 -0.172,-0.015 -0.344,-0.034 -0.515,-0.055 l 0.109,-0.476 2.898,-0.18 0.079,0.117 -1.25,5.407 h 0.031 c 0.536,-0.433 1.015,-0.758 1.437,-0.977 0.422,-0.224 0.901,-0.336 1.438,-0.336 0.5,0 0.89,0.146 1.172,0.438 0.281,0.286 0.422,0.664 0.422,1.133 0,0.093 -0.016,0.26 -0.047,0.5 -0.026,0.239 -0.071,0.476 -0.133,0.71 l -0.656,2.508 c -0.042,0.167 -0.086,0.36 -0.133,0.578 -0.047,0.214 -0.07,0.381 -0.07,0.5 0,0.297 0.065,0.5 0.195,0.61 0.13,0.104 0.344,0.156 0.64,0.156 0.099,0 0.24,-0.016 0.422,-0.047 0.188,-0.036 0.331,-0.073 0.43,-0.109 z"
       fill="#000000"
       id="path10" />
    <rect
       x="88.5"
       y="24.5"
       width="485"
       height="47"
       fill="white"
       id="rect11"
       style="fill:#ffffff;fill-opacity:1;stroke:#78716c" />
    <rect
       x="88.5"
       y="24.5"
       width="485"
       height="47"
       stroke="#78716c"
       id="rect12" />
    <path
       d="m 121.531,56.4696 -4.694,-4.6931 c 1.36,-1.6334 2.039,-3.7285 1.894,-5.8493 -0.145,-2.1209 -1.102,-4.1043 -2.672,-5.5376 -1.57,-1.4334 -3.632,-2.2063 -5.757,-2.158 -2.125,0.0483 -4.15,0.9141 -5.653,2.4173 -1.503,1.5032 -2.369,3.528 -2.417,5.6532 -0.049,2.1253 0.724,4.1873 2.158,5.7572 1.433,1.57 3.416,2.5268 5.537,2.6716 2.121,0.1448 4.216,-0.5336 5.849,-1.8941 l 4.694,4.694 c 0.069,0.0697 0.152,0.125 0.243,0.1627 0.091,0.0377 0.189,0.0571 0.287,0.0571 0.099,0 0.196,-0.0194 0.287,-0.0571 0.091,-0.0377 0.174,-0.093 0.244,-0.1627 0.07,-0.0696 0.125,-0.1524 0.163,-0.2434 0.037,-0.0911 0.057,-0.1886 0.057,-0.2872 0,-0.0985 -0.02,-0.1961 -0.057,-0.2872 -0.038,-0.091 -0.093,-0.1737 -0.163,-0.2434 z M 103.75,46.5002 c 0,-1.335 0.396,-2.6401 1.138,-3.7501 0.741,-1.11 1.796,-1.9752 3.029,-2.4861 1.234,-0.5109 2.591,-0.6445 3.9,-0.3841 1.309,0.2605 2.512,0.9033 3.456,1.8473 0.944,0.944 1.587,2.1468 1.848,3.4562 0.26,1.3093 0.126,2.6665 -0.385,3.8999 -0.51,1.2334 -1.376,2.2876 -2.486,3.0293 -1.11,0.7417 -2.415,1.1376 -3.75,1.1376 -1.789,-0.002 -3.505,-0.7138 -4.771,-1.9792 -1.265,-1.2654 -1.977,-2.9812 -1.979,-4.7708 z"
       fill="#000000"
       id="path12" />
    <path
       d="m 149.258,52.2344 c -0.404,0.7682 -0.944,1.3802 -1.621,1.8359 -0.677,0.4557 -1.455,0.6836 -2.334,0.6836 -0.775,0 -1.455,-0.1367 -2.041,-0.4101 -0.58,-0.2735 -1.058,-0.6446 -1.436,-1.1133 -0.377,-0.4688 -0.661,-1.0157 -0.849,-1.6407 -0.183,-0.625 -0.274,-1.2858 -0.274,-1.9824 0,-0.625 0.098,-1.237 0.293,-1.8359 0.202,-0.6055 0.495,-1.1491 0.879,-1.6309 0.371,-0.4622 0.83,-0.8333 1.377,-1.1133 0.553,-0.2864 1.172,-0.4296 1.855,-0.4296 0.704,0 1.306,0.1106 1.807,0.332 0.501,0.2213 0.908,0.5241 1.221,0.9082 0.299,0.3646 0.521,0.7943 0.664,1.2891 0.15,0.4947 0.224,1.0319 0.224,1.6113 v 0.6445 h -6.377 c 0,0.6315 0.059,1.2044 0.176,1.7188 0.124,0.5143 0.316,0.9668 0.576,1.3574 0.254,0.3776 0.586,0.6771 0.997,0.8984 0.41,0.2149 0.898,0.3223 1.464,0.3223 0.58,0 1.078,-0.1335 1.495,-0.4004 0.423,-0.2734 0.83,-0.7617 1.22,-1.4648 z M 147.1,48.5625 c 0,-0.3646 -0.033,-0.7552 -0.098,-1.1719 -0.059,-0.4166 -0.156,-0.7649 -0.293,-1.0449 -0.15,-0.2995 -0.355,-0.5436 -0.615,-0.7324 -0.261,-0.1888 -0.596,-0.2832 -1.006,-0.2832 -0.684,0 -1.253,0.2864 -1.709,0.8594 -0.449,0.5664 -0.693,1.3574 -0.733,2.373 z M 161.006,54.5 h -4.717 v -0.6445 c 0.15,-0.0131 0.313,-0.0261 0.488,-0.0391 0.183,-0.013 0.332,-0.0391 0.45,-0.0781 0.182,-0.0586 0.315,-0.1595 0.4,-0.3028 0.091,-0.1497 0.137,-0.3417 0.137,-0.5761 v -4.9512 c 0,-0.6836 -0.163,-1.2109 -0.489,-1.582 -0.319,-0.3711 -0.709,-0.5567 -1.171,-0.5567 -0.346,0 -0.661,0.0554 -0.948,0.166 -0.286,0.1042 -0.54,0.2344 -0.761,0.3907 -0.215,0.1497 -0.388,0.3125 -0.518,0.4883 -0.124,0.1692 -0.215,0.3059 -0.273,0.4101 v 5.5371 c 0,0.2214 0.045,0.4037 0.136,0.5469 0.091,0.1432 0.228,0.2539 0.41,0.332 0.137,0.0651 0.284,0.114 0.44,0.1465 0.163,0.0326 0.329,0.0553 0.498,0.0684 V 54.5 h -4.717 v -0.6445 c 0.15,-0.0131 0.303,-0.0261 0.459,-0.0391 0.163,-0.013 0.303,-0.0391 0.42,-0.0781 0.182,-0.0586 0.316,-0.1595 0.4,-0.3028 0.092,-0.1497 0.137,-0.3417 0.137,-0.5761 v -5.9473 c 0,-0.2213 -0.049,-0.4232 -0.146,-0.6055 -0.092,-0.1888 -0.222,-0.3418 -0.391,-0.4589 -0.124,-0.0782 -0.27,-0.1335 -0.439,-0.1661 -0.17,-0.039 -0.352,-0.0651 -0.547,-0.0781 v -0.6347 l 3.203,-0.2149 0.137,0.1367 v 1.3574 h 0.048 c 0.157,-0.1562 0.352,-0.3418 0.586,-0.5566 0.235,-0.2213 0.456,-0.4004 0.664,-0.5371 0.241,-0.1563 0.528,-0.2865 0.86,-0.3906 0.332,-0.1042 0.706,-0.1563 1.123,-0.1563 0.924,0 1.608,0.2897 2.051,0.8692 0.449,0.5729 0.673,1.3379 0.673,2.2949 v 5.0097 c 0,0.2279 0.039,0.4135 0.118,0.5567 0.078,0.1367 0.211,0.2441 0.4,0.3223 0.156,0.0651 0.29,0.1106 0.4,0.1367 0.118,0.026 0.277,0.0455 0.479,0.0586 z m 4.687,-0.5859 c 0,0.7161 -0.104,1.3867 -0.312,2.0117 -0.208,0.6315 -0.485,1.1523 -0.83,1.5625 -0.371,0.4362 -0.791,0.7682 -1.26,0.9961 -0.462,0.2344 -0.973,0.3515 -1.533,0.3515 -0.58,0 -1.016,-0.1171 -1.309,-0.3515 -0.293,-0.2279 -0.439,-0.4981 -0.439,-0.8106 0,-0.2799 0.078,-0.5273 0.234,-0.7422 0.156,-0.2083 0.384,-0.3125 0.684,-0.3125 0.202,0 0.381,0.0424 0.537,0.127 0.156,0.0846 0.293,0.1953 0.41,0.332 0.104,0.1172 0.208,0.2604 0.313,0.4297 0.11,0.1758 0.214,0.3451 0.312,0.5078 0.495,0 0.846,-0.2995 1.055,-0.8984 0.215,-0.599 0.322,-1.5593 0.322,-2.8809 v -7.2461 c 0,-0.2083 -0.052,-0.4069 -0.156,-0.5957 -0.098,-0.1953 -0.228,-0.3515 -0.391,-0.4687 -0.104,-0.0716 -0.355,-0.1432 -0.752,-0.2149 -0.39,-0.0716 -0.687,-0.1171 -0.889,-0.1367 v -0.6054 l 3.868,-0.2149 0.136,0.1367 z m 0.147,-12.9688 c 0,0.3711 -0.124,0.6966 -0.371,0.9766 -0.241,0.2734 -0.541,0.4101 -0.899,0.4101 -0.332,0 -0.621,-0.1302 -0.869,-0.3906 -0.241,-0.2669 -0.361,-0.5697 -0.361,-0.9082 0,-0.3581 0.12,-0.6706 0.361,-0.9375 0.248,-0.2669 0.537,-0.4004 0.869,-0.4004 0.371,0 0.674,0.127 0.909,0.3809 0.24,0.2474 0.361,0.5371 0.361,0.8691 z m 11.572,8.6426 c 0,0.6771 -0.107,1.3444 -0.322,2.0019 -0.215,0.6511 -0.521,1.2045 -0.918,1.6602 -0.449,0.5208 -0.97,0.9082 -1.563,1.1621 -0.592,0.2539 -1.256,0.3809 -1.992,0.3809 -0.612,0 -1.194,-0.114 -1.748,-0.3418 -0.553,-0.2344 -1.045,-0.5729 -1.474,-1.0157 -0.424,-0.4362 -0.762,-0.9667 -1.016,-1.5917 -0.247,-0.6316 -0.371,-1.3379 -0.371,-2.1192 0,-1.5039 0.436,-2.7344 1.308,-3.6914 0.879,-0.957 2.028,-1.4355 3.448,-1.4355 1.347,0 2.457,0.4557 3.33,1.3671 0.879,0.905 1.318,2.1127 1.318,3.6231 z m -2.021,0.0195 c 0,-0.4883 -0.049,-1.0026 -0.147,-1.5429 -0.098,-0.5469 -0.244,-1.0092 -0.439,-1.3868 -0.209,-0.4036 -0.482,-0.7259 -0.821,-0.9668 -0.338,-0.2474 -0.752,-0.3711 -1.24,-0.3711 -0.501,0 -0.931,0.1237 -1.289,0.3711 -0.351,0.2474 -0.638,0.586 -0.859,1.0157 -0.209,0.3971 -0.355,0.8496 -0.44,1.3574 -0.084,0.5078 -0.127,0.9993 -0.127,1.4746 0,0.625 0.049,1.2044 0.147,1.7383 0.104,0.5273 0.267,0.9993 0.488,1.416 0.221,0.4167 0.498,0.7454 0.83,0.9863 0.339,0.2344 0.755,0.3516 1.25,0.3516 0.814,0 1.458,-0.3939 1.934,-1.1817 0.475,-0.7877 0.713,-1.875 0.713,-3.2617 z m 2.685,8.0371 c 0,-0.3255 0.088,-0.5924 0.264,-0.8007 0.182,-0.2019 0.407,-0.3028 0.674,-0.3028 0.208,0 0.387,0.0391 0.537,0.1172 0.15,0.0781 0.283,0.179 0.4,0.3027 0.098,0.0977 0.202,0.2312 0.313,0.4004 0.11,0.1693 0.198,0.3093 0.263,0.4199 0.326,-0.1757 0.713,-0.6347 1.162,-1.3769 0.456,-0.7422 0.785,-1.3932 0.987,-1.9531 -0.619,-1.543 -1.179,-2.9232 -1.68,-4.1407 -0.501,-1.2174 -1.025,-2.4772 -1.572,-3.7793 -0.124,-0.2994 -0.332,-0.5305 -0.625,-0.6933 -0.293,-0.1693 -0.586,-0.2767 -0.879,-0.3223 v -0.6445 h 4.394 v 0.6836 c -0.195,0.0065 -0.429,0.0488 -0.703,0.1269 -0.273,0.0717 -0.41,0.1563 -0.41,0.2539 0,0.0391 0.013,0.1042 0.039,0.1954 0.033,0.0911 0.069,0.1855 0.108,0.2832 0.247,0.6445 0.625,1.5755 1.132,2.7929 0.508,1.211 0.902,2.181 1.182,2.9102 0.293,-0.6966 0.596,-1.416 0.908,-2.1582 0.319,-0.7487 0.674,-1.6309 1.065,-2.6465 0.045,-0.1237 0.11,-0.293 0.195,-0.5078 0.085,-0.2214 0.127,-0.4102 0.127,-0.5664 0,-0.1693 -0.15,-0.3255 -0.449,-0.4688 -0.293,-0.1497 -0.573,-0.2409 -0.84,-0.2734 v -0.625 h 3.574 v 0.6055 c -0.195,0.0325 -0.452,0.1464 -0.771,0.3418 -0.319,0.1888 -0.557,0.4589 -0.713,0.8105 -0.775,1.7969 -1.465,3.4343 -2.07,4.9121 -0.599,1.4779 -1.055,2.5651 -1.368,3.2617 -0.41,0.9115 -0.778,1.6211 -1.103,2.1289 -0.319,0.5144 -0.632,0.918 -0.938,1.211 -0.299,0.2734 -0.573,0.4557 -0.82,0.5469 -0.241,0.0976 -0.492,0.1464 -0.752,0.1464 -0.508,0 -0.908,-0.1204 -1.201,-0.3613 -0.287,-0.2409 -0.43,-0.5176 -0.43,-0.8301 z M 193.33,54.5 h -4.658 v -0.6445 c 0.15,-0.0131 0.303,-0.0261 0.459,-0.0391 0.163,-0.013 0.303,-0.0391 0.42,-0.0781 0.182,-0.0586 0.316,-0.1595 0.4,-0.3028 0.091,-0.1497 0.137,-0.3417 0.137,-0.5761 v -5.9473 c 0,-0.2083 -0.049,-0.3971 -0.147,-0.5664 -0.091,-0.1758 -0.221,-0.3223 -0.39,-0.4395 -0.124,-0.0781 -0.303,-0.1432 -0.537,-0.1953 -0.235,-0.0586 -0.45,-0.0944 -0.645,-0.1074 v -0.6347 l 3.399,-0.2149 0.136,0.1367 v 7.8516 c 0,0.2279 0.043,0.4167 0.127,0.5664 0.091,0.1497 0.231,0.2604 0.42,0.332 0.143,0.0586 0.283,0.1074 0.42,0.1465 0.137,0.0326 0.29,0.0553 0.459,0.0684 z M 192.1,40.9551 c 0,0.3711 -0.124,0.6966 -0.371,0.9765 -0.241,0.2735 -0.541,0.4102 -0.899,0.4102 -0.332,0 -0.622,-0.1302 -0.869,-0.3906 -0.241,-0.267 -0.361,-0.5697 -0.361,-0.9082 0,-0.3581 0.12,-0.6706 0.361,-0.9375 0.247,-0.267 0.537,-0.4004 0.869,-0.4004 0.371,0 0.674,0.1269 0.908,0.3808 0.241,0.2474 0.362,0.5371 0.362,0.8692 z M 205.146,54.5 h -4.716 v -0.6445 c 0.149,-0.0131 0.312,-0.0261 0.488,-0.0391 0.182,-0.013 0.332,-0.0391 0.449,-0.0781 0.182,-0.0586 0.316,-0.1595 0.401,-0.3028 0.091,-0.1497 0.136,-0.3417 0.136,-0.5761 v -4.9512 c 0,-0.6836 -0.162,-1.2109 -0.488,-1.582 -0.319,-0.3711 -0.71,-0.5567 -1.172,-0.5567 -0.345,0 -0.661,0.0554 -0.947,0.166 -0.287,0.1042 -0.54,0.2344 -0.762,0.3907 -0.215,0.1497 -0.387,0.3125 -0.517,0.4883 -0.124,0.1692 -0.215,0.3059 -0.274,0.4101 v 5.5371 c 0,0.2214 0.046,0.4037 0.137,0.5469 0.091,0.1432 0.228,0.2539 0.41,0.332 0.137,0.0651 0.283,0.114 0.439,0.1465 0.163,0.0326 0.329,0.0553 0.499,0.0684 V 54.5 h -4.717 v -0.6445 c 0.149,-0.0131 0.302,-0.0261 0.459,-0.0391 0.162,-0.013 0.302,-0.0391 0.42,-0.0781 0.182,-0.0586 0.315,-0.1595 0.4,-0.3028 0.091,-0.1497 0.137,-0.3417 0.137,-0.5761 v -5.9473 c 0,-0.2213 -0.049,-0.4232 -0.147,-0.6055 -0.091,-0.1888 -0.221,-0.3418 -0.39,-0.4589 -0.124,-0.0782 -0.271,-0.1335 -0.44,-0.1661 -0.169,-0.039 -0.351,-0.0651 -0.547,-0.0781 v -0.6347 l 3.203,-0.2149 0.137,0.1367 v 1.3574 h 0.049 c 0.156,-0.1562 0.352,-0.3418 0.586,-0.5566 0.234,-0.2213 0.456,-0.4004 0.664,-0.5371 0.241,-0.1563 0.527,-0.2865 0.859,-0.3906 0.332,-0.1042 0.707,-0.1563 1.123,-0.1563 0.925,0 1.608,0.2897 2.051,0.8692 0.449,0.5729 0.674,1.3379 0.674,2.2949 v 5.0097 c 0,0.2279 0.039,0.4135 0.117,0.5567 0.078,0.1367 0.212,0.2441 0.401,0.3223 0.156,0.0651 0.289,0.1106 0.4,0.1367 0.117,0.026 0.277,0.0455 0.478,0.0586 z m 9.434,-0.9961 c 0.26,0.2474 0.466,0.5273 0.615,0.8399 0.15,0.3124 0.225,0.6998 0.225,1.1621 0,0.4622 -0.101,0.8951 -0.303,1.2988 -0.202,0.4101 -0.508,0.765 -0.918,1.0644 -0.436,0.306 -0.957,0.5437 -1.562,0.7129 -0.606,0.1693 -1.354,0.2539 -2.246,0.2539 -1.459,0 -2.549,-0.2148 -3.272,-0.6445 -0.723,-0.4232 -1.084,-1.0449 -1.084,-1.8652 0,-0.6641 0.261,-1.1882 0.781,-1.5723 0.521,-0.3841 1.185,-0.5924 1.993,-0.625 v -0.1367 c -0.196,-0.0586 -0.398,-0.1302 -0.606,-0.2149 -0.208,-0.0911 -0.387,-0.1953 -0.537,-0.3125 -0.169,-0.1367 -0.306,-0.2962 -0.41,-0.4785 -0.104,-0.1888 -0.156,-0.4199 -0.156,-0.6933 0,-0.3451 0.12,-0.6608 0.361,-0.9473 0.247,-0.293 0.618,-0.5436 1.113,-0.7519 v -0.1465 c -0.625,-0.293 -1.11,-0.6674 -1.455,-1.1231 -0.345,-0.4622 -0.517,-0.9961 -0.517,-1.6015 0,-0.9115 0.338,-1.6602 1.015,-2.2461 0.684,-0.586 1.556,-0.8789 2.617,-0.8789 0.293,0 0.583,0.0293 0.87,0.0878 0.292,0.0586 0.589,0.1335 0.888,0.2247 h 3.36 v 0.9375 h -2.266 v 0.0585 c 0.241,0.28 0.42,0.5892 0.537,0.9278 0.117,0.3385 0.176,0.6706 0.176,0.9961 0,0.8463 -0.345,1.5625 -1.035,2.1484 -0.684,0.586 -1.481,0.8789 -2.393,0.8789 h -1.182 c -0.149,0.0521 -0.306,0.1465 -0.468,0.2832 -0.163,0.1367 -0.244,0.3223 -0.244,0.5567 0,0.2409 0.068,0.4264 0.205,0.5566 0.136,0.1237 0.302,0.2083 0.498,0.2539 0.188,0.0521 0.407,0.0846 0.654,0.0977 0.254,0.013 0.514,0.0228 0.781,0.0293 0.287,0.0065 0.677,0.026 1.172,0.0586 0.501,0.0325 0.856,0.052 1.065,0.0586 0.299,0.013 0.599,0.0846 0.898,0.2148 0.306,0.1302 0.583,0.3092 0.83,0.5371 z m -2.637,-5.7129 c 0,-0.7617 -0.156,-1.3672 -0.468,-1.8164 -0.306,-0.4557 -0.739,-0.6836 -1.299,-0.6836 -0.306,0 -0.57,0.0651 -0.791,0.1953 -0.215,0.1237 -0.391,0.3028 -0.528,0.5371 -0.13,0.2149 -0.224,0.4753 -0.283,0.7813 -0.052,0.2995 -0.078,0.6087 -0.078,0.9277 0,0.7227 0.156,1.3119 0.469,1.7676 0.319,0.4557 0.729,0.6836 1.23,0.6836 0.56,0 0.99,-0.2246 1.289,-0.6738 0.306,-0.4558 0.459,-1.0287 0.459,-1.7188 z m 1.875,8.0762 c 0,-0.3646 -0.084,-0.6641 -0.254,-0.8984 -0.169,-0.2344 -0.426,-0.3939 -0.771,-0.4786 -0.182,-0.026 -0.557,-0.0553 -1.123,-0.0879 -0.566,-0.0325 -1.224,-0.0488 -1.973,-0.0488 -0.703,0.1367 -1.204,0.3646 -1.504,0.6836 -0.293,0.3255 -0.439,0.7422 -0.439,1.25 0,0.2279 0.049,0.446 0.146,0.6543 0.098,0.2083 0.267,0.4004 0.508,0.5762 0.228,0.1692 0.534,0.306 0.918,0.4101 0.384,0.1107 0.853,0.1661 1.406,0.1661 0.957,0 1.709,-0.1856 2.256,-0.5567 0.554,-0.3646 0.83,-0.9212 0.83,-1.6699 z"
       fill="#000000"
       id="path13" />
    <path
       d="m 148.852,174.133 c -0.183,0.297 -0.404,0.578 -0.664,0.844 -0.256,0.26 -0.547,0.484 -0.876,0.671 -0.348,0.198 -0.703,0.347 -1.062,0.446 -0.354,0.104 -0.763,0.156 -1.227,0.156 -0.77,0 -1.437,-0.109 -2,-0.328 -0.557,-0.219 -1.018,-0.513 -1.382,-0.883 -0.365,-0.37 -0.638,-0.805 -0.821,-1.305 -0.177,-0.505 -0.265,-1.052 -0.265,-1.64 0,-0.532 0.096,-1.039 0.289,-1.524 0.198,-0.489 0.476,-0.924 0.836,-1.304 0.354,-0.37 0.799,-0.67 1.336,-0.899 0.541,-0.229 1.145,-0.344 1.812,-0.344 0.729,0 1.328,0.089 1.797,0.266 0.469,0.177 0.857,0.422 1.164,0.734 0.297,0.297 0.513,0.649 0.649,1.055 0.135,0.401 0.203,0.823 0.203,1.266 v 0.508 h -5.282 c 0,1.067 0.206,1.88 0.618,2.437 0.411,0.557 1.065,0.836 1.961,0.836 0.489,0 0.929,-0.133 1.32,-0.398 0.39,-0.271 0.724,-0.612 1,-1.024 z m -2.985,-2.969 c 0,-0.312 -0.015,-0.633 -0.047,-0.961 -0.031,-0.328 -0.086,-0.596 -0.164,-0.805 -0.088,-0.244 -0.211,-0.429 -0.367,-0.554 -0.151,-0.125 -0.344,-0.188 -0.578,-0.188 -0.401,0 -0.721,0.203 -0.961,0.61 -0.24,0.406 -0.37,1.049 -0.391,1.929 z M 159.922,176 h -4.703 v -0.57 c 0.099,-0.011 0.219,-0.024 0.359,-0.039 0.141,-0.016 0.248,-0.042 0.32,-0.079 0.11,-0.057 0.188,-0.14 0.235,-0.25 0.047,-0.109 0.07,-0.27 0.07,-0.484 v -3.656 c 0,-0.531 -0.099,-0.93 -0.297,-1.195 -0.192,-0.271 -0.479,-0.407 -0.859,-0.407 -0.208,0 -0.404,0.032 -0.586,0.094 -0.177,0.063 -0.352,0.154 -0.523,0.274 -0.152,0.104 -0.274,0.21 -0.368,0.32 -0.088,0.109 -0.164,0.206 -0.226,0.289 v 4.195 c 0,0.182 0.026,0.336 0.078,0.461 0.052,0.12 0.138,0.211 0.258,0.274 0.083,0.046 0.187,0.088 0.312,0.125 0.125,0.036 0.248,0.062 0.367,0.078 V 176 h -4.75 v -0.57 c 0.131,-0.011 0.261,-0.024 0.391,-0.039 0.135,-0.021 0.25,-0.047 0.344,-0.079 0.166,-0.057 0.281,-0.145 0.344,-0.265 0.062,-0.12 0.093,-0.276 0.093,-0.469 v -4.547 c 0,-0.161 -0.041,-0.32 -0.125,-0.476 -0.083,-0.157 -0.192,-0.284 -0.328,-0.383 -0.094,-0.063 -0.213,-0.115 -0.359,-0.156 -0.141,-0.042 -0.297,-0.071 -0.469,-0.086 v -0.571 l 3.727,-0.203 0.117,0.117 v 1.133 h 0.031 c 0.146,-0.13 0.323,-0.286 0.531,-0.468 0.209,-0.183 0.401,-0.331 0.578,-0.446 0.193,-0.125 0.446,-0.232 0.758,-0.32 0.313,-0.089 0.646,-0.133 1,-0.133 0.849,0 1.485,0.242 1.906,0.727 0.428,0.479 0.641,1.117 0.641,1.914 v 3.828 c 0,0.193 0.029,0.346 0.086,0.461 0.057,0.114 0.164,0.205 0.32,0.273 0.084,0.037 0.185,0.073 0.305,0.11 0.125,0.036 0.266,0.062 0.422,0.078 z m 4.586,-0.922 c 0,0.537 -0.091,1.078 -0.274,1.625 -0.182,0.547 -0.442,1.016 -0.781,1.406 -0.37,0.427 -0.818,0.761 -1.344,1 -0.526,0.24 -1.127,0.36 -1.804,0.36 -0.631,0 -1.115,-0.123 -1.453,-0.367 -0.344,-0.24 -0.516,-0.566 -0.516,-0.977 0,-0.146 0.018,-0.281 0.055,-0.406 0.031,-0.125 0.101,-0.255 0.211,-0.391 0.083,-0.114 0.213,-0.213 0.39,-0.297 0.172,-0.078 0.367,-0.117 0.586,-0.117 0.432,0 0.766,0.154 1,0.461 0.234,0.313 0.474,0.779 0.719,1.398 0.213,-0.119 0.37,-0.375 0.469,-0.765 0.104,-0.391 0.156,-1.24 0.156,-2.547 v -5.399 c 0,-0.182 -0.039,-0.341 -0.117,-0.476 -0.078,-0.141 -0.185,-0.258 -0.321,-0.352 -0.099,-0.067 -0.257,-0.13 -0.476,-0.187 -0.214,-0.063 -0.404,-0.102 -0.57,-0.117 v -0.571 l 3.953,-0.203 0.117,0.117 z m 0.031,-9.734 c 0,0.396 -0.154,0.734 -0.461,1.015 -0.302,0.276 -0.661,0.414 -1.078,0.414 -0.422,0 -0.786,-0.138 -1.094,-0.414 -0.302,-0.281 -0.453,-0.619 -0.453,-1.015 0,-0.396 0.151,-0.735 0.453,-1.016 0.308,-0.281 0.672,-0.422 1.094,-0.422 0.422,0 0.784,0.141 1.086,0.422 0.302,0.281 0.453,0.62 0.453,1.016 z m 9.641,3.828 c 0.385,0.359 0.679,0.789 0.882,1.289 0.204,0.5 0.305,1.042 0.305,1.625 0,0.578 -0.101,1.125 -0.305,1.641 -0.197,0.51 -0.489,0.947 -0.874,1.312 -0.412,0.391 -0.904,0.69 -1.477,0.899 -0.568,0.208 -1.219,0.312 -1.953,0.312 -0.636,0 -1.222,-0.091 -1.758,-0.273 -0.531,-0.183 -1.003,-0.456 -1.414,-0.821 -0.396,-0.349 -0.708,-0.778 -0.938,-1.289 -0.229,-0.515 -0.343,-1.091 -0.343,-1.726 0,-0.625 0.099,-1.18 0.297,-1.664 0.203,-0.49 0.505,-0.925 0.906,-1.305 0.385,-0.365 0.859,-0.646 1.422,-0.844 0.567,-0.203 1.2,-0.305 1.898,-0.305 0.729,0 1.37,0.102 1.922,0.305 0.557,0.198 1.034,0.479 1.43,0.844 z m -2,5.414 c 0.114,-0.292 0.198,-0.646 0.25,-1.063 0.057,-0.416 0.086,-0.901 0.086,-1.453 0,-0.364 -0.026,-0.781 -0.078,-1.25 -0.053,-0.468 -0.131,-0.838 -0.235,-1.109 -0.125,-0.328 -0.299,-0.586 -0.523,-0.773 -0.219,-0.188 -0.498,-0.282 -0.836,-0.282 -0.37,0 -0.667,0.102 -0.891,0.305 -0.219,0.203 -0.388,0.466 -0.508,0.789 -0.109,0.297 -0.185,0.646 -0.226,1.047 -0.042,0.396 -0.063,0.81 -0.063,1.242 0,0.568 0.018,1.039 0.055,1.414 0.036,0.37 0.125,0.742 0.266,1.117 0.119,0.323 0.291,0.578 0.515,0.766 0.224,0.187 0.508,0.281 0.852,0.281 0.312,0 0.58,-0.086 0.804,-0.258 0.224,-0.177 0.401,-0.435 0.532,-0.773 z m 13.023,-5.766 c -0.234,0.037 -0.463,0.125 -0.687,0.266 -0.219,0.141 -0.401,0.359 -0.547,0.656 -0.448,0.948 -0.909,1.959 -1.383,3.031 -0.474,1.068 -1,2.224 -1.578,3.469 -0.323,0.698 -0.636,1.255 -0.938,1.672 -0.302,0.417 -0.586,0.737 -0.851,0.961 -0.25,0.208 -0.498,0.359 -0.742,0.453 -0.245,0.094 -0.493,0.141 -0.743,0.141 -0.494,0 -0.895,-0.138 -1.203,-0.414 -0.302,-0.276 -0.453,-0.586 -0.453,-0.93 0,-0.146 0.016,-0.281 0.047,-0.406 0.036,-0.125 0.109,-0.255 0.219,-0.391 0.083,-0.114 0.211,-0.213 0.383,-0.297 0.177,-0.078 0.375,-0.117 0.593,-0.117 0.292,0 0.571,0.102 0.836,0.305 0.266,0.203 0.542,0.484 0.828,0.843 0.172,-0.171 0.383,-0.429 0.633,-0.773 0.255,-0.338 0.443,-0.687 0.563,-1.047 -0.62,-1.302 -1.17,-2.43 -1.649,-3.383 -0.479,-0.958 -1.015,-2.026 -1.609,-3.203 -0.13,-0.25 -0.305,-0.442 -0.524,-0.578 -0.218,-0.14 -0.45,-0.226 -0.695,-0.258 v -0.57 h 4.781 v 0.57 c -0.177,0.006 -0.382,0.045 -0.617,0.118 -0.229,0.072 -0.344,0.166 -0.344,0.281 0,0.041 0.008,0.088 0.024,0.14 0.015,0.047 0.044,0.118 0.086,0.211 0.177,0.365 0.427,0.873 0.75,1.524 0.328,0.646 0.708,1.403 1.14,2.273 0.323,-0.739 0.597,-1.375 0.821,-1.906 0.229,-0.537 0.45,-1.063 0.664,-1.578 0.052,-0.13 0.081,-0.232 0.086,-0.305 0.01,-0.078 0.015,-0.13 0.015,-0.156 0,-0.094 -0.047,-0.175 -0.14,-0.242 -0.089,-0.073 -0.196,-0.136 -0.321,-0.188 -0.13,-0.052 -0.255,-0.091 -0.375,-0.117 -0.119,-0.026 -0.218,-0.044 -0.296,-0.055 v -0.57 h 3.226 z"
       fill="#000000"
       id="path14" />
    <path
       d="m 199.797,164.102 -5.399,15.21 h -1.015 l 5.383,-15.21 z m 10.242,6.858 v 1.152 h -1.168 c -0.544,0 -0.997,0.059 -1.36,0.176 -0.352,0.107 -0.618,0.267 -0.8,0.48 -0.17,0.213 -0.256,0.485 -0.256,0.816 0,0.352 0.102,0.635 0.304,0.848 0.203,0.203 0.475,0.352 0.816,0.448 0.342,0.085 0.726,0.128 1.152,0.128 0.598,0 1.12,-0.069 1.568,-0.208 0.459,-0.139 0.864,-0.293 1.216,-0.464 v 1.232 c -0.213,0.117 -0.458,0.224 -0.736,0.32 -0.277,0.085 -0.592,0.149 -0.944,0.192 -0.352,0.053 -0.746,0.08 -1.184,0.08 -0.81,0 -1.482,-0.107 -2.016,-0.32 -0.533,-0.224 -0.933,-0.523 -1.2,-0.896 -0.256,-0.384 -0.384,-0.811 -0.384,-1.28 0,-0.427 0.086,-0.773 0.256,-1.04 0.182,-0.277 0.416,-0.496 0.704,-0.656 0.288,-0.171 0.603,-0.304 0.944,-0.4 v -0.08 c -0.48,-0.149 -0.869,-0.379 -1.168,-0.688 -0.288,-0.32 -0.432,-0.741 -0.432,-1.264 0,-0.48 0.139,-0.891 0.416,-1.232 0.288,-0.341 0.678,-0.597 1.168,-0.768 0.502,-0.181 1.072,-0.272 1.712,-0.272 0.416,0 0.79,0.027 1.12,0.08 0.331,0.043 0.64,0.112 0.928,0.208 0.288,0.085 0.571,0.192 0.848,0.32 l -0.528,1.12 c -0.352,-0.16 -0.714,-0.293 -1.088,-0.4 -0.362,-0.107 -0.794,-0.16 -1.296,-0.16 -0.64,0 -1.125,0.101 -1.456,0.304 -0.32,0.203 -0.48,0.507 -0.48,0.912 0,0.469 0.219,0.805 0.656,1.008 0.448,0.203 1.046,0.304 1.792,0.304 z m 11.125,5.04 h -3.773 v -0.516 c 0.119,-0.01 0.25,-0.02 0.39,-0.031 0.146,-0.01 0.266,-0.031 0.36,-0.062 0.145,-0.047 0.252,-0.128 0.32,-0.243 0.073,-0.119 0.109,-0.273 0.109,-0.46 v -3.961 c 0,-0.547 -0.13,-0.969 -0.39,-1.266 -0.256,-0.297 -0.568,-0.445 -0.938,-0.445 -0.276,0 -0.528,0.044 -0.758,0.132 -0.229,0.084 -0.432,0.188 -0.609,0.313 -0.172,0.12 -0.31,0.25 -0.414,0.391 -0.099,0.135 -0.172,0.244 -0.219,0.328 v 4.429 c 0,0.177 0.037,0.323 0.11,0.438 0.072,0.114 0.182,0.203 0.328,0.265 0.109,0.053 0.226,0.092 0.351,0.118 0.13,0.026 0.263,0.044 0.399,0.054 V 176 h -3.774 v -0.516 c 0.12,-0.01 0.242,-0.02 0.367,-0.031 0.131,-0.01 0.243,-0.031 0.336,-0.062 0.146,-0.047 0.253,-0.128 0.321,-0.243 0.073,-0.119 0.109,-0.273 0.109,-0.46 v -4.758 c 0,-0.177 -0.039,-0.339 -0.117,-0.485 -0.073,-0.151 -0.177,-0.273 -0.313,-0.367 -0.099,-0.062 -0.216,-0.107 -0.351,-0.133 -0.136,-0.031 -0.281,-0.052 -0.438,-0.062 v -0.508 l 2.563,-0.172 0.109,0.109 v 1.086 h 0.039 c 0.125,-0.125 0.281,-0.273 0.469,-0.445 0.188,-0.177 0.365,-0.32 0.531,-0.43 0.193,-0.125 0.422,-0.229 0.688,-0.312 0.265,-0.083 0.565,-0.125 0.898,-0.125 0.74,0 1.287,0.232 1.641,0.695 0.359,0.459 0.539,1.071 0.539,1.836 v 4.008 c 0,0.182 0.031,0.331 0.094,0.445 0.062,0.11 0.169,0.196 0.32,0.258 0.125,0.052 0.232,0.089 0.32,0.11 0.094,0.02 0.222,0.036 0.383,0.046 z m 2.303,-12.16 v 4.224 h -1.28 v -4.224 z m 9.642,12.019 -2.687,0.172 -0.117,-0.109 v -0.719 l -0.063,-0.015 c -0.271,0.302 -0.607,0.549 -1.008,0.742 -0.395,0.192 -0.804,0.289 -1.226,0.289 -0.438,0 -0.862,-0.097 -1.274,-0.289 -0.406,-0.198 -0.76,-0.474 -1.062,-0.828 -0.307,-0.36 -0.552,-0.792 -0.734,-1.297 -0.178,-0.506 -0.266,-1.063 -0.266,-1.672 0,-0.557 0.096,-1.086 0.289,-1.586 0.193,-0.5 0.458,-0.938 0.797,-1.313 0.318,-0.349 0.706,-0.627 1.164,-0.836 0.463,-0.208 0.935,-0.312 1.414,-0.312 0.359,0 0.711,0.047 1.055,0.141 0.349,0.088 0.648,0.203 0.898,0.343 v -2.679 c 0,-0.219 -0.036,-0.417 -0.109,-0.594 -0.073,-0.182 -0.175,-0.32 -0.305,-0.414 -0.146,-0.099 -0.344,-0.169 -0.594,-0.211 -0.245,-0.047 -0.51,-0.081 -0.797,-0.102 v -0.484 l 3.149,-0.18 0.117,0.117 v 10.391 c 0,0.182 0.034,0.339 0.102,0.469 0.072,0.125 0.177,0.232 0.312,0.32 0.099,0.063 0.242,0.102 0.43,0.117 0.187,0.016 0.359,0.026 0.515,0.032 z m -2.82,-1.351 V 170 c -0.042,-0.135 -0.109,-0.281 -0.203,-0.438 -0.094,-0.156 -0.211,-0.299 -0.352,-0.429 -0.151,-0.13 -0.328,-0.237 -0.531,-0.321 -0.203,-0.088 -0.44,-0.132 -0.711,-0.132 -0.312,0 -0.601,0.08 -0.867,0.242 -0.26,0.161 -0.492,0.393 -0.695,0.695 -0.193,0.292 -0.347,0.664 -0.461,1.117 -0.11,0.448 -0.164,0.946 -0.164,1.493 0,0.437 0.041,0.835 0.125,1.195 0.083,0.354 0.224,0.685 0.422,0.992 0.182,0.292 0.414,0.526 0.695,0.703 0.286,0.177 0.625,0.266 1.015,0.266 0.417,0 0.761,-0.091 1.032,-0.274 0.276,-0.182 0.508,-0.382 0.695,-0.601 z m 10,-7.084 v 1.024 l -3.504,3.904 c 0.725,0.043 1.387,0.208 1.984,0.496 0.597,0.277 1.072,0.677 1.424,1.2 0.352,0.512 0.528,1.157 0.528,1.936 0,0.757 -0.176,1.424 -0.528,2 -0.341,0.587 -0.832,1.04 -1.472,1.36 -0.629,0.331 -1.376,0.496 -2.24,0.496 -0.416,0 -0.805,-0.021 -1.168,-0.064 -0.363,-0.043 -0.693,-0.107 -0.992,-0.192 -0.299,-0.085 -0.565,-0.187 -0.8,-0.304 V 178 c 0.352,0.171 0.789,0.325 1.312,0.464 0.523,0.139 1.093,0.208 1.712,0.208 0.555,0 1.035,-0.107 1.44,-0.32 0.416,-0.213 0.741,-0.523 0.976,-0.928 0.235,-0.395 0.352,-0.864 0.352,-1.408 0,-0.597 -0.139,-1.083 -0.416,-1.456 -0.267,-0.373 -0.64,-0.645 -1.12,-0.816 -0.48,-0.181 -1.045,-0.272 -1.696,-0.272 h -0.944 v -0.976 l 3.504,-3.888 h -4.896 v -1.184 z m 9.047,4.646 c 0,0.542 -0.086,1.076 -0.258,1.602 -0.172,0.521 -0.417,0.963 -0.734,1.328 -0.36,0.417 -0.776,0.727 -1.25,0.93 -0.474,0.203 -1.005,0.304 -1.594,0.304 -0.49,0 -0.956,-0.091 -1.398,-0.273 -0.443,-0.188 -0.836,-0.458 -1.18,-0.813 -0.339,-0.349 -0.61,-0.773 -0.813,-1.273 -0.198,-0.505 -0.297,-1.07 -0.297,-1.695 0,-1.203 0.349,-2.188 1.047,-2.953 0.703,-0.766 1.623,-1.149 2.758,-1.149 1.078,0 1.966,0.365 2.664,1.094 0.703,0.724 1.055,1.69 1.055,2.898 z m -1.617,0.016 c 0,-0.391 -0.039,-0.802 -0.117,-1.234 -0.079,-0.438 -0.196,-0.808 -0.352,-1.11 -0.167,-0.323 -0.385,-0.581 -0.656,-0.773 -0.271,-0.198 -0.602,-0.297 -0.992,-0.297 -0.401,0 -0.745,0.099 -1.032,0.297 -0.281,0.198 -0.51,0.469 -0.687,0.812 -0.167,0.318 -0.284,0.68 -0.352,1.086 -0.067,0.406 -0.101,0.8 -0.101,1.18 0,0.5 0.039,0.963 0.117,1.391 0.083,0.421 0.213,0.799 0.391,1.132 0.177,0.334 0.398,0.597 0.664,0.789 0.27,0.188 0.604,0.282 1,0.282 0.651,0 1.166,-0.315 1.546,-0.946 0.381,-0.63 0.571,-1.5 0.571,-2.609 z m 6.988,4.074 c -0.758,0 -1.435,-0.16 -2.032,-0.48 -0.587,-0.331 -1.051,-0.795 -1.392,-1.392 -0.342,-0.608 -0.512,-1.328 -0.512,-2.16 0,-0.533 0.064,-1.013 0.192,-1.44 0.128,-0.427 0.314,-0.811 0.56,-1.152 0.256,-0.352 0.565,-0.667 0.928,-0.944 h -2.08 v -1.168 h 3.776 v 1.104 c -0.512,0.235 -0.96,0.667 -1.344,1.296 -0.384,0.619 -0.576,1.387 -0.576,2.304 0,0.843 0.197,1.531 0.592,2.064 0.405,0.533 1.045,0.8 1.92,0.8 0.576,0 1.05,-0.117 1.424,-0.352 0.373,-0.245 0.645,-0.587 0.816,-1.024 0.181,-0.437 0.272,-0.939 0.272,-1.504 0,-0.544 -0.091,-1.061 -0.272,-1.552 -0.182,-0.491 -0.422,-0.917 -0.72,-1.28 -0.288,-0.363 -0.603,-0.613 -0.944,-0.752 v -1.104 h 3.776 v 1.168 h -2.08 c 0.373,0.299 0.682,0.629 0.928,0.992 0.256,0.363 0.448,0.757 0.576,1.184 0.128,0.416 0.192,0.864 0.192,1.344 0,0.843 -0.166,1.568 -0.496,2.176 -0.32,0.597 -0.779,1.061 -1.376,1.392 -0.598,0.32 -1.307,0.48 -2.128,0.48 z m 15.527,-12.058 -5.398,15.21 h -1.016 l 5.383,-15.21 z m 4.055,11.625 c 0,0.375 -0.086,0.729 -0.258,1.062 -0.166,0.333 -0.359,0.62 -0.578,0.859 -0.224,0.25 -0.461,0.472 -0.711,0.664 -0.25,0.193 -0.479,0.344 -0.687,0.454 l -0.36,-0.524 c 0.25,-0.156 0.474,-0.312 0.672,-0.469 0.198,-0.156 0.36,-0.312 0.485,-0.468 0.156,-0.183 0.289,-0.381 0.398,-0.594 0.109,-0.214 0.18,-0.456 0.211,-0.727 h -0.399 c -0.348,0 -0.622,-0.091 -0.82,-0.273 -0.193,-0.182 -0.289,-0.427 -0.289,-0.734 0,-0.219 0.089,-0.43 0.266,-0.633 0.177,-0.209 0.419,-0.313 0.726,-0.313 0.448,0 0.784,0.151 1.008,0.453 0.224,0.297 0.336,0.711 0.336,1.243 z m 11.617,-11.625 -5.398,15.21 h -1.016 l 5.383,-15.21 z m 9.107,3.322 v 0.832 l -1.28,0.288 v 6.352 l 1.28,0.272 V 176 h -3.968 v -0.832 l 1.28,-0.272 v -6.352 l -1.28,-0.288 v -0.832 z m 9.651,8.576 h -3.773 v -0.516 c 0.119,-0.01 0.25,-0.02 0.39,-0.031 0.146,-0.01 0.266,-0.031 0.36,-0.062 0.145,-0.047 0.252,-0.128 0.32,-0.243 0.073,-0.119 0.109,-0.273 0.109,-0.46 v -3.961 c 0,-0.547 -0.13,-0.969 -0.39,-1.266 -0.256,-0.297 -0.568,-0.445 -0.938,-0.445 -0.276,0 -0.528,0.044 -0.758,0.132 -0.229,0.084 -0.432,0.188 -0.609,0.313 -0.172,0.12 -0.31,0.25 -0.414,0.391 -0.099,0.135 -0.172,0.244 -0.219,0.328 v 4.429 c 0,0.177 0.037,0.323 0.11,0.438 0.072,0.114 0.182,0.203 0.328,0.265 0.109,0.053 0.226,0.092 0.351,0.118 0.13,0.026 0.263,0.044 0.399,0.054 V 176 h -3.774 v -0.516 c 0.12,-0.01 0.242,-0.02 0.367,-0.031 0.131,-0.01 0.243,-0.031 0.336,-0.062 0.146,-0.047 0.253,-0.128 0.321,-0.243 0.073,-0.119 0.109,-0.273 0.109,-0.46 v -4.758 c 0,-0.177 -0.039,-0.339 -0.117,-0.485 -0.073,-0.151 -0.177,-0.273 -0.313,-0.367 -0.099,-0.062 -0.216,-0.107 -0.351,-0.133 -0.136,-0.031 -0.281,-0.052 -0.438,-0.062 v -0.508 l 2.563,-0.172 0.109,0.109 v 1.086 h 0.039 c 0.125,-0.125 0.281,-0.273 0.469,-0.445 0.188,-0.177 0.365,-0.32 0.531,-0.43 0.193,-0.125 0.422,-0.229 0.688,-0.312 0.265,-0.083 0.565,-0.125 0.898,-0.125 0.74,0 1.287,0.232 1.641,0.695 0.359,0.459 0.539,1.071 0.539,1.836 v 4.008 c 0,0.182 0.031,0.331 0.094,0.445 0.062,0.11 0.169,0.196 0.32,0.258 0.125,0.052 0.232,0.089 0.32,0.11 0.094,0.02 0.222,0.036 0.383,0.046 z m 2.303,-12.16 v 4.224 h -1.28 v -4.224 z m 9.642,12.019 -2.687,0.172 -0.117,-0.109 v -0.719 l -0.063,-0.015 c -0.271,0.302 -0.607,0.549 -1.008,0.742 -0.395,0.192 -0.804,0.289 -1.226,0.289 -0.438,0 -0.862,-0.097 -1.274,-0.289 -0.406,-0.198 -0.76,-0.474 -1.062,-0.828 -0.307,-0.36 -0.552,-0.792 -0.734,-1.297 -0.178,-0.506 -0.266,-1.063 -0.266,-1.672 0,-0.557 0.096,-1.086 0.289,-1.586 0.193,-0.5 0.458,-0.938 0.797,-1.313 0.318,-0.349 0.706,-0.627 1.164,-0.836 0.463,-0.208 0.935,-0.312 1.414,-0.312 0.359,0 0.711,0.047 1.055,0.141 0.349,0.088 0.648,0.203 0.898,0.343 v -2.679 c 0,-0.219 -0.036,-0.417 -0.109,-0.594 -0.073,-0.182 -0.175,-0.32 -0.305,-0.414 -0.146,-0.099 -0.344,-0.169 -0.594,-0.211 -0.245,-0.047 -0.51,-0.081 -0.797,-0.102 v -0.484 l 3.149,-0.18 0.117,0.117 v 10.391 c 0,0.182 0.034,0.339 0.102,0.469 0.072,0.125 0.177,0.232 0.312,0.32 0.099,0.063 0.242,0.102 0.43,0.117 0.187,0.016 0.359,0.026 0.515,0.032 z m -2.82,-1.351 V 170 c -0.042,-0.135 -0.109,-0.281 -0.203,-0.438 -0.094,-0.156 -0.211,-0.299 -0.352,-0.429 -0.151,-0.13 -0.328,-0.237 -0.531,-0.321 -0.203,-0.088 -0.44,-0.132 -0.711,-0.132 -0.312,0 -0.601,0.08 -0.867,0.242 -0.26,0.161 -0.492,0.393 -0.695,0.695 -0.193,0.292 -0.347,0.664 -0.461,1.117 -0.11,0.448 -0.164,0.946 -0.164,1.493 0,0.437 0.041,0.835 0.125,1.195 0.083,0.354 0.224,0.685 0.422,0.992 0.182,0.292 0.414,0.526 0.695,0.703 0.286,0.177 0.625,0.266 1.015,0.266 0.417,0 0.761,-0.091 1.032,-0.274 0.276,-0.182 0.508,-0.382 0.695,-0.601 z m 10,-7.084 v 1.024 l -3.504,3.904 c 0.725,0.043 1.387,0.208 1.984,0.496 0.597,0.277 1.072,0.677 1.424,1.2 0.352,0.512 0.528,1.157 0.528,1.936 0,0.757 -0.176,1.424 -0.528,2 -0.341,0.587 -0.832,1.04 -1.472,1.36 -0.629,0.331 -1.376,0.496 -2.24,0.496 -0.416,0 -0.805,-0.021 -1.168,-0.064 -0.363,-0.043 -0.693,-0.107 -0.992,-0.192 -0.299,-0.085 -0.565,-0.187 -0.8,-0.304 V 178 c 0.352,0.171 0.789,0.325 1.312,0.464 0.523,0.139 1.093,0.208 1.712,0.208 0.555,0 1.035,-0.107 1.44,-0.32 0.416,-0.213 0.741,-0.523 0.976,-0.928 0.235,-0.395 0.352,-0.864 0.352,-1.408 0,-0.597 -0.139,-1.083 -0.416,-1.456 -0.267,-0.373 -0.64,-0.645 -1.12,-0.816 -0.48,-0.181 -1.045,-0.272 -1.696,-0.272 h -0.944 v -0.976 l 3.504,-3.888 h -4.896 v -1.184 z m 9.047,4.646 c 0,0.542 -0.086,1.076 -0.258,1.602 -0.172,0.521 -0.417,0.963 -0.734,1.328 -0.36,0.417 -0.776,0.727 -1.25,0.93 -0.474,0.203 -1.005,0.304 -1.594,0.304 -0.49,0 -0.956,-0.091 -1.398,-0.273 -0.443,-0.188 -0.836,-0.458 -1.18,-0.813 -0.339,-0.349 -0.61,-0.773 -0.813,-1.273 -0.198,-0.505 -0.297,-1.07 -0.297,-1.695 0,-1.203 0.349,-2.188 1.047,-2.953 0.703,-0.766 1.623,-1.149 2.758,-1.149 1.078,0 1.966,0.365 2.664,1.094 0.703,0.724 1.055,1.69 1.055,2.898 z m -1.617,0.016 c 0,-0.391 -0.039,-0.802 -0.117,-1.234 -0.079,-0.438 -0.196,-0.808 -0.352,-1.11 -0.167,-0.323 -0.385,-0.581 -0.656,-0.773 -0.271,-0.198 -0.602,-0.297 -0.992,-0.297 -0.401,0 -0.745,0.099 -1.032,0.297 -0.281,0.198 -0.51,0.469 -0.687,0.812 -0.167,0.318 -0.284,0.68 -0.352,1.086 -0.067,0.406 -0.101,0.8 -0.101,1.18 0,0.5 0.039,0.963 0.117,1.391 0.083,0.421 0.213,0.799 0.391,1.132 0.177,0.334 0.398,0.597 0.664,0.789 0.27,0.188 0.604,0.282 1,0.282 0.651,0 1.166,-0.315 1.546,-0.946 0.381,-0.63 0.571,-1.5 0.571,-2.609 z m 6.988,4.074 c -0.758,0 -1.435,-0.16 -2.032,-0.48 -0.587,-0.331 -1.051,-0.795 -1.392,-1.392 -0.342,-0.608 -0.512,-1.328 -0.512,-2.16 0,-0.533 0.064,-1.013 0.192,-1.44 0.128,-0.427 0.314,-0.811 0.56,-1.152 0.256,-0.352 0.565,-0.667 0.928,-0.944 h -2.08 v -1.168 h 3.776 v 1.104 c -0.512,0.235 -0.96,0.667 -1.344,1.296 -0.384,0.619 -0.576,1.387 -0.576,2.304 0,0.843 0.197,1.531 0.592,2.064 0.405,0.533 1.045,0.8 1.92,0.8 0.576,0 1.05,-0.117 1.424,-0.352 0.373,-0.245 0.645,-0.587 0.816,-1.024 0.181,-0.437 0.272,-0.939 0.272,-1.504 0,-0.544 -0.091,-1.061 -0.272,-1.552 -0.182,-0.491 -0.422,-0.917 -0.72,-1.28 -0.288,-0.363 -0.603,-0.613 -0.944,-0.752 v -1.104 h 3.776 v 1.168 h -2.08 c 0.373,0.299 0.682,0.629 0.928,0.992 0.256,0.363 0.448,0.757 0.576,1.184 0.128,0.416 0.192,0.864 0.192,1.344 0,0.843 -0.166,1.568 -0.496,2.176 -0.32,0.597 -0.779,1.061 -1.376,1.392 -0.598,0.32 -1.307,0.48 -2.128,0.48 z m 15.527,-12.058 -5.398,15.21 h -1.016 l 5.383,-15.21 z"
       fill="#000000"
       id="path15" />
  </g>
  <style
     id="style1">@media (prefers-color-scheme: dark) { :root { filter: invert(100%); } }</style>
</svg>
