<svg width="662" height="455" viewBox="0 0 662 455" fill="none" xmlns="http://www.w3.org/2000/svg">
<rect x="140" y="208" width="70" height="12" rx="6" fill="#E7E5E4"/>
<rect x="156" y="232" width="384" height="12" rx="6" fill="#E7E5E4"/>
<rect x="172" y="256" width="82" height="12" rx="6" fill="#E7E5E4"/>
<rect x="156" y="280" width="349" height="12" rx="6" fill="#E7E5E4"/>
<rect x="156" y="304" width="370" height="12" rx="6" fill="#E7E5E4"/>
<rect x="156" y="328" width="312" height="12" rx="6" fill="#E7E5E4"/>
<rect x="140" y="364" width="373" height="12" rx="6" fill="#E7E5E4"/>
<rect x="140" y="384" width="289" height="12" rx="6" fill="#E7E5E4"/>
<rect x="140" y="404" width="76" height="12" rx="6" fill="#E7E5E4"/>
<rect x="88" y="92" width="169" height="36" rx="18" fill="#D6D3D1"/>
<path d="M113.461 112.703L112.469 116H103.805L103.922 115.484C104.052 115.474 104.237 115.456 104.477 115.43C104.716 115.404 104.891 115.37 105 115.328C105.188 115.255 105.328 115.151 105.422 115.016C105.521 114.875 105.589 114.714 105.625 114.531L107.477 106.516C107.487 106.469 107.495 106.422 107.5 106.375C107.51 106.323 107.516 106.273 107.516 106.227C107.516 106.122 107.492 106.029 107.445 105.945C107.404 105.857 107.326 105.781 107.211 105.719C107.107 105.656 106.953 105.596 106.75 105.539C106.552 105.482 106.383 105.445 106.242 105.43L106.359 104.914H111.039L110.922 105.43C110.802 105.435 110.628 105.458 110.398 105.5C110.174 105.536 109.977 105.581 109.805 105.633C109.602 105.701 109.453 105.81 109.359 105.961C109.266 106.112 109.198 106.271 109.156 106.438L107.422 113.961C107.38 114.143 107.346 114.305 107.32 114.445C107.299 114.581 107.289 114.693 107.289 114.781C107.289 115.068 107.404 115.247 107.633 115.32C107.867 115.393 108.292 115.43 108.906 115.43C109.25 115.43 109.641 115.401 110.078 115.344C110.521 115.281 110.828 115.172 111 115.016C111.266 114.781 111.599 114.419 112 113.93C112.406 113.435 112.708 113.026 112.906 112.703H113.461ZM119.094 114.969H119.039C118.924 115.062 118.786 115.182 118.625 115.328C118.469 115.469 118.284 115.604 118.07 115.734C117.867 115.865 117.646 115.977 117.406 116.07C117.167 116.169 116.906 116.219 116.625 116.219C115.87 116.219 115.276 115.948 114.844 115.406C114.417 114.865 114.203 114.125 114.203 113.188C114.203 112.542 114.323 111.914 114.562 111.305C114.802 110.695 115.133 110.148 115.555 109.664C115.956 109.201 116.432 108.828 116.984 108.547C117.536 108.26 118.104 108.117 118.688 108.117C119.057 108.117 119.409 108.167 119.742 108.266C120.081 108.365 120.346 108.477 120.539 108.602L121.969 108.234L122.062 108.352L120.875 113.391C120.833 113.552 120.789 113.75 120.742 113.984C120.701 114.214 120.68 114.383 120.68 114.492C120.68 114.789 120.742 114.99 120.867 115.094C120.992 115.198 121.203 115.25 121.5 115.25C121.599 115.25 121.74 115.234 121.922 115.203C122.104 115.172 122.245 115.138 122.344 115.102L122.227 115.602C121.758 115.789 121.409 115.924 121.18 116.008C120.951 116.091 120.672 116.133 120.344 116.133C119.969 116.133 119.672 116.023 119.453 115.805C119.234 115.586 119.115 115.307 119.094 114.969ZM120.211 110.031C120.211 109.859 120.193 109.695 120.156 109.539C120.12 109.383 120.044 109.237 119.93 109.102C119.826 108.971 119.682 108.867 119.5 108.789C119.318 108.711 119.089 108.672 118.812 108.672C118.432 108.672 118.062 108.797 117.703 109.047C117.344 109.297 117.021 109.633 116.734 110.055C116.464 110.451 116.242 110.93 116.07 111.492C115.898 112.055 115.812 112.625 115.812 113.203C115.812 113.521 115.831 113.802 115.867 114.047C115.904 114.292 115.974 114.516 116.078 114.719C116.177 114.917 116.32 115.07 116.508 115.18C116.695 115.289 116.932 115.344 117.219 115.344C117.51 115.344 117.815 115.263 118.133 115.102C118.456 114.935 118.818 114.646 119.219 114.234L120.211 110.031ZM131.805 115.094L131.688 115.594C131.219 115.781 130.854 115.917 130.594 116C130.333 116.089 130.07 116.133 129.805 116.133C129.388 116.133 129.076 116.026 128.867 115.812C128.659 115.594 128.555 115.326 128.555 115.008C128.555 114.893 128.565 114.768 128.586 114.633C128.607 114.492 128.641 114.328 128.688 114.141L129.453 111.227C129.51 111.003 129.555 110.799 129.586 110.617C129.622 110.435 129.641 110.289 129.641 110.18C129.641 109.831 129.557 109.555 129.391 109.352C129.224 109.148 128.977 109.047 128.648 109.047C128.331 109.047 127.974 109.151 127.578 109.359C127.182 109.568 126.81 109.87 126.461 110.266L125.141 116H123.688L124.852 110.938C124.878 110.812 124.914 110.633 124.961 110.398C125.013 110.159 125.039 109.966 125.039 109.82C125.039 109.529 124.99 109.333 124.891 109.234C124.792 109.135 124.594 109.086 124.297 109.086C124.182 109.086 124.036 109.107 123.859 109.148C123.682 109.185 123.544 109.216 123.445 109.242L123.562 108.742C123.969 108.56 124.328 108.424 124.641 108.336C124.953 108.247 125.221 108.203 125.445 108.203C125.857 108.203 126.151 108.315 126.328 108.539C126.505 108.763 126.599 109.073 126.609 109.469H126.656C127.229 109.01 127.724 108.672 128.141 108.453C128.557 108.229 129.031 108.117 129.562 108.117C130.062 108.117 130.453 108.263 130.734 108.555C131.016 108.841 131.156 109.219 131.156 109.688C131.156 109.781 131.141 109.948 131.109 110.188C131.083 110.427 131.039 110.664 130.977 110.898L130.32 113.406C130.273 113.573 130.227 113.766 130.18 113.984C130.138 114.198 130.117 114.365 130.117 114.484C130.117 114.781 130.182 114.984 130.312 115.094C130.443 115.198 130.656 115.25 130.953 115.25C131.052 115.25 131.193 115.234 131.375 115.203C131.562 115.167 131.706 115.13 131.805 115.094ZM137.805 114.945L137.75 114.93C137.646 115.013 137.497 115.13 137.305 115.281C137.117 115.432 136.919 115.565 136.711 115.68C136.471 115.82 136.229 115.935 135.984 116.023C135.74 116.112 135.469 116.156 135.172 116.156C134.417 116.156 133.833 115.891 133.422 115.359C133.016 114.823 132.812 114.086 132.812 113.148C132.812 112.503 132.93 111.875 133.164 111.266C133.404 110.656 133.729 110.115 134.141 109.641C134.536 109.182 135.01 108.815 135.562 108.539C136.115 108.258 136.693 108.117 137.297 108.117C137.672 108.117 138.026 108.167 138.359 108.266C138.693 108.359 138.961 108.471 139.164 108.602L140.594 108.234L140.688 108.352L139.375 114.508C139.177 115.44 138.922 116.227 138.609 116.867C138.302 117.513 137.945 118.023 137.539 118.398C137.122 118.784 136.661 119.057 136.156 119.219C135.656 119.385 135.089 119.469 134.453 119.469C134.021 119.469 133.667 119.435 133.391 119.367C133.12 119.299 132.906 119.211 132.75 119.102C132.594 118.992 132.487 118.867 132.43 118.727C132.378 118.591 132.352 118.461 132.352 118.336C132.352 118.102 132.422 117.904 132.562 117.742C132.703 117.586 132.896 117.508 133.141 117.508C133.333 117.508 133.497 117.562 133.633 117.672C133.768 117.786 133.878 117.909 133.961 118.039C134.049 118.174 134.135 118.336 134.219 118.523C134.302 118.711 134.365 118.852 134.406 118.945H134.641C134.927 118.945 135.234 118.88 135.562 118.75C135.891 118.62 136.19 118.409 136.461 118.117C136.737 117.815 136.995 117.409 137.234 116.898C137.474 116.393 137.664 115.742 137.805 114.945ZM138.852 109.953C138.852 109.807 138.828 109.659 138.781 109.508C138.74 109.352 138.659 109.208 138.539 109.078C138.424 108.953 138.279 108.854 138.102 108.781C137.924 108.708 137.698 108.672 137.422 108.672C137.021 108.672 136.641 108.794 136.281 109.039C135.927 109.279 135.607 109.609 135.32 110.031C135.055 110.427 134.839 110.906 134.672 111.469C134.505 112.031 134.422 112.596 134.422 113.164C134.422 113.471 134.443 113.755 134.484 114.016C134.531 114.271 134.609 114.495 134.719 114.688C134.828 114.88 134.971 115.031 135.148 115.141C135.331 115.245 135.565 115.297 135.852 115.297C136.216 115.297 136.578 115.193 136.938 114.984C137.297 114.771 137.638 114.5 137.961 114.172L138.852 109.953ZM146.961 114.906H146.914C146.674 115.099 146.445 115.276 146.227 115.438C146.008 115.599 145.792 115.734 145.578 115.844C145.328 115.969 145.102 116.057 144.898 116.109C144.695 116.167 144.43 116.195 144.102 116.195C143.602 116.195 143.214 116.052 142.938 115.766C142.661 115.474 142.523 115.094 142.523 114.625C142.523 114.5 142.534 114.352 142.555 114.18C142.576 114.008 142.625 113.753 142.703 113.414L143.312 110.938C143.365 110.708 143.406 110.505 143.438 110.328C143.474 110.151 143.492 109.982 143.492 109.82C143.492 109.529 143.443 109.336 143.344 109.242C143.25 109.143 143.055 109.094 142.758 109.094C142.643 109.094 142.497 109.115 142.32 109.156C142.143 109.198 142.005 109.232 141.906 109.258L142.023 108.758C142.43 108.576 142.786 108.438 143.094 108.344C143.406 108.25 143.656 108.203 143.844 108.203C144.26 108.203 144.565 108.302 144.758 108.5C144.956 108.693 145.055 108.969 145.055 109.328C145.055 109.422 145.044 109.549 145.023 109.711C145.003 109.872 144.971 110.034 144.93 110.195L144.234 113.086C144.182 113.305 144.138 113.51 144.102 113.703C144.07 113.891 144.055 114.034 144.055 114.133C144.055 114.482 144.13 114.758 144.281 114.961C144.432 115.164 144.672 115.266 145 115.266C145.333 115.266 145.674 115.18 146.023 115.008C146.378 114.831 146.732 114.565 147.086 114.211L148.453 108.328L149.812 108.234L149.906 108.352L148.742 113.383C148.69 113.596 148.643 113.812 148.602 114.031C148.56 114.245 148.539 114.396 148.539 114.484C148.539 114.781 148.602 114.984 148.727 115.094C148.857 115.198 149.07 115.25 149.367 115.25C149.466 115.25 149.607 115.234 149.789 115.203C149.971 115.172 150.112 115.138 150.211 115.102L150.094 115.602C149.661 115.779 149.299 115.911 149.008 116C148.721 116.089 148.456 116.133 148.211 116.133C147.789 116.133 147.474 116.01 147.266 115.766C147.062 115.521 146.961 115.234 146.961 114.906ZM156.078 114.969H156.023C155.909 115.062 155.771 115.182 155.609 115.328C155.453 115.469 155.268 115.604 155.055 115.734C154.852 115.865 154.63 115.977 154.391 116.07C154.151 116.169 153.891 116.219 153.609 116.219C152.854 116.219 152.26 115.948 151.828 115.406C151.401 114.865 151.188 114.125 151.188 113.188C151.188 112.542 151.307 111.914 151.547 111.305C151.786 110.695 152.117 110.148 152.539 109.664C152.94 109.201 153.417 108.828 153.969 108.547C154.521 108.26 155.089 108.117 155.672 108.117C156.042 108.117 156.393 108.167 156.727 108.266C157.065 108.365 157.331 108.477 157.523 108.602L158.953 108.234L159.047 108.352L157.859 113.391C157.818 113.552 157.773 113.75 157.727 113.984C157.685 114.214 157.664 114.383 157.664 114.492C157.664 114.789 157.727 114.99 157.852 115.094C157.977 115.198 158.188 115.25 158.484 115.25C158.583 115.25 158.724 115.234 158.906 115.203C159.089 115.172 159.229 115.138 159.328 115.102L159.211 115.602C158.742 115.789 158.393 115.924 158.164 116.008C157.935 116.091 157.656 116.133 157.328 116.133C156.953 116.133 156.656 116.023 156.438 115.805C156.219 115.586 156.099 115.307 156.078 114.969ZM157.195 110.031C157.195 109.859 157.177 109.695 157.141 109.539C157.104 109.383 157.029 109.237 156.914 109.102C156.81 108.971 156.667 108.867 156.484 108.789C156.302 108.711 156.073 108.672 155.797 108.672C155.417 108.672 155.047 108.797 154.688 109.047C154.328 109.297 154.005 109.633 153.719 110.055C153.448 110.451 153.227 110.93 153.055 111.492C152.883 112.055 152.797 112.625 152.797 113.203C152.797 113.521 152.815 113.802 152.852 114.047C152.888 114.292 152.958 114.516 153.062 114.719C153.161 114.917 153.305 115.07 153.492 115.18C153.68 115.289 153.917 115.344 154.203 115.344C154.495 115.344 154.799 115.263 155.117 115.102C155.44 114.935 155.802 114.646 156.203 114.234L157.195 110.031ZM165.352 114.945L165.297 114.93C165.193 115.013 165.044 115.13 164.852 115.281C164.664 115.432 164.466 115.565 164.258 115.68C164.018 115.82 163.776 115.935 163.531 116.023C163.286 116.112 163.016 116.156 162.719 116.156C161.964 116.156 161.38 115.891 160.969 115.359C160.562 114.823 160.359 114.086 160.359 113.148C160.359 112.503 160.477 111.875 160.711 111.266C160.951 110.656 161.276 110.115 161.688 109.641C162.083 109.182 162.557 108.815 163.109 108.539C163.661 108.258 164.24 108.117 164.844 108.117C165.219 108.117 165.573 108.167 165.906 108.266C166.24 108.359 166.508 108.471 166.711 108.602L168.141 108.234L168.234 108.352L166.922 114.508C166.724 115.44 166.469 116.227 166.156 116.867C165.849 117.513 165.492 118.023 165.086 118.398C164.669 118.784 164.208 119.057 163.703 119.219C163.203 119.385 162.635 119.469 162 119.469C161.568 119.469 161.214 119.435 160.938 119.367C160.667 119.299 160.453 119.211 160.297 119.102C160.141 118.992 160.034 118.867 159.977 118.727C159.924 118.591 159.898 118.461 159.898 118.336C159.898 118.102 159.969 117.904 160.109 117.742C160.25 117.586 160.443 117.508 160.688 117.508C160.88 117.508 161.044 117.562 161.18 117.672C161.315 117.786 161.424 117.909 161.508 118.039C161.596 118.174 161.682 118.336 161.766 118.523C161.849 118.711 161.911 118.852 161.953 118.945H162.188C162.474 118.945 162.781 118.88 163.109 118.75C163.438 118.62 163.737 118.409 164.008 118.117C164.284 117.815 164.542 117.409 164.781 116.898C165.021 116.393 165.211 115.742 165.352 114.945ZM166.398 109.953C166.398 109.807 166.375 109.659 166.328 109.508C166.286 109.352 166.206 109.208 166.086 109.078C165.971 108.953 165.826 108.854 165.648 108.781C165.471 108.708 165.245 108.672 164.969 108.672C164.568 108.672 164.188 108.794 163.828 109.039C163.474 109.279 163.154 109.609 162.867 110.031C162.602 110.427 162.385 110.906 162.219 111.469C162.052 112.031 161.969 112.596 161.969 113.164C161.969 113.471 161.99 113.755 162.031 114.016C162.078 114.271 162.156 114.495 162.266 114.688C162.375 114.88 162.518 115.031 162.695 115.141C162.878 115.245 163.112 115.297 163.398 115.297C163.763 115.297 164.125 115.193 164.484 114.984C164.844 114.771 165.185 114.5 165.508 114.172L166.398 109.953ZM176.219 109.742C176.219 110.294 176.044 110.768 175.695 111.164C175.352 111.56 174.849 111.875 174.188 112.109C173.703 112.286 173.214 112.43 172.719 112.539C172.224 112.648 171.677 112.74 171.078 112.812C171.078 113.635 171.229 114.266 171.531 114.703C171.839 115.135 172.286 115.352 172.875 115.352C173.396 115.352 173.854 115.221 174.25 114.961C174.651 114.701 175.044 114.312 175.43 113.797L175.875 114.125C175.458 114.76 174.938 115.268 174.312 115.648C173.688 116.029 173.039 116.219 172.367 116.219C171.445 116.219 170.74 115.961 170.25 115.445C169.766 114.93 169.523 114.198 169.523 113.25C169.523 112.594 169.625 111.969 169.828 111.375C170.036 110.776 170.339 110.229 170.734 109.734C171.12 109.25 171.591 108.859 172.148 108.562C172.711 108.266 173.331 108.117 174.008 108.117C174.758 108.117 175.312 108.271 175.672 108.578C176.036 108.88 176.219 109.268 176.219 109.742ZM174.781 109.547C174.781 109.344 174.753 109.185 174.695 109.07C174.638 108.951 174.565 108.862 174.477 108.805C174.383 108.742 174.284 108.703 174.18 108.688C174.076 108.672 173.969 108.664 173.859 108.664C173.234 108.664 172.656 109.008 172.125 109.695C171.599 110.383 171.266 111.24 171.125 112.266C171.49 112.214 171.901 112.141 172.359 112.047C172.818 111.948 173.198 111.82 173.5 111.664C173.932 111.44 174.253 111.154 174.461 110.805C174.674 110.451 174.781 110.031 174.781 109.547ZM181.312 109.336C181.312 109.628 181.206 109.878 180.992 110.086C180.784 110.294 180.534 110.398 180.242 110.398C179.951 110.398 179.698 110.294 179.484 110.086C179.276 109.878 179.172 109.628 179.172 109.336C179.172 109.044 179.276 108.794 179.484 108.586C179.693 108.372 179.945 108.266 180.242 108.266C180.539 108.266 180.792 108.372 181 108.586C181.208 108.794 181.312 109.044 181.312 109.336ZM180.023 115.102C180.023 115.393 179.917 115.643 179.703 115.852C179.495 116.055 179.245 116.156 178.953 116.156C178.661 116.156 178.409 116.055 178.195 115.852C177.987 115.643 177.883 115.393 177.883 115.102C177.883 114.81 177.987 114.56 178.195 114.352C178.409 114.138 178.661 114.031 178.953 114.031C179.245 114.031 179.495 114.138 179.703 114.352C179.917 114.56 180.023 114.81 180.023 115.102ZM197.375 104.914L196.758 107.586H196.172C196.141 107.034 196.023 106.57 195.82 106.195C195.622 105.82 195.354 105.607 195.016 105.555C194.859 105.534 194.669 105.518 194.445 105.508C194.221 105.497 193.969 105.492 193.688 105.492H191.906L190.883 109.953H192.133C192.518 109.953 192.818 109.917 193.031 109.844C193.245 109.766 193.435 109.638 193.602 109.461C193.758 109.305 193.909 109.091 194.055 108.82C194.201 108.544 194.305 108.312 194.367 108.125H194.953L193.953 112.461H193.375C193.375 112.404 193.378 112.336 193.383 112.258C193.393 112.174 193.398 112.086 193.398 111.992C193.398 111.799 193.385 111.615 193.359 111.438C193.333 111.26 193.297 111.13 193.25 111.047C193.141 110.844 192.984 110.711 192.781 110.648C192.578 110.586 192.312 110.555 191.984 110.555H190.734L189.961 113.938C189.93 114.062 189.904 114.198 189.883 114.344C189.862 114.49 189.852 114.604 189.852 114.688C189.852 114.974 189.953 115.164 190.156 115.258C190.365 115.352 190.82 115.398 191.523 115.398C192.398 115.398 192.992 115.367 193.305 115.305C193.617 115.242 193.849 115.151 194 115.031C194.297 114.792 194.643 114.409 195.039 113.883C195.44 113.357 195.708 112.974 195.844 112.734H196.406L195.445 116H186.242L186.359 115.484C186.521 115.474 186.734 115.453 187 115.422C187.266 115.385 187.445 115.349 187.539 115.312C187.721 115.245 187.859 115.143 187.953 115.008C188.052 114.872 188.12 114.714 188.156 114.531L190.016 106.484C190.026 106.443 190.034 106.396 190.039 106.344C190.049 106.292 190.055 106.242 190.055 106.195C190.055 106.091 190.031 105.997 189.984 105.914C189.943 105.831 189.865 105.76 189.75 105.703C189.625 105.635 189.448 105.576 189.219 105.523C188.99 105.471 188.81 105.44 188.68 105.43L188.797 104.914H197.375ZM205.961 115.094L205.844 115.594C205.375 115.781 205.01 115.917 204.75 116C204.49 116.089 204.227 116.133 203.961 116.133C203.544 116.133 203.232 116.026 203.023 115.812C202.815 115.594 202.711 115.326 202.711 115.008C202.711 114.893 202.721 114.768 202.742 114.633C202.763 114.492 202.797 114.328 202.844 114.141L203.609 111.227C203.667 111.003 203.711 110.799 203.742 110.617C203.779 110.435 203.797 110.289 203.797 110.18C203.797 109.831 203.714 109.555 203.547 109.352C203.38 109.148 203.133 109.047 202.805 109.047C202.487 109.047 202.13 109.151 201.734 109.359C201.339 109.568 200.966 109.87 200.617 110.266L199.297 116H197.844L199.008 110.938C199.034 110.812 199.07 110.633 199.117 110.398C199.169 110.159 199.195 109.966 199.195 109.82C199.195 109.529 199.146 109.333 199.047 109.234C198.948 109.135 198.75 109.086 198.453 109.086C198.339 109.086 198.193 109.107 198.016 109.148C197.839 109.185 197.701 109.216 197.602 109.242L197.719 108.742C198.125 108.56 198.484 108.424 198.797 108.336C199.109 108.247 199.378 108.203 199.602 108.203C200.013 108.203 200.307 108.315 200.484 108.539C200.661 108.763 200.755 109.073 200.766 109.469H200.812C201.385 109.01 201.88 108.672 202.297 108.453C202.714 108.229 203.188 108.117 203.719 108.117C204.219 108.117 204.609 108.263 204.891 108.555C205.172 108.841 205.312 109.219 205.312 109.688C205.312 109.781 205.297 109.948 205.266 110.188C205.24 110.427 205.195 110.664 205.133 110.898L204.477 113.406C204.43 113.573 204.383 113.766 204.336 113.984C204.294 114.198 204.273 114.365 204.273 114.484C204.273 114.781 204.339 114.984 204.469 115.094C204.599 115.198 204.812 115.25 205.109 115.25C205.208 115.25 205.349 115.234 205.531 115.203C205.719 115.167 205.862 115.13 205.961 115.094ZM211.961 114.945L211.906 114.93C211.802 115.013 211.654 115.13 211.461 115.281C211.273 115.432 211.076 115.565 210.867 115.68C210.628 115.82 210.385 115.935 210.141 116.023C209.896 116.112 209.625 116.156 209.328 116.156C208.573 116.156 207.99 115.891 207.578 115.359C207.172 114.823 206.969 114.086 206.969 113.148C206.969 112.503 207.086 111.875 207.32 111.266C207.56 110.656 207.885 110.115 208.297 109.641C208.693 109.182 209.167 108.815 209.719 108.539C210.271 108.258 210.849 108.117 211.453 108.117C211.828 108.117 212.182 108.167 212.516 108.266C212.849 108.359 213.117 108.471 213.32 108.602L214.75 108.234L214.844 108.352L213.531 114.508C213.333 115.44 213.078 116.227 212.766 116.867C212.458 117.513 212.102 118.023 211.695 118.398C211.279 118.784 210.818 119.057 210.312 119.219C209.812 119.385 209.245 119.469 208.609 119.469C208.177 119.469 207.823 119.435 207.547 119.367C207.276 119.299 207.062 119.211 206.906 119.102C206.75 118.992 206.643 118.867 206.586 118.727C206.534 118.591 206.508 118.461 206.508 118.336C206.508 118.102 206.578 117.904 206.719 117.742C206.859 117.586 207.052 117.508 207.297 117.508C207.49 117.508 207.654 117.562 207.789 117.672C207.924 117.786 208.034 117.909 208.117 118.039C208.206 118.174 208.292 118.336 208.375 118.523C208.458 118.711 208.521 118.852 208.562 118.945H208.797C209.083 118.945 209.391 118.88 209.719 118.75C210.047 118.62 210.346 118.409 210.617 118.117C210.893 117.815 211.151 117.409 211.391 116.898C211.63 116.393 211.82 115.742 211.961 114.945ZM213.008 109.953C213.008 109.807 212.984 109.659 212.938 109.508C212.896 109.352 212.815 109.208 212.695 109.078C212.581 108.953 212.435 108.854 212.258 108.781C212.081 108.708 211.854 108.672 211.578 108.672C211.177 108.672 210.797 108.794 210.438 109.039C210.083 109.279 209.763 109.609 209.477 110.031C209.211 110.427 208.995 110.906 208.828 111.469C208.661 112.031 208.578 112.596 208.578 113.164C208.578 113.471 208.599 113.755 208.641 114.016C208.688 114.271 208.766 114.495 208.875 114.688C208.984 114.88 209.128 115.031 209.305 115.141C209.487 115.245 209.721 115.297 210.008 115.297C210.372 115.297 210.734 115.193 211.094 114.984C211.453 114.771 211.794 114.5 212.117 114.172L213.008 109.953ZM220.281 104.023L218.102 113.43C218.055 113.628 218.01 113.826 217.969 114.023C217.927 114.221 217.906 114.383 217.906 114.508C217.906 114.805 217.971 115.008 218.102 115.117C218.237 115.227 218.453 115.281 218.75 115.281C218.854 115.281 219.008 115.268 219.211 115.242C219.419 115.216 219.576 115.185 219.68 115.148L219.562 115.648C219.094 115.836 218.732 115.969 218.477 116.047C218.227 116.125 217.943 116.164 217.625 116.164C217.208 116.164 216.891 116.057 216.672 115.844C216.458 115.625 216.352 115.357 216.352 115.039C216.352 114.919 216.362 114.794 216.383 114.664C216.409 114.534 216.443 114.37 216.484 114.172L218.383 105.945C218.419 105.784 218.443 105.672 218.453 105.609C218.469 105.547 218.477 105.469 218.477 105.375C218.477 105.188 218.445 105.044 218.383 104.945C218.32 104.841 218.232 104.763 218.117 104.711C218.008 104.664 217.87 104.633 217.703 104.617C217.536 104.602 217.367 104.583 217.195 104.562L217.305 104.086L220.203 103.906L220.281 104.023ZM224.461 115.148L224.344 115.648C223.865 115.841 223.482 115.974 223.195 116.047C222.909 116.125 222.664 116.164 222.461 116.164C222.044 116.164 221.732 116.057 221.523 115.844C221.315 115.625 221.211 115.357 221.211 115.039C221.211 114.919 221.221 114.794 221.242 114.664C221.263 114.534 221.297 114.37 221.344 114.172L222.172 110.852C222.214 110.669 222.253 110.474 222.289 110.266C222.331 110.057 222.352 109.88 222.352 109.734C222.352 109.443 222.302 109.25 222.203 109.156C222.109 109.057 221.914 109.008 221.617 109.008C221.503 109.008 221.349 109.026 221.156 109.062C220.969 109.099 220.826 109.13 220.727 109.156L220.844 108.656C221.25 108.474 221.615 108.339 221.938 108.25C222.26 108.161 222.516 108.117 222.703 108.117C223.13 108.117 223.44 108.219 223.633 108.422C223.826 108.625 223.922 108.898 223.922 109.242C223.922 109.336 223.911 109.464 223.891 109.625C223.87 109.786 223.839 109.948 223.797 110.109L222.961 113.43C222.909 113.633 222.862 113.833 222.82 114.031C222.784 114.224 222.766 114.383 222.766 114.508C222.766 114.805 222.831 115.008 222.961 115.117C223.096 115.227 223.312 115.281 223.609 115.281C223.708 115.281 223.849 115.268 224.031 115.242C224.219 115.216 224.362 115.185 224.461 115.148ZM225.016 105.164C225.016 105.461 224.919 105.721 224.727 105.945C224.534 106.164 224.294 106.273 224.008 106.273C223.742 106.273 223.513 106.169 223.32 105.961C223.128 105.747 223.031 105.505 223.031 105.234C223.031 104.948 223.128 104.698 223.32 104.484C223.513 104.271 223.742 104.164 224.008 104.164C224.305 104.164 224.547 104.266 224.734 104.469C224.922 104.667 225.016 104.898 225.016 105.164ZM227.75 116.227C226.979 116.227 226.336 116.091 225.82 115.82C225.31 115.544 225.055 115.185 225.055 114.742C225.055 114.534 225.13 114.339 225.281 114.156C225.432 113.974 225.617 113.883 225.836 113.883C226.044 113.883 226.211 113.932 226.336 114.031C226.466 114.125 226.568 114.237 226.641 114.367C226.719 114.503 226.786 114.664 226.844 114.852C226.906 115.039 226.958 115.193 227 115.312C227.078 115.401 227.185 115.484 227.32 115.562C227.461 115.635 227.661 115.672 227.922 115.672C228.484 115.672 228.909 115.531 229.195 115.25C229.487 114.969 229.633 114.589 229.633 114.109C229.633 113.755 229.497 113.474 229.227 113.266C228.956 113.052 228.552 112.857 228.016 112.68C227.823 112.617 227.596 112.523 227.336 112.398C227.076 112.268 226.867 112.13 226.711 111.984C226.523 111.818 226.372 111.62 226.258 111.391C226.143 111.161 226.086 110.891 226.086 110.578C226.086 109.911 226.383 109.336 226.977 108.852C227.576 108.362 228.31 108.117 229.18 108.117C229.383 108.117 229.602 108.128 229.836 108.148C230.07 108.169 230.328 108.227 230.609 108.32C230.854 108.404 231.062 108.529 231.234 108.695C231.406 108.857 231.492 109.068 231.492 109.328C231.492 109.542 231.419 109.737 231.273 109.914C231.133 110.086 230.945 110.172 230.711 110.172C230.518 110.172 230.359 110.13 230.234 110.047C230.109 109.964 230.005 109.852 229.922 109.711C229.839 109.57 229.771 109.419 229.719 109.258C229.667 109.096 229.609 108.938 229.547 108.781C229.448 108.74 229.359 108.711 229.281 108.695C229.203 108.68 229.099 108.672 228.969 108.672C228.458 108.672 228.07 108.81 227.805 109.086C227.544 109.357 227.414 109.68 227.414 110.055C227.414 110.419 227.531 110.695 227.766 110.883C228.005 111.065 228.398 111.255 228.945 111.453C229.654 111.708 230.167 112 230.484 112.328C230.807 112.656 230.969 113.062 230.969 113.547C230.969 114.339 230.664 114.984 230.055 115.484C229.445 115.979 228.677 116.227 227.75 116.227ZM240.375 115.094L240.258 115.594C239.789 115.781 239.424 115.917 239.164 116C238.904 116.089 238.641 116.133 238.375 116.133C237.958 116.133 237.646 116.026 237.438 115.812C237.229 115.594 237.125 115.326 237.125 115.008C237.125 114.893 237.135 114.768 237.156 114.633C237.177 114.492 237.211 114.328 237.258 114.141L238.023 111.227C238.081 111.003 238.125 110.799 238.156 110.617C238.193 110.435 238.211 110.289 238.211 110.18C238.211 109.831 238.128 109.555 237.961 109.352C237.794 109.148 237.547 109.047 237.219 109.047C236.885 109.047 236.523 109.154 236.133 109.367C235.747 109.581 235.38 109.88 235.031 110.266L233.711 116H232.258L234.578 105.945C234.604 105.826 234.625 105.724 234.641 105.641C234.661 105.557 234.672 105.469 234.672 105.375C234.672 105.188 234.641 105.044 234.578 104.945C234.516 104.841 234.427 104.763 234.312 104.711C234.214 104.664 234.078 104.633 233.906 104.617C233.734 104.602 233.562 104.583 233.391 104.562L233.5 104.086L236.398 103.906L236.477 104.023L235.227 109.43H235.258C235.794 108.997 236.273 108.672 236.695 108.453C237.117 108.229 237.596 108.117 238.133 108.117C238.633 108.117 239.023 108.263 239.305 108.555C239.586 108.841 239.727 109.219 239.727 109.688C239.727 109.781 239.711 109.948 239.68 110.188C239.654 110.427 239.609 110.664 239.547 110.898L238.891 113.406C238.849 113.573 238.805 113.766 238.758 113.984C238.711 114.198 238.688 114.365 238.688 114.484C238.688 114.781 238.753 114.984 238.883 115.094C239.013 115.198 239.227 115.25 239.523 115.25C239.622 115.25 239.763 115.234 239.945 115.203C240.133 115.167 240.276 115.13 240.375 115.094Z" fill="black"/>
<rect x="88.5" y="24.5" width="485" height="47" fill="white"/>
<rect x="88.5" y="24.5" width="485" height="47" stroke="#78716C"/>
<path d="M121.531 56.4696L116.837 51.7765C118.197 50.1431 118.876 48.048 118.731 45.9272C118.586 43.8063 117.629 41.8229 116.059 40.3896C114.489 38.9562 112.427 38.1833 110.302 38.2316C108.177 38.2799 106.152 39.1457 104.649 40.6489C103.146 42.1521 102.28 44.1769 102.232 46.3021C102.183 48.4274 102.956 50.4894 104.39 52.0593C105.823 53.6293 107.806 54.5861 109.927 54.7309C112.048 54.8757 114.143 54.1973 115.776 52.8368L120.47 57.5308C120.539 57.6005 120.622 57.6558 120.713 57.6935C120.804 57.7312 120.902 57.7506 121 57.7506C121.099 57.7506 121.196 57.7312 121.287 57.6935C121.378 57.6558 121.461 57.6005 121.531 57.5308C121.601 57.4612 121.656 57.3784 121.694 57.2874C121.731 57.1963 121.751 57.0988 121.751 57.0002C121.751 56.9017 121.731 56.8041 121.694 56.713C121.656 56.622 121.601 56.5393 121.531 56.4696ZM103.75 46.5002C103.75 45.1652 104.146 43.8601 104.888 42.7501C105.629 41.6401 106.684 40.7749 107.917 40.264C109.151 39.7531 110.508 39.6195 111.817 39.8799C113.126 40.1404 114.329 40.7832 115.273 41.7272C116.217 42.6712 116.86 43.874 117.121 45.1834C117.381 46.4927 117.247 47.8499 116.736 49.0833C116.226 50.3167 115.36 51.3709 114.25 52.1126C113.14 52.8543 111.835 53.2502 110.5 53.2502C108.711 53.2482 106.995 52.5364 105.729 51.271C104.464 50.0056 103.752 48.2898 103.75 46.5002Z" fill="black"/>
<path d="M149.258 52.2344C148.854 53.0026 148.314 53.6146 147.637 54.0703C146.96 54.526 146.182 54.7539 145.303 54.7539C144.528 54.7539 143.848 54.6172 143.262 54.3438C142.682 54.0703 142.204 53.6992 141.826 53.2305C141.449 52.7617 141.165 52.2148 140.977 51.5898C140.794 50.9648 140.703 50.304 140.703 49.6074C140.703 48.9824 140.801 48.3704 140.996 47.7715C141.198 47.166 141.491 46.6224 141.875 46.1406C142.246 45.6784 142.705 45.3073 143.252 45.0273C143.805 44.7409 144.424 44.5977 145.107 44.5977C145.811 44.5977 146.413 44.7083 146.914 44.9297C147.415 45.151 147.822 45.4538 148.135 45.8379C148.434 46.2025 148.656 46.6322 148.799 47.127C148.949 47.6217 149.023 48.1589 149.023 48.7383V49.3828H142.646C142.646 50.0143 142.705 50.5872 142.822 51.1016C142.946 51.6159 143.138 52.0684 143.398 52.459C143.652 52.8366 143.984 53.1361 144.395 53.3574C144.805 53.5723 145.293 53.6797 145.859 53.6797C146.439 53.6797 146.937 53.5462 147.354 53.2793C147.777 53.0059 148.184 52.5176 148.574 51.8145L149.258 52.2344ZM147.1 48.5625C147.1 48.1979 147.067 47.8073 147.002 47.3906C146.943 46.974 146.846 46.6257 146.709 46.3457C146.559 46.0462 146.354 45.8021 146.094 45.6133C145.833 45.4245 145.498 45.3301 145.088 45.3301C144.404 45.3301 143.835 45.6165 143.379 46.1895C142.93 46.7559 142.686 47.5469 142.646 48.5625H147.1ZM161.006 54.5H156.289V53.8555C156.439 53.8424 156.602 53.8294 156.777 53.8164C156.96 53.8034 157.109 53.7773 157.227 53.7383C157.409 53.6797 157.542 53.5788 157.627 53.4355C157.718 53.2858 157.764 53.0938 157.764 52.8594V47.9082C157.764 47.2246 157.601 46.6973 157.275 46.3262C156.956 45.9551 156.566 45.7695 156.104 45.7695C155.758 45.7695 155.443 45.8249 155.156 45.9355C154.87 46.0397 154.616 46.1699 154.395 46.3262C154.18 46.4759 154.007 46.6387 153.877 46.8145C153.753 46.9837 153.662 47.1204 153.604 47.2246V52.7617C153.604 52.9831 153.649 53.1654 153.74 53.3086C153.831 53.4518 153.968 53.5625 154.15 53.6406C154.287 53.7057 154.434 53.7546 154.59 53.7871C154.753 53.8197 154.919 53.8424 155.088 53.8555V54.5H150.371V53.8555C150.521 53.8424 150.674 53.8294 150.83 53.8164C150.993 53.8034 151.133 53.7773 151.25 53.7383C151.432 53.6797 151.566 53.5788 151.65 53.4355C151.742 53.2858 151.787 53.0938 151.787 52.8594V46.9121C151.787 46.6908 151.738 46.4889 151.641 46.3066C151.549 46.1178 151.419 45.9648 151.25 45.8477C151.126 45.7695 150.98 45.7142 150.811 45.6816C150.641 45.6426 150.459 45.6165 150.264 45.6035V44.9688L153.467 44.7539L153.604 44.8906V46.248H153.652C153.809 46.0918 154.004 45.9062 154.238 45.6914C154.473 45.4701 154.694 45.291 154.902 45.1543C155.143 44.998 155.43 44.8678 155.762 44.7637C156.094 44.6595 156.468 44.6074 156.885 44.6074C157.809 44.6074 158.493 44.8971 158.936 45.4766C159.385 46.0495 159.609 46.8145 159.609 47.7715V52.7812C159.609 53.0091 159.648 53.1947 159.727 53.3379C159.805 53.4746 159.938 53.582 160.127 53.6602C160.283 53.7253 160.417 53.7708 160.527 53.7969C160.645 53.8229 160.804 53.8424 161.006 53.8555V54.5ZM165.693 53.9141C165.693 54.6302 165.589 55.3008 165.381 55.9258C165.173 56.5573 164.896 57.0781 164.551 57.4883C164.18 57.9245 163.76 58.2565 163.291 58.4844C162.829 58.7188 162.318 58.8359 161.758 58.8359C161.178 58.8359 160.742 58.7188 160.449 58.4844C160.156 58.2565 160.01 57.9863 160.01 57.6738C160.01 57.3939 160.088 57.1465 160.244 56.9316C160.4 56.7233 160.628 56.6191 160.928 56.6191C161.13 56.6191 161.309 56.6615 161.465 56.7461C161.621 56.8307 161.758 56.9414 161.875 57.0781C161.979 57.1953 162.083 57.3385 162.188 57.5078C162.298 57.6836 162.402 57.8529 162.5 58.0156C162.995 58.0156 163.346 57.7161 163.555 57.1172C163.77 56.5182 163.877 55.5579 163.877 54.2363V46.9902C163.877 46.7819 163.825 46.5833 163.721 46.3945C163.623 46.1992 163.493 46.043 163.33 45.9258C163.226 45.8542 162.975 45.7826 162.578 45.7109C162.188 45.6393 161.891 45.5938 161.689 45.5742V44.9688L165.557 44.7539L165.693 44.8906V53.9141ZM165.84 40.9453C165.84 41.3164 165.716 41.6419 165.469 41.9219C165.228 42.1953 164.928 42.332 164.57 42.332C164.238 42.332 163.949 42.2018 163.701 41.9414C163.46 41.6745 163.34 41.3717 163.34 41.0332C163.34 40.6751 163.46 40.3626 163.701 40.0957C163.949 39.8288 164.238 39.6953 164.57 39.6953C164.941 39.6953 165.244 39.8223 165.479 40.0762C165.719 40.3236 165.84 40.6133 165.84 40.9453ZM177.412 49.5879C177.412 50.265 177.305 50.9323 177.09 51.5898C176.875 52.2409 176.569 52.7943 176.172 53.25C175.723 53.7708 175.202 54.1582 174.609 54.4121C174.017 54.666 173.353 54.793 172.617 54.793C172.005 54.793 171.423 54.679 170.869 54.4512C170.316 54.2168 169.824 53.8783 169.395 53.4355C168.971 52.9993 168.633 52.4688 168.379 51.8438C168.132 51.2122 168.008 50.5059 168.008 49.7246C168.008 48.2207 168.444 46.9902 169.316 46.0332C170.195 45.0762 171.344 44.5977 172.764 44.5977C174.111 44.5977 175.221 45.0534 176.094 45.9648C176.973 46.8698 177.412 48.0775 177.412 49.5879ZM175.391 49.6074C175.391 49.1191 175.342 48.6048 175.244 48.0645C175.146 47.5176 175 47.0553 174.805 46.6777C174.596 46.2741 174.323 45.9518 173.984 45.7109C173.646 45.4635 173.232 45.3398 172.744 45.3398C172.243 45.3398 171.813 45.4635 171.455 45.7109C171.104 45.9583 170.817 46.2969 170.596 46.7266C170.387 47.1237 170.241 47.5762 170.156 48.084C170.072 48.5918 170.029 49.0833 170.029 49.5586C170.029 50.1836 170.078 50.763 170.176 51.2969C170.28 51.8242 170.443 52.2962 170.664 52.7129C170.885 53.1296 171.162 53.4583 171.494 53.6992C171.833 53.9336 172.249 54.0508 172.744 54.0508C173.558 54.0508 174.202 53.6569 174.678 52.8691C175.153 52.0814 175.391 50.9941 175.391 49.6074ZM178.076 57.6445C178.076 57.319 178.164 57.0521 178.34 56.8438C178.522 56.6419 178.747 56.541 179.014 56.541C179.222 56.541 179.401 56.5801 179.551 56.6582C179.701 56.7363 179.834 56.8372 179.951 56.9609C180.049 57.0586 180.153 57.1921 180.264 57.3613C180.374 57.5306 180.462 57.6706 180.527 57.7812C180.853 57.6055 181.24 57.1465 181.689 56.4043C182.145 55.6621 182.474 55.0111 182.676 54.4512C182.057 52.9082 181.497 51.528 180.996 50.3105C180.495 49.0931 179.971 47.8333 179.424 46.5312C179.3 46.2318 179.092 46.0007 178.799 45.8379C178.506 45.6686 178.213 45.5612 177.92 45.5156V44.8711H182.314V45.5547C182.119 45.5612 181.885 45.6035 181.611 45.6816C181.338 45.7533 181.201 45.8379 181.201 45.9355C181.201 45.9746 181.214 46.0397 181.24 46.1309C181.273 46.222 181.309 46.3164 181.348 46.4141C181.595 47.0586 181.973 47.9896 182.48 49.207C182.988 50.418 183.382 51.388 183.662 52.1172C183.955 51.4206 184.258 50.7012 184.57 49.959C184.889 49.2103 185.244 48.3281 185.635 47.3125C185.68 47.1888 185.745 47.0195 185.83 46.8047C185.915 46.5833 185.957 46.3945 185.957 46.2383C185.957 46.069 185.807 45.9128 185.508 45.7695C185.215 45.6198 184.935 45.5286 184.668 45.4961V44.8711H188.242V45.4766C188.047 45.5091 187.79 45.623 187.471 45.8184C187.152 46.0072 186.914 46.2773 186.758 46.6289C185.983 48.4258 185.293 50.0632 184.688 51.541C184.089 53.0189 183.633 54.1061 183.32 54.8027C182.91 55.7142 182.542 56.4238 182.217 56.9316C181.898 57.446 181.585 57.8496 181.279 58.1426C180.98 58.416 180.706 58.5983 180.459 58.6895C180.218 58.7871 179.967 58.8359 179.707 58.8359C179.199 58.8359 178.799 58.7155 178.506 58.4746C178.219 58.2337 178.076 57.957 178.076 57.6445ZM193.33 54.5H188.672V53.8555C188.822 53.8424 188.975 53.8294 189.131 53.8164C189.294 53.8034 189.434 53.7773 189.551 53.7383C189.733 53.6797 189.867 53.5788 189.951 53.4355C190.042 53.2858 190.088 53.0938 190.088 52.8594V46.9121C190.088 46.7038 190.039 46.515 189.941 46.3457C189.85 46.1699 189.72 46.0234 189.551 45.9062C189.427 45.8281 189.248 45.763 189.014 45.7109C188.779 45.6523 188.564 45.6165 188.369 45.6035V44.9688L191.768 44.7539L191.904 44.8906V52.7422C191.904 52.9701 191.947 53.1589 192.031 53.3086C192.122 53.4583 192.262 53.569 192.451 53.6406C192.594 53.6992 192.734 53.748 192.871 53.7871C193.008 53.8197 193.161 53.8424 193.33 53.8555V54.5ZM192.1 40.9551C192.1 41.3262 191.976 41.6517 191.729 41.9316C191.488 42.2051 191.188 42.3418 190.83 42.3418C190.498 42.3418 190.208 42.2116 189.961 41.9512C189.72 41.6842 189.6 41.3815 189.6 41.043C189.6 40.6849 189.72 40.3724 189.961 40.1055C190.208 39.8385 190.498 39.7051 190.83 39.7051C191.201 39.7051 191.504 39.832 191.738 40.0859C191.979 40.3333 192.1 40.623 192.1 40.9551ZM205.146 54.5H200.43V53.8555C200.579 53.8424 200.742 53.8294 200.918 53.8164C201.1 53.8034 201.25 53.7773 201.367 53.7383C201.549 53.6797 201.683 53.5788 201.768 53.4355C201.859 53.2858 201.904 53.0938 201.904 52.8594V47.9082C201.904 47.2246 201.742 46.6973 201.416 46.3262C201.097 45.9551 200.706 45.7695 200.244 45.7695C199.899 45.7695 199.583 45.8249 199.297 45.9355C199.01 46.0397 198.757 46.1699 198.535 46.3262C198.32 46.4759 198.148 46.6387 198.018 46.8145C197.894 46.9837 197.803 47.1204 197.744 47.2246V52.7617C197.744 52.9831 197.79 53.1654 197.881 53.3086C197.972 53.4518 198.109 53.5625 198.291 53.6406C198.428 53.7057 198.574 53.7546 198.73 53.7871C198.893 53.8197 199.059 53.8424 199.229 53.8555V54.5H194.512V53.8555C194.661 53.8424 194.814 53.8294 194.971 53.8164C195.133 53.8034 195.273 53.7773 195.391 53.7383C195.573 53.6797 195.706 53.5788 195.791 53.4355C195.882 53.2858 195.928 53.0938 195.928 52.8594V46.9121C195.928 46.6908 195.879 46.4889 195.781 46.3066C195.69 46.1178 195.56 45.9648 195.391 45.8477C195.267 45.7695 195.12 45.7142 194.951 45.6816C194.782 45.6426 194.6 45.6165 194.404 45.6035V44.9688L197.607 44.7539L197.744 44.8906V46.248H197.793C197.949 46.0918 198.145 45.9062 198.379 45.6914C198.613 45.4701 198.835 45.291 199.043 45.1543C199.284 44.998 199.57 44.8678 199.902 44.7637C200.234 44.6595 200.609 44.6074 201.025 44.6074C201.95 44.6074 202.633 44.8971 203.076 45.4766C203.525 46.0495 203.75 46.8145 203.75 47.7715V52.7812C203.75 53.0091 203.789 53.1947 203.867 53.3379C203.945 53.4746 204.079 53.582 204.268 53.6602C204.424 53.7253 204.557 53.7708 204.668 53.7969C204.785 53.8229 204.945 53.8424 205.146 53.8555V54.5ZM214.58 53.5039C214.84 53.7513 215.046 54.0312 215.195 54.3438C215.345 54.6562 215.42 55.0436 215.42 55.5059C215.42 55.9681 215.319 56.401 215.117 56.8047C214.915 57.2148 214.609 57.5697 214.199 57.8691C213.763 58.1751 213.242 58.4128 212.637 58.582C212.031 58.7513 211.283 58.8359 210.391 58.8359C208.932 58.8359 207.842 58.6211 207.119 58.1914C206.396 57.7682 206.035 57.1465 206.035 56.3262C206.035 55.6621 206.296 55.138 206.816 54.7539C207.337 54.3698 208.001 54.1615 208.809 54.1289V53.9922C208.613 53.9336 208.411 53.862 208.203 53.7773C207.995 53.6862 207.816 53.582 207.666 53.4648C207.497 53.3281 207.36 53.1686 207.256 52.9863C207.152 52.7975 207.1 52.5664 207.1 52.293C207.1 51.9479 207.22 51.6322 207.461 51.3457C207.708 51.0527 208.079 50.8021 208.574 50.5938V50.4473C207.949 50.1543 207.464 49.7799 207.119 49.3242C206.774 48.862 206.602 48.3281 206.602 47.7227C206.602 46.8112 206.94 46.0625 207.617 45.4766C208.301 44.8906 209.173 44.5977 210.234 44.5977C210.527 44.5977 210.817 44.627 211.104 44.6855C211.396 44.7441 211.693 44.819 211.992 44.9102H215.352V45.8477H213.086V45.9062C213.327 46.1862 213.506 46.4954 213.623 46.834C213.74 47.1725 213.799 47.5046 213.799 47.8301C213.799 48.6764 213.454 49.3926 212.764 49.9785C212.08 50.5645 211.283 50.8574 210.371 50.8574H209.189C209.04 50.9095 208.883 51.0039 208.721 51.1406C208.558 51.2773 208.477 51.4629 208.477 51.6973C208.477 51.9382 208.545 52.1237 208.682 52.2539C208.818 52.3776 208.984 52.4622 209.18 52.5078C209.368 52.5599 209.587 52.5924 209.834 52.6055C210.088 52.6185 210.348 52.6283 210.615 52.6348C210.902 52.6413 211.292 52.6608 211.787 52.6934C212.288 52.7259 212.643 52.7454 212.852 52.752C213.151 52.765 213.451 52.8366 213.75 52.9668C214.056 53.097 214.333 53.276 214.58 53.5039ZM211.943 47.791C211.943 47.0293 211.787 46.4238 211.475 45.9746C211.169 45.5189 210.736 45.291 210.176 45.291C209.87 45.291 209.606 45.3561 209.385 45.4863C209.17 45.61 208.994 45.7891 208.857 46.0234C208.727 46.2383 208.633 46.4987 208.574 46.8047C208.522 47.1042 208.496 47.4134 208.496 47.7324C208.496 48.4551 208.652 49.0443 208.965 49.5C209.284 49.9557 209.694 50.1836 210.195 50.1836C210.755 50.1836 211.185 49.959 211.484 49.5098C211.79 49.054 211.943 48.4811 211.943 47.791ZM213.818 55.8672C213.818 55.5026 213.734 55.2031 213.564 54.9688C213.395 54.7344 213.138 54.5749 212.793 54.4902C212.611 54.4642 212.236 54.4349 211.67 54.4023C211.104 54.3698 210.446 54.3535 209.697 54.3535C208.994 54.4902 208.493 54.7181 208.193 55.0371C207.9 55.3626 207.754 55.7793 207.754 56.2871C207.754 56.515 207.803 56.7331 207.9 56.9414C207.998 57.1497 208.167 57.3418 208.408 57.5176C208.636 57.6868 208.942 57.8236 209.326 57.9277C209.71 58.0384 210.179 58.0938 210.732 58.0938C211.689 58.0938 212.441 57.9082 212.988 57.5371C213.542 57.1725 213.818 56.6159 213.818 55.8672Z" fill="black"/>
<path d="M148.852 174.133C148.669 174.43 148.448 174.711 148.188 174.977C147.932 175.237 147.641 175.461 147.312 175.648C146.964 175.846 146.609 175.995 146.25 176.094C145.896 176.198 145.487 176.25 145.023 176.25C144.253 176.25 143.586 176.141 143.023 175.922C142.466 175.703 142.005 175.409 141.641 175.039C141.276 174.669 141.003 174.234 140.82 173.734C140.643 173.229 140.555 172.682 140.555 172.094C140.555 171.562 140.651 171.055 140.844 170.57C141.042 170.081 141.32 169.646 141.68 169.266C142.034 168.896 142.479 168.596 143.016 168.367C143.557 168.138 144.161 168.023 144.828 168.023C145.557 168.023 146.156 168.112 146.625 168.289C147.094 168.466 147.482 168.711 147.789 169.023C148.086 169.32 148.302 169.672 148.438 170.078C148.573 170.479 148.641 170.901 148.641 171.344V171.852H143.359C143.359 172.919 143.565 173.732 143.977 174.289C144.388 174.846 145.042 175.125 145.938 175.125C146.427 175.125 146.867 174.992 147.258 174.727C147.648 174.456 147.982 174.115 148.258 173.703L148.852 174.133ZM145.867 171.164C145.867 170.852 145.852 170.531 145.82 170.203C145.789 169.875 145.734 169.607 145.656 169.398C145.568 169.154 145.445 168.969 145.289 168.844C145.138 168.719 144.945 168.656 144.711 168.656C144.31 168.656 143.99 168.859 143.75 169.266C143.51 169.672 143.38 170.315 143.359 171.195L145.867 171.164ZM159.922 176H155.219V175.43C155.318 175.419 155.438 175.406 155.578 175.391C155.719 175.375 155.826 175.349 155.898 175.312C156.008 175.255 156.086 175.172 156.133 175.062C156.18 174.953 156.203 174.792 156.203 174.578V170.922C156.203 170.391 156.104 169.992 155.906 169.727C155.714 169.456 155.427 169.32 155.047 169.32C154.839 169.32 154.643 169.352 154.461 169.414C154.284 169.477 154.109 169.568 153.938 169.688C153.786 169.792 153.664 169.898 153.57 170.008C153.482 170.117 153.406 170.214 153.344 170.297V174.492C153.344 174.674 153.37 174.828 153.422 174.953C153.474 175.073 153.56 175.164 153.68 175.227C153.763 175.273 153.867 175.315 153.992 175.352C154.117 175.388 154.24 175.414 154.359 175.43V176H149.609V175.43C149.74 175.419 149.87 175.406 150 175.391C150.135 175.37 150.25 175.344 150.344 175.312C150.51 175.255 150.625 175.167 150.688 175.047C150.75 174.927 150.781 174.771 150.781 174.578V170.031C150.781 169.87 150.74 169.711 150.656 169.555C150.573 169.398 150.464 169.271 150.328 169.172C150.234 169.109 150.115 169.057 149.969 169.016C149.828 168.974 149.672 168.945 149.5 168.93V168.359L153.227 168.156L153.344 168.273V169.406H153.375C153.521 169.276 153.698 169.12 153.906 168.938C154.115 168.755 154.307 168.607 154.484 168.492C154.677 168.367 154.93 168.26 155.242 168.172C155.555 168.083 155.888 168.039 156.242 168.039C157.091 168.039 157.727 168.281 158.148 168.766C158.576 169.245 158.789 169.883 158.789 170.68V174.508C158.789 174.701 158.818 174.854 158.875 174.969C158.932 175.083 159.039 175.174 159.195 175.242C159.279 175.279 159.38 175.315 159.5 175.352C159.625 175.388 159.766 175.414 159.922 175.43V176ZM164.508 175.078C164.508 175.615 164.417 176.156 164.234 176.703C164.052 177.25 163.792 177.719 163.453 178.109C163.083 178.536 162.635 178.87 162.109 179.109C161.583 179.349 160.982 179.469 160.305 179.469C159.674 179.469 159.19 179.346 158.852 179.102C158.508 178.862 158.336 178.536 158.336 178.125C158.336 177.979 158.354 177.844 158.391 177.719C158.422 177.594 158.492 177.464 158.602 177.328C158.685 177.214 158.815 177.115 158.992 177.031C159.164 176.953 159.359 176.914 159.578 176.914C160.01 176.914 160.344 177.068 160.578 177.375C160.812 177.688 161.052 178.154 161.297 178.773C161.51 178.654 161.667 178.398 161.766 178.008C161.87 177.617 161.922 176.768 161.922 175.461V170.062C161.922 169.88 161.883 169.721 161.805 169.586C161.727 169.445 161.62 169.328 161.484 169.234C161.385 169.167 161.227 169.104 161.008 169.047C160.794 168.984 160.604 168.945 160.438 168.93V168.359L164.391 168.156L164.508 168.273V175.078ZM164.539 165.344C164.539 165.74 164.385 166.078 164.078 166.359C163.776 166.635 163.417 166.773 163 166.773C162.578 166.773 162.214 166.635 161.906 166.359C161.604 166.078 161.453 165.74 161.453 165.344C161.453 164.948 161.604 164.609 161.906 164.328C162.214 164.047 162.578 163.906 163 163.906C163.422 163.906 163.784 164.047 164.086 164.328C164.388 164.609 164.539 164.948 164.539 165.344ZM174.18 169.172C174.565 169.531 174.859 169.961 175.062 170.461C175.266 170.961 175.367 171.503 175.367 172.086C175.367 172.664 175.266 173.211 175.062 173.727C174.865 174.237 174.573 174.674 174.188 175.039C173.776 175.43 173.284 175.729 172.711 175.938C172.143 176.146 171.492 176.25 170.758 176.25C170.122 176.25 169.536 176.159 169 175.977C168.469 175.794 167.997 175.521 167.586 175.156C167.19 174.807 166.878 174.378 166.648 173.867C166.419 173.352 166.305 172.776 166.305 172.141C166.305 171.516 166.404 170.961 166.602 170.477C166.805 169.987 167.107 169.552 167.508 169.172C167.893 168.807 168.367 168.526 168.93 168.328C169.497 168.125 170.13 168.023 170.828 168.023C171.557 168.023 172.198 168.125 172.75 168.328C173.307 168.526 173.784 168.807 174.18 169.172ZM172.18 174.586C172.294 174.294 172.378 173.94 172.43 173.523C172.487 173.107 172.516 172.622 172.516 172.07C172.516 171.706 172.49 171.289 172.438 170.82C172.385 170.352 172.307 169.982 172.203 169.711C172.078 169.383 171.904 169.125 171.68 168.938C171.461 168.75 171.182 168.656 170.844 168.656C170.474 168.656 170.177 168.758 169.953 168.961C169.734 169.164 169.565 169.427 169.445 169.75C169.336 170.047 169.26 170.396 169.219 170.797C169.177 171.193 169.156 171.607 169.156 172.039C169.156 172.607 169.174 173.078 169.211 173.453C169.247 173.823 169.336 174.195 169.477 174.57C169.596 174.893 169.768 175.148 169.992 175.336C170.216 175.523 170.5 175.617 170.844 175.617C171.156 175.617 171.424 175.531 171.648 175.359C171.872 175.182 172.049 174.924 172.18 174.586ZM185.203 168.82C184.969 168.857 184.74 168.945 184.516 169.086C184.297 169.227 184.115 169.445 183.969 169.742C183.521 170.69 183.06 171.701 182.586 172.773C182.112 173.841 181.586 174.997 181.008 176.242C180.685 176.94 180.372 177.497 180.07 177.914C179.768 178.331 179.484 178.651 179.219 178.875C178.969 179.083 178.721 179.234 178.477 179.328C178.232 179.422 177.984 179.469 177.734 179.469C177.24 179.469 176.839 179.331 176.531 179.055C176.229 178.779 176.078 178.469 176.078 178.125C176.078 177.979 176.094 177.844 176.125 177.719C176.161 177.594 176.234 177.464 176.344 177.328C176.427 177.214 176.555 177.115 176.727 177.031C176.904 176.953 177.102 176.914 177.32 176.914C177.612 176.914 177.891 177.016 178.156 177.219C178.422 177.422 178.698 177.703 178.984 178.062C179.156 177.891 179.367 177.633 179.617 177.289C179.872 176.951 180.06 176.602 180.18 176.242C179.56 174.94 179.01 173.812 178.531 172.859C178.052 171.901 177.516 170.833 176.922 169.656C176.792 169.406 176.617 169.214 176.398 169.078C176.18 168.938 175.948 168.852 175.703 168.82V168.25H180.484V168.82C180.307 168.826 180.102 168.865 179.867 168.938C179.638 169.01 179.523 169.104 179.523 169.219C179.523 169.26 179.531 169.307 179.547 169.359C179.562 169.406 179.591 169.477 179.633 169.57C179.81 169.935 180.06 170.443 180.383 171.094C180.711 171.74 181.091 172.497 181.523 173.367C181.846 172.628 182.12 171.992 182.344 171.461C182.573 170.924 182.794 170.398 183.008 169.883C183.06 169.753 183.089 169.651 183.094 169.578C183.104 169.5 183.109 169.448 183.109 169.422C183.109 169.328 183.062 169.247 182.969 169.18C182.88 169.107 182.773 169.044 182.648 168.992C182.518 168.94 182.393 168.901 182.273 168.875C182.154 168.849 182.055 168.831 181.977 168.82V168.25H185.203V168.82Z" fill="black"/>
<path d="M199.797 164.102L194.398 179.312H193.383L198.766 164.102H199.797ZM210.039 170.96V172.112H208.871C208.327 172.112 207.874 172.171 207.511 172.288C207.159 172.395 206.893 172.555 206.711 172.768C206.541 172.981 206.455 173.253 206.455 173.584C206.455 173.936 206.557 174.219 206.759 174.432C206.962 174.635 207.234 174.784 207.575 174.88C207.917 174.965 208.301 175.008 208.727 175.008C209.325 175.008 209.847 174.939 210.295 174.8C210.754 174.661 211.159 174.507 211.511 174.336V175.568C211.298 175.685 211.053 175.792 210.775 175.888C210.498 175.973 210.183 176.037 209.831 176.08C209.479 176.133 209.085 176.16 208.647 176.16C207.837 176.16 207.165 176.053 206.631 175.84C206.098 175.616 205.698 175.317 205.431 174.944C205.175 174.56 205.047 174.133 205.047 173.664C205.047 173.237 205.133 172.891 205.303 172.624C205.485 172.347 205.719 172.128 206.007 171.968C206.295 171.797 206.61 171.664 206.951 171.568V171.488C206.471 171.339 206.082 171.109 205.783 170.8C205.495 170.48 205.351 170.059 205.351 169.536C205.351 169.056 205.49 168.645 205.767 168.304C206.055 167.963 206.445 167.707 206.935 167.536C207.437 167.355 208.007 167.264 208.647 167.264C209.063 167.264 209.437 167.291 209.767 167.344C210.098 167.387 210.407 167.456 210.695 167.552C210.983 167.637 211.266 167.744 211.543 167.872L211.015 168.992C210.663 168.832 210.301 168.699 209.927 168.592C209.565 168.485 209.133 168.432 208.631 168.432C207.991 168.432 207.506 168.533 207.175 168.736C206.855 168.939 206.695 169.243 206.695 169.648C206.695 170.117 206.914 170.453 207.351 170.656C207.799 170.859 208.397 170.96 209.143 170.96H210.039ZM221.164 176H217.391V175.484C217.51 175.474 217.641 175.464 217.781 175.453C217.927 175.443 218.047 175.422 218.141 175.391C218.286 175.344 218.393 175.263 218.461 175.148C218.534 175.029 218.57 174.875 218.57 174.688V170.727C218.57 170.18 218.44 169.758 218.18 169.461C217.924 169.164 217.612 169.016 217.242 169.016C216.966 169.016 216.714 169.06 216.484 169.148C216.255 169.232 216.052 169.336 215.875 169.461C215.703 169.581 215.565 169.711 215.461 169.852C215.362 169.987 215.289 170.096 215.242 170.18V174.609C215.242 174.786 215.279 174.932 215.352 175.047C215.424 175.161 215.534 175.25 215.68 175.312C215.789 175.365 215.906 175.404 216.031 175.43C216.161 175.456 216.294 175.474 216.43 175.484V176H212.656V175.484C212.776 175.474 212.898 175.464 213.023 175.453C213.154 175.443 213.266 175.422 213.359 175.391C213.505 175.344 213.612 175.263 213.68 175.148C213.753 175.029 213.789 174.875 213.789 174.688V169.93C213.789 169.753 213.75 169.591 213.672 169.445C213.599 169.294 213.495 169.172 213.359 169.078C213.26 169.016 213.143 168.971 213.008 168.945C212.872 168.914 212.727 168.893 212.57 168.883V168.375L215.133 168.203L215.242 168.312V169.398H215.281C215.406 169.273 215.562 169.125 215.75 168.953C215.938 168.776 216.115 168.633 216.281 168.523C216.474 168.398 216.703 168.294 216.969 168.211C217.234 168.128 217.534 168.086 217.867 168.086C218.607 168.086 219.154 168.318 219.508 168.781C219.867 169.24 220.047 169.852 220.047 170.617V174.625C220.047 174.807 220.078 174.956 220.141 175.07C220.203 175.18 220.31 175.266 220.461 175.328C220.586 175.38 220.693 175.417 220.781 175.438C220.875 175.458 221.003 175.474 221.164 175.484V176ZM223.467 163.84V168.064H222.187V163.84H223.467ZM233.109 175.859L230.422 176.031L230.305 175.922V175.203L230.242 175.188C229.971 175.49 229.635 175.737 229.234 175.93C228.839 176.122 228.43 176.219 228.008 176.219C227.57 176.219 227.146 176.122 226.734 175.93C226.328 175.732 225.974 175.456 225.672 175.102C225.365 174.742 225.12 174.31 224.938 173.805C224.76 173.299 224.672 172.742 224.672 172.133C224.672 171.576 224.768 171.047 224.961 170.547C225.154 170.047 225.419 169.609 225.758 169.234C226.076 168.885 226.464 168.607 226.922 168.398C227.385 168.19 227.857 168.086 228.336 168.086C228.695 168.086 229.047 168.133 229.391 168.227C229.74 168.315 230.039 168.43 230.289 168.57V165.891C230.289 165.672 230.253 165.474 230.18 165.297C230.107 165.115 230.005 164.977 229.875 164.883C229.729 164.784 229.531 164.714 229.281 164.672C229.036 164.625 228.771 164.591 228.484 164.57V164.086L231.633 163.906L231.75 164.023V174.414C231.75 174.596 231.784 174.753 231.852 174.883C231.924 175.008 232.029 175.115 232.164 175.203C232.263 175.266 232.406 175.305 232.594 175.32C232.781 175.336 232.953 175.346 233.109 175.352V175.859ZM230.289 174.508V170C230.247 169.865 230.18 169.719 230.086 169.562C229.992 169.406 229.875 169.263 229.734 169.133C229.583 169.003 229.406 168.896 229.203 168.812C229 168.724 228.763 168.68 228.492 168.68C228.18 168.68 227.891 168.76 227.625 168.922C227.365 169.083 227.133 169.315 226.93 169.617C226.737 169.909 226.583 170.281 226.469 170.734C226.359 171.182 226.305 171.68 226.305 172.227C226.305 172.664 226.346 173.062 226.43 173.422C226.513 173.776 226.654 174.107 226.852 174.414C227.034 174.706 227.266 174.94 227.547 175.117C227.833 175.294 228.172 175.383 228.562 175.383C228.979 175.383 229.323 175.292 229.594 175.109C229.87 174.927 230.102 174.727 230.289 174.508ZM240.289 167.424V168.448L236.785 172.352C237.51 172.395 238.172 172.56 238.769 172.848C239.366 173.125 239.841 173.525 240.193 174.048C240.545 174.56 240.721 175.205 240.721 175.984C240.721 176.741 240.545 177.408 240.193 177.984C239.852 178.571 239.361 179.024 238.721 179.344C238.092 179.675 237.345 179.84 236.481 179.84C236.065 179.84 235.676 179.819 235.313 179.776C234.95 179.733 234.62 179.669 234.321 179.584C234.022 179.499 233.756 179.397 233.521 179.28V178C233.873 178.171 234.31 178.325 234.833 178.464C235.356 178.603 235.926 178.672 236.545 178.672C237.1 178.672 237.58 178.565 237.985 178.352C238.401 178.139 238.726 177.829 238.961 177.424C239.196 177.029 239.313 176.56 239.313 176.016C239.313 175.419 239.174 174.933 238.897 174.56C238.63 174.187 238.257 173.915 237.777 173.744C237.297 173.563 236.732 173.472 236.081 173.472H235.137V172.496L238.641 168.608H233.745V167.424H240.289ZM249.336 172.07C249.336 172.612 249.25 173.146 249.078 173.672C248.906 174.193 248.661 174.635 248.344 175C247.984 175.417 247.568 175.727 247.094 175.93C246.62 176.133 246.089 176.234 245.5 176.234C245.01 176.234 244.544 176.143 244.102 175.961C243.659 175.773 243.266 175.503 242.922 175.148C242.583 174.799 242.312 174.375 242.109 173.875C241.911 173.37 241.812 172.805 241.812 172.18C241.812 170.977 242.161 169.992 242.859 169.227C243.562 168.461 244.482 168.078 245.617 168.078C246.695 168.078 247.583 168.443 248.281 169.172C248.984 169.896 249.336 170.862 249.336 172.07ZM247.719 172.086C247.719 171.695 247.68 171.284 247.602 170.852C247.523 170.414 247.406 170.044 247.25 169.742C247.083 169.419 246.865 169.161 246.594 168.969C246.323 168.771 245.992 168.672 245.602 168.672C245.201 168.672 244.857 168.771 244.57 168.969C244.289 169.167 244.06 169.438 243.883 169.781C243.716 170.099 243.599 170.461 243.531 170.867C243.464 171.273 243.43 171.667 243.43 172.047C243.43 172.547 243.469 173.01 243.547 173.438C243.63 173.859 243.76 174.237 243.938 174.57C244.115 174.904 244.336 175.167 244.602 175.359C244.872 175.547 245.206 175.641 245.602 175.641C246.253 175.641 246.768 175.326 247.148 174.695C247.529 174.065 247.719 173.195 247.719 172.086ZM254.707 176.16C253.949 176.16 253.272 176 252.675 175.68C252.088 175.349 251.624 174.885 251.283 174.288C250.941 173.68 250.771 172.96 250.771 172.128C250.771 171.595 250.835 171.115 250.963 170.688C251.091 170.261 251.277 169.877 251.523 169.536C251.779 169.184 252.088 168.869 252.451 168.592H250.371V167.424H254.147V168.528C253.635 168.763 253.187 169.195 252.803 169.824C252.419 170.443 252.227 171.211 252.227 172.128C252.227 172.971 252.424 173.659 252.819 174.192C253.224 174.725 253.864 174.992 254.739 174.992C255.315 174.992 255.789 174.875 256.163 174.64C256.536 174.395 256.808 174.053 256.979 173.616C257.16 173.179 257.251 172.677 257.251 172.112C257.251 171.568 257.16 171.051 256.979 170.56C256.797 170.069 256.557 169.643 256.259 169.28C255.971 168.917 255.656 168.667 255.315 168.528V167.424H259.091V168.592H257.011C257.384 168.891 257.693 169.221 257.939 169.584C258.195 169.947 258.387 170.341 258.515 170.768C258.643 171.184 258.707 171.632 258.707 172.112C258.707 172.955 258.541 173.68 258.211 174.288C257.891 174.885 257.432 175.349 256.835 175.68C256.237 176 255.528 176.16 254.707 176.16ZM270.234 164.102L264.836 179.312H263.82L269.203 164.102H270.234ZM274.289 175.727C274.289 176.102 274.203 176.456 274.031 176.789C273.865 177.122 273.672 177.409 273.453 177.648C273.229 177.898 272.992 178.12 272.742 178.312C272.492 178.505 272.263 178.656 272.055 178.766L271.695 178.242C271.945 178.086 272.169 177.93 272.367 177.773C272.565 177.617 272.727 177.461 272.852 177.305C273.008 177.122 273.141 176.924 273.25 176.711C273.359 176.497 273.43 176.255 273.461 175.984H273.062C272.714 175.984 272.44 175.893 272.242 175.711C272.049 175.529 271.953 175.284 271.953 174.977C271.953 174.758 272.042 174.547 272.219 174.344C272.396 174.135 272.638 174.031 272.945 174.031C273.393 174.031 273.729 174.182 273.953 174.484C274.177 174.781 274.289 175.195 274.289 175.727ZM285.906 164.102L280.508 179.312H279.492L284.875 164.102H285.906ZM295.013 167.424V168.256L293.733 168.544V174.896L295.013 175.168V176H291.045V175.168L292.325 174.896V168.544L291.045 168.256V167.424H295.013ZM304.664 176H300.891V175.484C301.01 175.474 301.141 175.464 301.281 175.453C301.427 175.443 301.547 175.422 301.641 175.391C301.786 175.344 301.893 175.263 301.961 175.148C302.034 175.029 302.07 174.875 302.07 174.688V170.727C302.07 170.18 301.94 169.758 301.68 169.461C301.424 169.164 301.112 169.016 300.742 169.016C300.466 169.016 300.214 169.06 299.984 169.148C299.755 169.232 299.552 169.336 299.375 169.461C299.203 169.581 299.065 169.711 298.961 169.852C298.862 169.987 298.789 170.096 298.742 170.18V174.609C298.742 174.786 298.779 174.932 298.852 175.047C298.924 175.161 299.034 175.25 299.18 175.312C299.289 175.365 299.406 175.404 299.531 175.43C299.661 175.456 299.794 175.474 299.93 175.484V176H296.156V175.484C296.276 175.474 296.398 175.464 296.523 175.453C296.654 175.443 296.766 175.422 296.859 175.391C297.005 175.344 297.112 175.263 297.18 175.148C297.253 175.029 297.289 174.875 297.289 174.688V169.93C297.289 169.753 297.25 169.591 297.172 169.445C297.099 169.294 296.995 169.172 296.859 169.078C296.76 169.016 296.643 168.971 296.508 168.945C296.372 168.914 296.227 168.893 296.07 168.883V168.375L298.633 168.203L298.742 168.312V169.398H298.781C298.906 169.273 299.062 169.125 299.25 168.953C299.438 168.776 299.615 168.633 299.781 168.523C299.974 168.398 300.203 168.294 300.469 168.211C300.734 168.128 301.034 168.086 301.367 168.086C302.107 168.086 302.654 168.318 303.008 168.781C303.367 169.24 303.547 169.852 303.547 170.617V174.625C303.547 174.807 303.578 174.956 303.641 175.07C303.703 175.18 303.81 175.266 303.961 175.328C304.086 175.38 304.193 175.417 304.281 175.438C304.375 175.458 304.503 175.474 304.664 175.484V176ZM306.967 163.84V168.064H305.687V163.84H306.967ZM316.609 175.859L313.922 176.031L313.805 175.922V175.203L313.742 175.188C313.471 175.49 313.135 175.737 312.734 175.93C312.339 176.122 311.93 176.219 311.508 176.219C311.07 176.219 310.646 176.122 310.234 175.93C309.828 175.732 309.474 175.456 309.172 175.102C308.865 174.742 308.62 174.31 308.438 173.805C308.26 173.299 308.172 172.742 308.172 172.133C308.172 171.576 308.268 171.047 308.461 170.547C308.654 170.047 308.919 169.609 309.258 169.234C309.576 168.885 309.964 168.607 310.422 168.398C310.885 168.19 311.357 168.086 311.836 168.086C312.195 168.086 312.547 168.133 312.891 168.227C313.24 168.315 313.539 168.43 313.789 168.57V165.891C313.789 165.672 313.753 165.474 313.68 165.297C313.607 165.115 313.505 164.977 313.375 164.883C313.229 164.784 313.031 164.714 312.781 164.672C312.536 164.625 312.271 164.591 311.984 164.57V164.086L315.133 163.906L315.25 164.023V174.414C315.25 174.596 315.284 174.753 315.352 174.883C315.424 175.008 315.529 175.115 315.664 175.203C315.763 175.266 315.906 175.305 316.094 175.32C316.281 175.336 316.453 175.346 316.609 175.352V175.859ZM313.789 174.508V170C313.747 169.865 313.68 169.719 313.586 169.562C313.492 169.406 313.375 169.263 313.234 169.133C313.083 169.003 312.906 168.896 312.703 168.812C312.5 168.724 312.263 168.68 311.992 168.68C311.68 168.68 311.391 168.76 311.125 168.922C310.865 169.083 310.633 169.315 310.43 169.617C310.237 169.909 310.083 170.281 309.969 170.734C309.859 171.182 309.805 171.68 309.805 172.227C309.805 172.664 309.846 173.062 309.93 173.422C310.013 173.776 310.154 174.107 310.352 174.414C310.534 174.706 310.766 174.94 311.047 175.117C311.333 175.294 311.672 175.383 312.062 175.383C312.479 175.383 312.823 175.292 313.094 175.109C313.37 174.927 313.602 174.727 313.789 174.508ZM323.789 167.424V168.448L320.285 172.352C321.01 172.395 321.672 172.56 322.269 172.848C322.866 173.125 323.341 173.525 323.693 174.048C324.045 174.56 324.221 175.205 324.221 175.984C324.221 176.741 324.045 177.408 323.693 177.984C323.352 178.571 322.861 179.024 322.221 179.344C321.592 179.675 320.845 179.84 319.981 179.84C319.565 179.84 319.176 179.819 318.813 179.776C318.45 179.733 318.12 179.669 317.821 179.584C317.522 179.499 317.256 179.397 317.021 179.28V178C317.373 178.171 317.81 178.325 318.333 178.464C318.856 178.603 319.426 178.672 320.045 178.672C320.6 178.672 321.08 178.565 321.485 178.352C321.901 178.139 322.226 177.829 322.461 177.424C322.696 177.029 322.813 176.56 322.813 176.016C322.813 175.419 322.674 174.933 322.397 174.56C322.13 174.187 321.757 173.915 321.277 173.744C320.797 173.563 320.232 173.472 319.581 173.472H318.637V172.496L322.141 168.608H317.245V167.424H323.789ZM332.836 172.07C332.836 172.612 332.75 173.146 332.578 173.672C332.406 174.193 332.161 174.635 331.844 175C331.484 175.417 331.068 175.727 330.594 175.93C330.12 176.133 329.589 176.234 329 176.234C328.51 176.234 328.044 176.143 327.602 175.961C327.159 175.773 326.766 175.503 326.422 175.148C326.083 174.799 325.812 174.375 325.609 173.875C325.411 173.37 325.312 172.805 325.312 172.18C325.312 170.977 325.661 169.992 326.359 169.227C327.062 168.461 327.982 168.078 329.117 168.078C330.195 168.078 331.083 168.443 331.781 169.172C332.484 169.896 332.836 170.862 332.836 172.07ZM331.219 172.086C331.219 171.695 331.18 171.284 331.102 170.852C331.023 170.414 330.906 170.044 330.75 169.742C330.583 169.419 330.365 169.161 330.094 168.969C329.823 168.771 329.492 168.672 329.102 168.672C328.701 168.672 328.357 168.771 328.07 168.969C327.789 169.167 327.56 169.438 327.383 169.781C327.216 170.099 327.099 170.461 327.031 170.867C326.964 171.273 326.93 171.667 326.93 172.047C326.93 172.547 326.969 173.01 327.047 173.438C327.13 173.859 327.26 174.237 327.438 174.57C327.615 174.904 327.836 175.167 328.102 175.359C328.372 175.547 328.706 175.641 329.102 175.641C329.753 175.641 330.268 175.326 330.648 174.695C331.029 174.065 331.219 173.195 331.219 172.086ZM338.207 176.16C337.449 176.16 336.772 176 336.175 175.68C335.588 175.349 335.124 174.885 334.783 174.288C334.441 173.68 334.271 172.96 334.271 172.128C334.271 171.595 334.335 171.115 334.463 170.688C334.591 170.261 334.777 169.877 335.023 169.536C335.279 169.184 335.588 168.869 335.951 168.592H333.871V167.424H337.647V168.528C337.135 168.763 336.687 169.195 336.303 169.824C335.919 170.443 335.727 171.211 335.727 172.128C335.727 172.971 335.924 173.659 336.319 174.192C336.724 174.725 337.364 174.992 338.239 174.992C338.815 174.992 339.289 174.875 339.663 174.64C340.036 174.395 340.308 174.053 340.479 173.616C340.66 173.179 340.751 172.677 340.751 172.112C340.751 171.568 340.66 171.051 340.479 170.56C340.297 170.069 340.057 169.643 339.759 169.28C339.471 168.917 339.156 168.667 338.815 168.528V167.424H342.591V168.592H340.511C340.884 168.891 341.193 169.221 341.439 169.584C341.695 169.947 341.887 170.341 342.015 170.768C342.143 171.184 342.207 171.632 342.207 172.112C342.207 172.955 342.041 173.68 341.711 174.288C341.391 174.885 340.932 175.349 340.335 175.68C339.737 176 339.028 176.16 338.207 176.16ZM353.734 164.102L348.336 179.312H347.32L352.703 164.102H353.734Z" fill="black"/>
</svg>
