<svg width="662" height="455" viewBox="0 0 662 455" fill="none" xmlns="http://www.w3.org/2000/svg">
<rect x="140" y="208" width="70" height="12" rx="6" fill="#E7E5E4"/>
<rect x="140" y="344" width="70" height="12" rx="6" fill="#E7E5E4"/>
<rect x="156" y="232" width="224" height="12" rx="6" fill="#E7E5E4"/>
<rect x="156" y="368" width="329" height="12" rx="6" fill="#E7E5E4"/>
<rect x="156" y="256" width="127" height="12" rx="6" fill="#E7E5E4"/>
<rect x="156" y="392" width="187" height="12" rx="6" fill="#E7E5E4"/>
<rect x="156" y="280" width="163" height="12" rx="6" fill="#E7E5E4"/>
<rect x="156" y="416" width="354" height="12" rx="6" fill="#E7E5E4"/>
<rect x="156" y="304" width="273" height="12" rx="6" fill="#E7E5E4"/>
<rect x="156" y="440" width="273" height="12" rx="6" fill="#E7E5E4"/>
<rect x="88" y="92" width="169" height="36" rx="18" fill="#D6D3D1"/>
<path d="M113.461 112.703L112.469 116H103.805L103.922 115.484C104.052 115.474 104.237 115.456 104.477 115.43C104.716 115.404 104.891 115.37 105 115.328C105.188 115.255 105.328 115.151 105.422 115.016C105.521 114.875 105.589 114.714 105.625 114.531L107.477 106.516C107.487 106.469 107.495 106.422 107.5 106.375C107.51 106.323 107.516 106.273 107.516 106.227C107.516 106.122 107.492 106.029 107.445 105.945C107.404 105.857 107.326 105.781 107.211 105.719C107.107 105.656 106.953 105.596 106.75 105.539C106.552 105.482 106.383 105.445 106.242 105.43L106.359 104.914H111.039L110.922 105.43C110.802 105.435 110.628 105.458 110.398 105.5C110.174 105.536 109.977 105.581 109.805 105.633C109.602 105.701 109.453 105.81 109.359 105.961C109.266 106.112 109.198 106.271 109.156 106.438L107.422 113.961C107.38 114.143 107.346 114.305 107.32 114.445C107.299 114.581 107.289 114.693 107.289 114.781C107.289 115.068 107.404 115.247 107.633 115.32C107.867 115.393 108.292 115.43 108.906 115.43C109.25 115.43 109.641 115.401 110.078 115.344C110.521 115.281 110.828 115.172 111 115.016C111.266 114.781 111.599 114.419 112 113.93C112.406 113.435 112.708 113.026 112.906 112.703H113.461ZM119.094 114.969H119.039C118.924 115.062 118.786 115.182 118.625 115.328C118.469 115.469 118.284 115.604 118.07 115.734C117.867 115.865 117.646 115.977 117.406 116.07C117.167 116.169 116.906 116.219 116.625 116.219C115.87 116.219 115.276 115.948 114.844 115.406C114.417 114.865 114.203 114.125 114.203 113.188C114.203 112.542 114.323 111.914 114.562 111.305C114.802 110.695 115.133 110.148 115.555 109.664C115.956 109.201 116.432 108.828 116.984 108.547C117.536 108.26 118.104 108.117 118.688 108.117C119.057 108.117 119.409 108.167 119.742 108.266C120.081 108.365 120.346 108.477 120.539 108.602L121.969 108.234L122.062 108.352L120.875 113.391C120.833 113.552 120.789 113.75 120.742 113.984C120.701 114.214 120.68 114.383 120.68 114.492C120.68 114.789 120.742 114.99 120.867 115.094C120.992 115.198 121.203 115.25 121.5 115.25C121.599 115.25 121.74 115.234 121.922 115.203C122.104 115.172 122.245 115.138 122.344 115.102L122.227 115.602C121.758 115.789 121.409 115.924 121.18 116.008C120.951 116.091 120.672 116.133 120.344 116.133C119.969 116.133 119.672 116.023 119.453 115.805C119.234 115.586 119.115 115.307 119.094 114.969ZM120.211 110.031C120.211 109.859 120.193 109.695 120.156 109.539C120.12 109.383 120.044 109.237 119.93 109.102C119.826 108.971 119.682 108.867 119.5 108.789C119.318 108.711 119.089 108.672 118.812 108.672C118.432 108.672 118.062 108.797 117.703 109.047C117.344 109.297 117.021 109.633 116.734 110.055C116.464 110.451 116.242 110.93 116.07 111.492C115.898 112.055 115.812 112.625 115.812 113.203C115.812 113.521 115.831 113.802 115.867 114.047C115.904 114.292 115.974 114.516 116.078 114.719C116.177 114.917 116.32 115.07 116.508 115.18C116.695 115.289 116.932 115.344 117.219 115.344C117.51 115.344 117.815 115.263 118.133 115.102C118.456 114.935 118.818 114.646 119.219 114.234L120.211 110.031ZM131.805 115.094L131.688 115.594C131.219 115.781 130.854 115.917 130.594 116C130.333 116.089 130.07 116.133 129.805 116.133C129.388 116.133 129.076 116.026 128.867 115.812C128.659 115.594 128.555 115.326 128.555 115.008C128.555 114.893 128.565 114.768 128.586 114.633C128.607 114.492 128.641 114.328 128.688 114.141L129.453 111.227C129.51 111.003 129.555 110.799 129.586 110.617C129.622 110.435 129.641 110.289 129.641 110.18C129.641 109.831 129.557 109.555 129.391 109.352C129.224 109.148 128.977 109.047 128.648 109.047C128.331 109.047 127.974 109.151 127.578 109.359C127.182 109.568 126.81 109.87 126.461 110.266L125.141 116H123.688L124.852 110.938C124.878 110.812 124.914 110.633 124.961 110.398C125.013 110.159 125.039 109.966 125.039 109.82C125.039 109.529 124.99 109.333 124.891 109.234C124.792 109.135 124.594 109.086 124.297 109.086C124.182 109.086 124.036 109.107 123.859 109.148C123.682 109.185 123.544 109.216 123.445 109.242L123.562 108.742C123.969 108.56 124.328 108.424 124.641 108.336C124.953 108.247 125.221 108.203 125.445 108.203C125.857 108.203 126.151 108.315 126.328 108.539C126.505 108.763 126.599 109.073 126.609 109.469H126.656C127.229 109.01 127.724 108.672 128.141 108.453C128.557 108.229 129.031 108.117 129.562 108.117C130.062 108.117 130.453 108.263 130.734 108.555C131.016 108.841 131.156 109.219 131.156 109.688C131.156 109.781 131.141 109.948 131.109 110.188C131.083 110.427 131.039 110.664 130.977 110.898L130.32 113.406C130.273 113.573 130.227 113.766 130.18 113.984C130.138 114.198 130.117 114.365 130.117 114.484C130.117 114.781 130.182 114.984 130.312 115.094C130.443 115.198 130.656 115.25 130.953 115.25C131.052 115.25 131.193 115.234 131.375 115.203C131.562 115.167 131.706 115.13 131.805 115.094ZM137.805 114.945L137.75 114.93C137.646 115.013 137.497 115.13 137.305 115.281C137.117 115.432 136.919 115.565 136.711 115.68C136.471 115.82 136.229 115.935 135.984 116.023C135.74 116.112 135.469 116.156 135.172 116.156C134.417 116.156 133.833 115.891 133.422 115.359C133.016 114.823 132.812 114.086 132.812 113.148C132.812 112.503 132.93 111.875 133.164 111.266C133.404 110.656 133.729 110.115 134.141 109.641C134.536 109.182 135.01 108.815 135.562 108.539C136.115 108.258 136.693 108.117 137.297 108.117C137.672 108.117 138.026 108.167 138.359 108.266C138.693 108.359 138.961 108.471 139.164 108.602L140.594 108.234L140.688 108.352L139.375 114.508C139.177 115.44 138.922 116.227 138.609 116.867C138.302 117.513 137.945 118.023 137.539 118.398C137.122 118.784 136.661 119.057 136.156 119.219C135.656 119.385 135.089 119.469 134.453 119.469C134.021 119.469 133.667 119.435 133.391 119.367C133.12 119.299 132.906 119.211 132.75 119.102C132.594 118.992 132.487 118.867 132.43 118.727C132.378 118.591 132.352 118.461 132.352 118.336C132.352 118.102 132.422 117.904 132.562 117.742C132.703 117.586 132.896 117.508 133.141 117.508C133.333 117.508 133.497 117.562 133.633 117.672C133.768 117.786 133.878 117.909 133.961 118.039C134.049 118.174 134.135 118.336 134.219 118.523C134.302 118.711 134.365 118.852 134.406 118.945H134.641C134.927 118.945 135.234 118.88 135.562 118.75C135.891 118.62 136.19 118.409 136.461 118.117C136.737 117.815 136.995 117.409 137.234 116.898C137.474 116.393 137.664 115.742 137.805 114.945ZM138.852 109.953C138.852 109.807 138.828 109.659 138.781 109.508C138.74 109.352 138.659 109.208 138.539 109.078C138.424 108.953 138.279 108.854 138.102 108.781C137.924 108.708 137.698 108.672 137.422 108.672C137.021 108.672 136.641 108.794 136.281 109.039C135.927 109.279 135.607 109.609 135.32 110.031C135.055 110.427 134.839 110.906 134.672 111.469C134.505 112.031 134.422 112.596 134.422 113.164C134.422 113.471 134.443 113.755 134.484 114.016C134.531 114.271 134.609 114.495 134.719 114.688C134.828 114.88 134.971 115.031 135.148 115.141C135.331 115.245 135.565 115.297 135.852 115.297C136.216 115.297 136.578 115.193 136.938 114.984C137.297 114.771 137.638 114.5 137.961 114.172L138.852 109.953ZM146.961 114.906H146.914C146.674 115.099 146.445 115.276 146.227 115.438C146.008 115.599 145.792 115.734 145.578 115.844C145.328 115.969 145.102 116.057 144.898 116.109C144.695 116.167 144.43 116.195 144.102 116.195C143.602 116.195 143.214 116.052 142.938 115.766C142.661 115.474 142.523 115.094 142.523 114.625C142.523 114.5 142.534 114.352 142.555 114.18C142.576 114.008 142.625 113.753 142.703 113.414L143.312 110.938C143.365 110.708 143.406 110.505 143.438 110.328C143.474 110.151 143.492 109.982 143.492 109.82C143.492 109.529 143.443 109.336 143.344 109.242C143.25 109.143 143.055 109.094 142.758 109.094C142.643 109.094 142.497 109.115 142.32 109.156C142.143 109.198 142.005 109.232 141.906 109.258L142.023 108.758C142.43 108.576 142.786 108.438 143.094 108.344C143.406 108.25 143.656 108.203 143.844 108.203C144.26 108.203 144.565 108.302 144.758 108.5C144.956 108.693 145.055 108.969 145.055 109.328C145.055 109.422 145.044 109.549 145.023 109.711C145.003 109.872 144.971 110.034 144.93 110.195L144.234 113.086C144.182 113.305 144.138 113.51 144.102 113.703C144.07 113.891 144.055 114.034 144.055 114.133C144.055 114.482 144.13 114.758 144.281 114.961C144.432 115.164 144.672 115.266 145 115.266C145.333 115.266 145.674 115.18 146.023 115.008C146.378 114.831 146.732 114.565 147.086 114.211L148.453 108.328L149.812 108.234L149.906 108.352L148.742 113.383C148.69 113.596 148.643 113.812 148.602 114.031C148.56 114.245 148.539 114.396 148.539 114.484C148.539 114.781 148.602 114.984 148.727 115.094C148.857 115.198 149.07 115.25 149.367 115.25C149.466 115.25 149.607 115.234 149.789 115.203C149.971 115.172 150.112 115.138 150.211 115.102L150.094 115.602C149.661 115.779 149.299 115.911 149.008 116C148.721 116.089 148.456 116.133 148.211 116.133C147.789 116.133 147.474 116.01 147.266 115.766C147.062 115.521 146.961 115.234 146.961 114.906ZM156.078 114.969H156.023C155.909 115.062 155.771 115.182 155.609 115.328C155.453 115.469 155.268 115.604 155.055 115.734C154.852 115.865 154.63 115.977 154.391 116.07C154.151 116.169 153.891 116.219 153.609 116.219C152.854 116.219 152.26 115.948 151.828 115.406C151.401 114.865 151.188 114.125 151.188 113.188C151.188 112.542 151.307 111.914 151.547 111.305C151.786 110.695 152.117 110.148 152.539 109.664C152.94 109.201 153.417 108.828 153.969 108.547C154.521 108.26 155.089 108.117 155.672 108.117C156.042 108.117 156.393 108.167 156.727 108.266C157.065 108.365 157.331 108.477 157.523 108.602L158.953 108.234L159.047 108.352L157.859 113.391C157.818 113.552 157.773 113.75 157.727 113.984C157.685 114.214 157.664 114.383 157.664 114.492C157.664 114.789 157.727 114.99 157.852 115.094C157.977 115.198 158.188 115.25 158.484 115.25C158.583 115.25 158.724 115.234 158.906 115.203C159.089 115.172 159.229 115.138 159.328 115.102L159.211 115.602C158.742 115.789 158.393 115.924 158.164 116.008C157.935 116.091 157.656 116.133 157.328 116.133C156.953 116.133 156.656 116.023 156.438 115.805C156.219 115.586 156.099 115.307 156.078 114.969ZM157.195 110.031C157.195 109.859 157.177 109.695 157.141 109.539C157.104 109.383 157.029 109.237 156.914 109.102C156.81 108.971 156.667 108.867 156.484 108.789C156.302 108.711 156.073 108.672 155.797 108.672C155.417 108.672 155.047 108.797 154.688 109.047C154.328 109.297 154.005 109.633 153.719 110.055C153.448 110.451 153.227 110.93 153.055 111.492C152.883 112.055 152.797 112.625 152.797 113.203C152.797 113.521 152.815 113.802 152.852 114.047C152.888 114.292 152.958 114.516 153.062 114.719C153.161 114.917 153.305 115.07 153.492 115.18C153.68 115.289 153.917 115.344 154.203 115.344C154.495 115.344 154.799 115.263 155.117 115.102C155.44 114.935 155.802 114.646 156.203 114.234L157.195 110.031ZM165.352 114.945L165.297 114.93C165.193 115.013 165.044 115.13 164.852 115.281C164.664 115.432 164.466 115.565 164.258 115.68C164.018 115.82 163.776 115.935 163.531 116.023C163.286 116.112 163.016 116.156 162.719 116.156C161.964 116.156 161.38 115.891 160.969 115.359C160.562 114.823 160.359 114.086 160.359 113.148C160.359 112.503 160.477 111.875 160.711 111.266C160.951 110.656 161.276 110.115 161.688 109.641C162.083 109.182 162.557 108.815 163.109 108.539C163.661 108.258 164.24 108.117 164.844 108.117C165.219 108.117 165.573 108.167 165.906 108.266C166.24 108.359 166.508 108.471 166.711 108.602L168.141 108.234L168.234 108.352L166.922 114.508C166.724 115.44 166.469 116.227 166.156 116.867C165.849 117.513 165.492 118.023 165.086 118.398C164.669 118.784 164.208 119.057 163.703 119.219C163.203 119.385 162.635 119.469 162 119.469C161.568 119.469 161.214 119.435 160.938 119.367C160.667 119.299 160.453 119.211 160.297 119.102C160.141 118.992 160.034 118.867 159.977 118.727C159.924 118.591 159.898 118.461 159.898 118.336C159.898 118.102 159.969 117.904 160.109 117.742C160.25 117.586 160.443 117.508 160.688 117.508C160.88 117.508 161.044 117.562 161.18 117.672C161.315 117.786 161.424 117.909 161.508 118.039C161.596 118.174 161.682 118.336 161.766 118.523C161.849 118.711 161.911 118.852 161.953 118.945H162.188C162.474 118.945 162.781 118.88 163.109 118.75C163.438 118.62 163.737 118.409 164.008 118.117C164.284 117.815 164.542 117.409 164.781 116.898C165.021 116.393 165.211 115.742 165.352 114.945ZM166.398 109.953C166.398 109.807 166.375 109.659 166.328 109.508C166.286 109.352 166.206 109.208 166.086 109.078C165.971 108.953 165.826 108.854 165.648 108.781C165.471 108.708 165.245 108.672 164.969 108.672C164.568 108.672 164.188 108.794 163.828 109.039C163.474 109.279 163.154 109.609 162.867 110.031C162.602 110.427 162.385 110.906 162.219 111.469C162.052 112.031 161.969 112.596 161.969 113.164C161.969 113.471 161.99 113.755 162.031 114.016C162.078 114.271 162.156 114.495 162.266 114.688C162.375 114.88 162.518 115.031 162.695 115.141C162.878 115.245 163.112 115.297 163.398 115.297C163.763 115.297 164.125 115.193 164.484 114.984C164.844 114.771 165.185 114.5 165.508 114.172L166.398 109.953ZM176.219 109.742C176.219 110.294 176.044 110.768 175.695 111.164C175.352 111.56 174.849 111.875 174.188 112.109C173.703 112.286 173.214 112.43 172.719 112.539C172.224 112.648 171.677 112.74 171.078 112.812C171.078 113.635 171.229 114.266 171.531 114.703C171.839 115.135 172.286 115.352 172.875 115.352C173.396 115.352 173.854 115.221 174.25 114.961C174.651 114.701 175.044 114.312 175.43 113.797L175.875 114.125C175.458 114.76 174.938 115.268 174.312 115.648C173.688 116.029 173.039 116.219 172.367 116.219C171.445 116.219 170.74 115.961 170.25 115.445C169.766 114.93 169.523 114.198 169.523 113.25C169.523 112.594 169.625 111.969 169.828 111.375C170.036 110.776 170.339 110.229 170.734 109.734C171.12 109.25 171.591 108.859 172.148 108.562C172.711 108.266 173.331 108.117 174.008 108.117C174.758 108.117 175.312 108.271 175.672 108.578C176.036 108.88 176.219 109.268 176.219 109.742ZM174.781 109.547C174.781 109.344 174.753 109.185 174.695 109.07C174.638 108.951 174.565 108.862 174.477 108.805C174.383 108.742 174.284 108.703 174.18 108.688C174.076 108.672 173.969 108.664 173.859 108.664C173.234 108.664 172.656 109.008 172.125 109.695C171.599 110.383 171.266 111.24 171.125 112.266C171.49 112.214 171.901 112.141 172.359 112.047C172.818 111.948 173.198 111.82 173.5 111.664C173.932 111.44 174.253 111.154 174.461 110.805C174.674 110.451 174.781 110.031 174.781 109.547ZM181.312 109.336C181.312 109.628 181.206 109.878 180.992 110.086C180.784 110.294 180.534 110.398 180.242 110.398C179.951 110.398 179.698 110.294 179.484 110.086C179.276 109.878 179.172 109.628 179.172 109.336C179.172 109.044 179.276 108.794 179.484 108.586C179.693 108.372 179.945 108.266 180.242 108.266C180.539 108.266 180.792 108.372 181 108.586C181.208 108.794 181.312 109.044 181.312 109.336ZM180.023 115.102C180.023 115.393 179.917 115.643 179.703 115.852C179.495 116.055 179.245 116.156 178.953 116.156C178.661 116.156 178.409 116.055 178.195 115.852C177.987 115.643 177.883 115.393 177.883 115.102C177.883 114.81 177.987 114.56 178.195 114.352C178.409 114.138 178.661 114.031 178.953 114.031C179.245 114.031 179.495 114.138 179.703 114.352C179.917 114.56 180.023 114.81 180.023 115.102ZM197.375 104.914L196.758 107.586H196.172C196.141 107.034 196.023 106.57 195.82 106.195C195.622 105.82 195.354 105.607 195.016 105.555C194.859 105.534 194.669 105.518 194.445 105.508C194.221 105.497 193.969 105.492 193.688 105.492H191.906L190.883 109.953H192.133C192.518 109.953 192.818 109.917 193.031 109.844C193.245 109.766 193.435 109.638 193.602 109.461C193.758 109.305 193.909 109.091 194.055 108.82C194.201 108.544 194.305 108.312 194.367 108.125H194.953L193.953 112.461H193.375C193.375 112.404 193.378 112.336 193.383 112.258C193.393 112.174 193.398 112.086 193.398 111.992C193.398 111.799 193.385 111.615 193.359 111.438C193.333 111.26 193.297 111.13 193.25 111.047C193.141 110.844 192.984 110.711 192.781 110.648C192.578 110.586 192.312 110.555 191.984 110.555H190.734L189.961 113.938C189.93 114.062 189.904 114.198 189.883 114.344C189.862 114.49 189.852 114.604 189.852 114.688C189.852 114.974 189.953 115.164 190.156 115.258C190.365 115.352 190.82 115.398 191.523 115.398C192.398 115.398 192.992 115.367 193.305 115.305C193.617 115.242 193.849 115.151 194 115.031C194.297 114.792 194.643 114.409 195.039 113.883C195.44 113.357 195.708 112.974 195.844 112.734H196.406L195.445 116H186.242L186.359 115.484C186.521 115.474 186.734 115.453 187 115.422C187.266 115.385 187.445 115.349 187.539 115.312C187.721 115.245 187.859 115.143 187.953 115.008C188.052 114.872 188.12 114.714 188.156 114.531L190.016 106.484C190.026 106.443 190.034 106.396 190.039 106.344C190.049 106.292 190.055 106.242 190.055 106.195C190.055 106.091 190.031 105.997 189.984 105.914C189.943 105.831 189.865 105.76 189.75 105.703C189.625 105.635 189.448 105.576 189.219 105.523C188.99 105.471 188.81 105.44 188.68 105.43L188.797 104.914H197.375ZM205.961 115.094L205.844 115.594C205.375 115.781 205.01 115.917 204.75 116C204.49 116.089 204.227 116.133 203.961 116.133C203.544 116.133 203.232 116.026 203.023 115.812C202.815 115.594 202.711 115.326 202.711 115.008C202.711 114.893 202.721 114.768 202.742 114.633C202.763 114.492 202.797 114.328 202.844 114.141L203.609 111.227C203.667 111.003 203.711 110.799 203.742 110.617C203.779 110.435 203.797 110.289 203.797 110.18C203.797 109.831 203.714 109.555 203.547 109.352C203.38 109.148 203.133 109.047 202.805 109.047C202.487 109.047 202.13 109.151 201.734 109.359C201.339 109.568 200.966 109.87 200.617 110.266L199.297 116H197.844L199.008 110.938C199.034 110.812 199.07 110.633 199.117 110.398C199.169 110.159 199.195 109.966 199.195 109.82C199.195 109.529 199.146 109.333 199.047 109.234C198.948 109.135 198.75 109.086 198.453 109.086C198.339 109.086 198.193 109.107 198.016 109.148C197.839 109.185 197.701 109.216 197.602 109.242L197.719 108.742C198.125 108.56 198.484 108.424 198.797 108.336C199.109 108.247 199.378 108.203 199.602 108.203C200.013 108.203 200.307 108.315 200.484 108.539C200.661 108.763 200.755 109.073 200.766 109.469H200.812C201.385 109.01 201.88 108.672 202.297 108.453C202.714 108.229 203.188 108.117 203.719 108.117C204.219 108.117 204.609 108.263 204.891 108.555C205.172 108.841 205.312 109.219 205.312 109.688C205.312 109.781 205.297 109.948 205.266 110.188C205.24 110.427 205.195 110.664 205.133 110.898L204.477 113.406C204.43 113.573 204.383 113.766 204.336 113.984C204.294 114.198 204.273 114.365 204.273 114.484C204.273 114.781 204.339 114.984 204.469 115.094C204.599 115.198 204.812 115.25 205.109 115.25C205.208 115.25 205.349 115.234 205.531 115.203C205.719 115.167 205.862 115.13 205.961 115.094ZM211.961 114.945L211.906 114.93C211.802 115.013 211.654 115.13 211.461 115.281C211.273 115.432 211.076 115.565 210.867 115.68C210.628 115.82 210.385 115.935 210.141 116.023C209.896 116.112 209.625 116.156 209.328 116.156C208.573 116.156 207.99 115.891 207.578 115.359C207.172 114.823 206.969 114.086 206.969 113.148C206.969 112.503 207.086 111.875 207.32 111.266C207.56 110.656 207.885 110.115 208.297 109.641C208.693 109.182 209.167 108.815 209.719 108.539C210.271 108.258 210.849 108.117 211.453 108.117C211.828 108.117 212.182 108.167 212.516 108.266C212.849 108.359 213.117 108.471 213.32 108.602L214.75 108.234L214.844 108.352L213.531 114.508C213.333 115.44 213.078 116.227 212.766 116.867C212.458 117.513 212.102 118.023 211.695 118.398C211.279 118.784 210.818 119.057 210.312 119.219C209.812 119.385 209.245 119.469 208.609 119.469C208.177 119.469 207.823 119.435 207.547 119.367C207.276 119.299 207.062 119.211 206.906 119.102C206.75 118.992 206.643 118.867 206.586 118.727C206.534 118.591 206.508 118.461 206.508 118.336C206.508 118.102 206.578 117.904 206.719 117.742C206.859 117.586 207.052 117.508 207.297 117.508C207.49 117.508 207.654 117.562 207.789 117.672C207.924 117.786 208.034 117.909 208.117 118.039C208.206 118.174 208.292 118.336 208.375 118.523C208.458 118.711 208.521 118.852 208.562 118.945H208.797C209.083 118.945 209.391 118.88 209.719 118.75C210.047 118.62 210.346 118.409 210.617 118.117C210.893 117.815 211.151 117.409 211.391 116.898C211.63 116.393 211.82 115.742 211.961 114.945ZM213.008 109.953C213.008 109.807 212.984 109.659 212.938 109.508C212.896 109.352 212.815 109.208 212.695 109.078C212.581 108.953 212.435 108.854 212.258 108.781C212.081 108.708 211.854 108.672 211.578 108.672C211.177 108.672 210.797 108.794 210.438 109.039C210.083 109.279 209.763 109.609 209.477 110.031C209.211 110.427 208.995 110.906 208.828 111.469C208.661 112.031 208.578 112.596 208.578 113.164C208.578 113.471 208.599 113.755 208.641 114.016C208.688 114.271 208.766 114.495 208.875 114.688C208.984 114.88 209.128 115.031 209.305 115.141C209.487 115.245 209.721 115.297 210.008 115.297C210.372 115.297 210.734 115.193 211.094 114.984C211.453 114.771 211.794 114.5 212.117 114.172L213.008 109.953ZM220.281 104.023L218.102 113.43C218.055 113.628 218.01 113.826 217.969 114.023C217.927 114.221 217.906 114.383 217.906 114.508C217.906 114.805 217.971 115.008 218.102 115.117C218.237 115.227 218.453 115.281 218.75 115.281C218.854 115.281 219.008 115.268 219.211 115.242C219.419 115.216 219.576 115.185 219.68 115.148L219.562 115.648C219.094 115.836 218.732 115.969 218.477 116.047C218.227 116.125 217.943 116.164 217.625 116.164C217.208 116.164 216.891 116.057 216.672 115.844C216.458 115.625 216.352 115.357 216.352 115.039C216.352 114.919 216.362 114.794 216.383 114.664C216.409 114.534 216.443 114.37 216.484 114.172L218.383 105.945C218.419 105.784 218.443 105.672 218.453 105.609C218.469 105.547 218.477 105.469 218.477 105.375C218.477 105.188 218.445 105.044 218.383 104.945C218.32 104.841 218.232 104.763 218.117 104.711C218.008 104.664 217.87 104.633 217.703 104.617C217.536 104.602 217.367 104.583 217.195 104.562L217.305 104.086L220.203 103.906L220.281 104.023ZM224.461 115.148L224.344 115.648C223.865 115.841 223.482 115.974 223.195 116.047C222.909 116.125 222.664 116.164 222.461 116.164C222.044 116.164 221.732 116.057 221.523 115.844C221.315 115.625 221.211 115.357 221.211 115.039C221.211 114.919 221.221 114.794 221.242 114.664C221.263 114.534 221.297 114.37 221.344 114.172L222.172 110.852C222.214 110.669 222.253 110.474 222.289 110.266C222.331 110.057 222.352 109.88 222.352 109.734C222.352 109.443 222.302 109.25 222.203 109.156C222.109 109.057 221.914 109.008 221.617 109.008C221.503 109.008 221.349 109.026 221.156 109.062C220.969 109.099 220.826 109.13 220.727 109.156L220.844 108.656C221.25 108.474 221.615 108.339 221.938 108.25C222.26 108.161 222.516 108.117 222.703 108.117C223.13 108.117 223.44 108.219 223.633 108.422C223.826 108.625 223.922 108.898 223.922 109.242C223.922 109.336 223.911 109.464 223.891 109.625C223.87 109.786 223.839 109.948 223.797 110.109L222.961 113.43C222.909 113.633 222.862 113.833 222.82 114.031C222.784 114.224 222.766 114.383 222.766 114.508C222.766 114.805 222.831 115.008 222.961 115.117C223.096 115.227 223.312 115.281 223.609 115.281C223.708 115.281 223.849 115.268 224.031 115.242C224.219 115.216 224.362 115.185 224.461 115.148ZM225.016 105.164C225.016 105.461 224.919 105.721 224.727 105.945C224.534 106.164 224.294 106.273 224.008 106.273C223.742 106.273 223.513 106.169 223.32 105.961C223.128 105.747 223.031 105.505 223.031 105.234C223.031 104.948 223.128 104.698 223.32 104.484C223.513 104.271 223.742 104.164 224.008 104.164C224.305 104.164 224.547 104.266 224.734 104.469C224.922 104.667 225.016 104.898 225.016 105.164ZM227.75 116.227C226.979 116.227 226.336 116.091 225.82 115.82C225.31 115.544 225.055 115.185 225.055 114.742C225.055 114.534 225.13 114.339 225.281 114.156C225.432 113.974 225.617 113.883 225.836 113.883C226.044 113.883 226.211 113.932 226.336 114.031C226.466 114.125 226.568 114.237 226.641 114.367C226.719 114.503 226.786 114.664 226.844 114.852C226.906 115.039 226.958 115.193 227 115.312C227.078 115.401 227.185 115.484 227.32 115.562C227.461 115.635 227.661 115.672 227.922 115.672C228.484 115.672 228.909 115.531 229.195 115.25C229.487 114.969 229.633 114.589 229.633 114.109C229.633 113.755 229.497 113.474 229.227 113.266C228.956 113.052 228.552 112.857 228.016 112.68C227.823 112.617 227.596 112.523 227.336 112.398C227.076 112.268 226.867 112.13 226.711 111.984C226.523 111.818 226.372 111.62 226.258 111.391C226.143 111.161 226.086 110.891 226.086 110.578C226.086 109.911 226.383 109.336 226.977 108.852C227.576 108.362 228.31 108.117 229.18 108.117C229.383 108.117 229.602 108.128 229.836 108.148C230.07 108.169 230.328 108.227 230.609 108.32C230.854 108.404 231.062 108.529 231.234 108.695C231.406 108.857 231.492 109.068 231.492 109.328C231.492 109.542 231.419 109.737 231.273 109.914C231.133 110.086 230.945 110.172 230.711 110.172C230.518 110.172 230.359 110.13 230.234 110.047C230.109 109.964 230.005 109.852 229.922 109.711C229.839 109.57 229.771 109.419 229.719 109.258C229.667 109.096 229.609 108.938 229.547 108.781C229.448 108.74 229.359 108.711 229.281 108.695C229.203 108.68 229.099 108.672 228.969 108.672C228.458 108.672 228.07 108.81 227.805 109.086C227.544 109.357 227.414 109.68 227.414 110.055C227.414 110.419 227.531 110.695 227.766 110.883C228.005 111.065 228.398 111.255 228.945 111.453C229.654 111.708 230.167 112 230.484 112.328C230.807 112.656 230.969 113.062 230.969 113.547C230.969 114.339 230.664 114.984 230.055 115.484C229.445 115.979 228.677 116.227 227.75 116.227ZM240.375 115.094L240.258 115.594C239.789 115.781 239.424 115.917 239.164 116C238.904 116.089 238.641 116.133 238.375 116.133C237.958 116.133 237.646 116.026 237.438 115.812C237.229 115.594 237.125 115.326 237.125 115.008C237.125 114.893 237.135 114.768 237.156 114.633C237.177 114.492 237.211 114.328 237.258 114.141L238.023 111.227C238.081 111.003 238.125 110.799 238.156 110.617C238.193 110.435 238.211 110.289 238.211 110.18C238.211 109.831 238.128 109.555 237.961 109.352C237.794 109.148 237.547 109.047 237.219 109.047C236.885 109.047 236.523 109.154 236.133 109.367C235.747 109.581 235.38 109.88 235.031 110.266L233.711 116H232.258L234.578 105.945C234.604 105.826 234.625 105.724 234.641 105.641C234.661 105.557 234.672 105.469 234.672 105.375C234.672 105.188 234.641 105.044 234.578 104.945C234.516 104.841 234.427 104.763 234.312 104.711C234.214 104.664 234.078 104.633 233.906 104.617C233.734 104.602 233.562 104.583 233.391 104.562L233.5 104.086L236.398 103.906L236.477 104.023L235.227 109.43H235.258C235.794 108.997 236.273 108.672 236.695 108.453C237.117 108.229 237.596 108.117 238.133 108.117C238.633 108.117 239.023 108.263 239.305 108.555C239.586 108.841 239.727 109.219 239.727 109.688C239.727 109.781 239.711 109.948 239.68 110.188C239.654 110.427 239.609 110.664 239.547 110.898L238.891 113.406C238.849 113.573 238.805 113.766 238.758 113.984C238.711 114.198 238.688 114.365 238.688 114.484C238.688 114.781 238.753 114.984 238.883 115.094C239.013 115.198 239.227 115.25 239.523 115.25C239.622 115.25 239.763 115.234 239.945 115.203C240.133 115.167 240.276 115.13 240.375 115.094Z" fill="black"/>
<rect x="88.5" y="24.5" width="485" height="47" fill="white"/>
<rect x="88.5" y="24.5" width="485" height="47" stroke="#78716C"/>
<path d="M121.531 56.4696L116.837 51.7765C118.197 50.1431 118.875 48.048 118.731 45.9272C118.586 43.8063 117.629 41.8229 116.059 40.3896C114.489 38.9562 112.427 38.1833 110.302 38.2316C108.177 38.2799 106.152 39.1457 104.649 40.6489C103.145 42.1521 102.28 44.1769 102.231 46.3021C102.183 48.4274 102.956 50.4894 104.389 52.0593C105.823 53.6293 107.806 54.5861 109.927 54.7309C112.048 54.8757 114.143 54.1973 115.776 52.8368L120.469 57.5308C120.539 57.6005 120.622 57.6558 120.713 57.6935C120.804 57.7312 120.901 57.7506 121 57.7506C121.099 57.7506 121.196 57.7312 121.287 57.6935C121.378 57.6558 121.461 57.6005 121.531 57.5308C121.6 57.4612 121.656 57.3784 121.693 57.2874C121.731 57.1963 121.75 57.0988 121.75 57.0002C121.75 56.9017 121.731 56.8041 121.693 56.713C121.656 56.622 121.6 56.5393 121.531 56.4696ZM103.75 46.5002C103.75 45.1652 104.146 43.8601 104.888 42.7501C105.629 41.6401 106.683 40.7749 107.917 40.264C109.15 39.7531 110.507 39.6195 111.817 39.8799C113.126 40.1404 114.329 40.7832 115.273 41.7272C116.217 42.6712 116.86 43.874 117.12 45.1834C117.381 46.4927 117.247 47.8499 116.736 49.0833C116.225 50.3167 115.36 51.3709 114.25 52.1126C113.14 52.8543 111.835 53.2502 110.5 53.2502C108.71 53.2482 106.995 52.5364 105.729 51.271C104.464 50.0056 103.752 48.2898 103.75 46.5002Z" fill="black"/>
<path d="M147.061 49.7832C147.327 50.0176 147.533 50.2878 147.676 50.5938C147.819 50.8997 147.891 51.2741 147.891 51.7168C147.891 52.6087 147.555 53.3379 146.885 53.9043C146.221 54.4707 145.358 54.7539 144.297 54.7539C143.737 54.7539 143.219 54.653 142.744 54.4512C142.275 54.2493 141.94 54.0638 141.738 53.8945L141.543 54.5293H140.811L140.713 51.1797H141.387C141.439 51.4336 141.549 51.7298 141.719 52.0684C141.888 52.4069 142.093 52.7129 142.334 52.9863C142.588 53.2728 142.891 53.5137 143.242 53.709C143.6 53.9043 144.001 54.002 144.443 54.002C145.068 54.002 145.55 53.862 145.889 53.582C146.227 53.2956 146.396 52.8887 146.396 52.3613C146.396 52.0879 146.341 51.8535 146.23 51.6582C146.126 51.4564 145.97 51.2806 145.762 51.1309C145.547 50.9811 145.283 50.8477 144.971 50.7305C144.658 50.6068 144.31 50.4863 143.926 50.3691C143.62 50.278 143.278 50.1543 142.9 49.998C142.529 49.8353 142.21 49.6465 141.943 49.4316C141.657 49.2038 141.423 48.9238 141.24 48.5918C141.058 48.2598 140.967 47.8691 140.967 47.4199C140.967 46.6322 141.26 45.9648 141.846 45.418C142.432 44.8711 143.216 44.5977 144.199 44.5977C144.577 44.5977 144.961 44.6465 145.352 44.7441C145.749 44.8418 146.071 44.959 146.318 45.0957L146.543 44.5879H147.246L147.393 47.6836H146.719C146.582 46.9935 146.286 46.4336 145.83 46.0039C145.381 45.5677 144.831 45.3496 144.18 45.3496C143.646 45.3496 143.226 45.4831 142.92 45.75C142.614 46.0169 142.461 46.3392 142.461 46.7168C142.461 47.0098 142.51 47.2539 142.607 47.4492C142.712 47.6445 142.865 47.8105 143.066 47.9473C143.262 48.0775 143.506 48.2012 143.799 48.3184C144.098 48.429 144.466 48.556 144.902 48.6992C145.332 48.8359 145.736 48.9954 146.113 49.1777C146.497 49.36 146.813 49.5618 147.061 49.7832ZM158.154 46.0137C158.538 46.4694 158.835 47 159.043 47.6055C159.258 48.2044 159.365 48.8913 159.365 49.666C159.365 50.4277 159.238 51.1243 158.984 51.7559C158.73 52.3809 158.395 52.9147 157.979 53.3574C157.542 53.8066 157.057 54.1517 156.523 54.3926C155.99 54.6335 155.423 54.7539 154.824 54.7539C154.245 54.7539 153.77 54.6888 153.398 54.5586C153.027 54.4284 152.725 54.2754 152.49 54.0996H152.412V56.9902C152.412 57.2246 152.458 57.4199 152.549 57.5762C152.64 57.7324 152.78 57.8464 152.969 57.918C153.125 57.9766 153.346 58.0319 153.633 58.084C153.926 58.1426 154.167 58.1751 154.355 58.1816V58.8359H148.975V58.1816C149.176 58.1686 149.372 58.1523 149.561 58.1328C149.749 58.1133 149.919 58.0807 150.068 58.0352C150.264 57.9701 150.4 57.8561 150.479 57.6934C150.557 57.5306 150.596 57.3385 150.596 57.1172V46.873C150.596 46.6777 150.547 46.4889 150.449 46.3066C150.352 46.1243 150.225 45.9779 150.068 45.8672C149.951 45.7891 149.788 45.7305 149.58 45.6914C149.372 45.6458 149.17 45.6165 148.975 45.6035V44.9688L152.256 44.7539L152.393 44.8711V45.9551L152.471 45.9746C152.809 45.584 153.229 45.2585 153.73 44.998C154.232 44.7376 154.73 44.6074 155.225 44.6074C155.824 44.6074 156.37 44.7344 156.865 44.9883C157.367 45.2422 157.796 45.584 158.154 46.0137ZM156.562 52.9375C156.823 52.5339 157.015 52.0651 157.139 51.5312C157.262 50.9974 157.324 50.4017 157.324 49.7441C157.324 49.2624 157.272 48.7708 157.168 48.2695C157.064 47.7682 156.901 47.332 156.68 46.9609C156.458 46.5833 156.169 46.2773 155.811 46.043C155.452 45.8086 155.023 45.6914 154.521 45.6914C154.04 45.6914 153.63 45.7988 153.291 46.0137C152.952 46.222 152.66 46.4727 152.412 46.7656V52.459C152.471 52.6348 152.565 52.8171 152.695 53.0059C152.832 53.1947 152.982 53.3574 153.145 53.4941C153.346 53.6569 153.564 53.7904 153.799 53.8945C154.033 53.9922 154.32 54.041 154.658 54.041C155.023 54.041 155.374 53.9466 155.713 53.7578C156.051 53.5625 156.335 53.2891 156.562 52.9375ZM169.902 54.3242C169.596 54.4349 169.326 54.5228 169.092 54.5879C168.864 54.6595 168.604 54.6953 168.311 54.6953C167.803 54.6953 167.396 54.5781 167.09 54.3438C166.79 54.1029 166.598 53.7546 166.514 53.2988H166.455C166.032 53.7676 165.576 54.1257 165.088 54.373C164.606 54.6204 164.023 54.7441 163.34 54.7441C162.617 54.7441 162.021 54.5228 161.553 54.0801C161.09 53.6374 160.859 53.0579 160.859 52.3418C160.859 51.9707 160.911 51.6387 161.016 51.3457C161.12 51.0527 161.276 50.7891 161.484 50.5547C161.647 50.3594 161.862 50.1868 162.129 50.0371C162.396 49.8809 162.646 49.7572 162.881 49.666C163.174 49.5553 163.766 49.3503 164.658 49.0508C165.557 48.7513 166.162 48.5169 166.475 48.3477V47.3809C166.475 47.2962 166.455 47.1335 166.416 46.8926C166.383 46.6517 166.309 46.4238 166.191 46.209C166.061 45.9681 165.876 45.7598 165.635 45.584C165.4 45.4017 165.065 45.3105 164.629 45.3105C164.329 45.3105 164.049 45.3626 163.789 45.4668C163.535 45.5645 163.356 45.6686 163.252 45.7793C163.252 45.9095 163.281 46.1016 163.34 46.3555C163.405 46.6094 163.438 46.8438 163.438 47.0586C163.438 47.2865 163.333 47.4948 163.125 47.6836C162.923 47.8724 162.64 47.9668 162.275 47.9668C161.95 47.9668 161.709 47.8529 161.553 47.625C161.403 47.3906 161.328 47.1302 161.328 46.8438C161.328 46.5443 161.432 46.2578 161.641 45.9844C161.855 45.7109 162.132 45.4668 162.471 45.252C162.764 45.0697 163.118 44.9167 163.535 44.793C163.952 44.6628 164.359 44.5977 164.756 44.5977C165.303 44.5977 165.778 44.6367 166.182 44.7148C166.592 44.7865 166.963 44.946 167.295 45.1934C167.627 45.4342 167.878 45.763 168.047 46.1797C168.223 46.5898 168.311 47.1204 168.311 47.7715C168.311 48.7025 168.301 49.5293 168.281 50.252C168.262 50.9681 168.252 51.7526 168.252 52.6055C168.252 52.8594 168.294 53.0612 168.379 53.2109C168.47 53.3607 168.607 53.4876 168.789 53.5918C168.887 53.6504 169.04 53.6829 169.248 53.6895C169.463 53.696 169.681 53.6992 169.902 53.6992V54.3242ZM166.494 49.168C165.941 49.3307 165.456 49.4902 165.039 49.6465C164.622 49.8027 164.235 49.998 163.877 50.2324C163.551 50.4538 163.294 50.7174 163.105 51.0234C162.917 51.3229 162.822 51.681 162.822 52.0977C162.822 52.638 162.962 53.0352 163.242 53.2891C163.529 53.543 163.89 53.6699 164.326 53.6699C164.788 53.6699 165.195 53.5592 165.547 53.3379C165.898 53.11 166.195 52.8431 166.436 52.5371L166.494 49.168ZM178.232 46.1113C178.232 46.4434 178.151 46.7396 177.988 47C177.826 47.2539 177.575 47.3809 177.236 47.3809C176.872 47.3809 176.592 47.2865 176.396 47.0977C176.208 46.9089 176.113 46.7005 176.113 46.4727C176.113 46.3294 176.123 46.1992 176.143 46.082C176.169 45.9648 176.191 45.8477 176.211 45.7305C175.905 45.7305 175.547 45.8542 175.137 46.1016C174.727 46.349 174.378 46.7005 174.092 47.1562V52.7617C174.092 52.9896 174.134 53.1751 174.219 53.3184C174.31 53.4616 174.45 53.569 174.639 53.6406C174.801 53.7057 175.01 53.7546 175.264 53.7871C175.524 53.8197 175.749 53.8424 175.938 53.8555V54.5H170.859V53.8555C171.009 53.8424 171.162 53.8294 171.318 53.8164C171.481 53.8034 171.621 53.7773 171.738 53.7383C171.921 53.6797 172.054 53.5788 172.139 53.4355C172.23 53.2858 172.275 53.0938 172.275 52.8594V46.9121C172.275 46.7103 172.227 46.5117 172.129 46.3164C172.038 46.1211 171.908 45.9648 171.738 45.8477C171.615 45.7695 171.468 45.7142 171.299 45.6816C171.13 45.6426 170.947 45.6165 170.752 45.6035V44.9688L173.955 44.7539L174.092 44.8906V46.248H174.141C174.544 45.7207 174.993 45.3203 175.488 45.0469C175.983 44.7734 176.436 44.6367 176.846 44.6367C177.256 44.6367 177.588 44.7702 177.842 45.0371C178.102 45.304 178.232 45.6621 178.232 46.1113ZM189.268 54.5H186.357C185.85 53.7643 185.306 52.9766 184.727 52.1367C184.147 51.2969 183.545 50.4798 182.92 49.6855L182.119 50.4375V52.7227C182.119 52.957 182.161 53.1523 182.246 53.3086C182.331 53.4583 182.467 53.569 182.656 53.6406C182.812 53.7057 182.962 53.7546 183.105 53.7871C183.249 53.8197 183.415 53.8424 183.604 53.8555V54.5H178.877V53.8555C179.027 53.8424 179.183 53.8294 179.346 53.8164C179.508 53.7969 179.645 53.7708 179.756 53.7383C179.938 53.6797 180.075 53.5788 180.166 53.4355C180.257 53.2858 180.303 53.0938 180.303 52.8594V41.668C180.303 41.4271 180.251 41.2025 180.146 40.9941C180.049 40.7793 179.919 40.6165 179.756 40.5059C179.619 40.4017 179.404 40.3333 179.111 40.3008C178.825 40.2682 178.594 40.2454 178.418 40.2324V39.6074L181.982 39.3828L182.119 39.5293V49.7148C182.627 49.207 183.174 48.6634 183.76 48.084C184.352 47.498 184.85 46.9772 185.254 46.5215C185.306 46.4629 185.361 46.388 185.42 46.2969C185.485 46.1992 185.518 46.1211 185.518 46.0625C185.518 45.8867 185.374 45.7565 185.088 45.6719C184.808 45.5872 184.538 45.5286 184.277 45.4961V44.8711H188.516V45.4766C187.969 45.6393 187.484 45.8444 187.061 46.0918C186.644 46.3327 186.325 46.5508 186.104 46.7461C185.947 46.8763 185.726 47.0879 185.439 47.3809C185.153 47.6738 184.753 48.0579 184.238 48.5332C184.772 49.1908 185.371 49.9785 186.035 50.8965C186.706 51.8145 187.194 52.4785 187.5 52.8887C187.786 53.2728 188.044 53.5234 188.271 53.6406C188.499 53.7578 188.831 53.8294 189.268 53.8555V54.5ZM194.297 54.5H189.6V53.8555C189.749 53.8424 189.909 53.8294 190.078 53.8164C190.247 53.7969 190.387 53.7708 190.498 53.7383C190.68 53.6797 190.817 53.5788 190.908 53.4355C190.999 53.2858 191.045 53.0938 191.045 52.8594V41.707C191.045 41.4727 190.993 41.2546 190.889 41.0527C190.791 40.8444 190.661 40.6816 190.498 40.5645C190.381 40.4863 190.166 40.4147 189.854 40.3496C189.541 40.2845 189.29 40.2454 189.102 40.2324V39.6074L192.725 39.3828L192.861 39.5293V52.7422C192.861 52.9701 192.904 53.1589 192.988 53.3086C193.073 53.4518 193.21 53.5625 193.398 53.6406C193.542 53.7057 193.682 53.7546 193.818 53.7871C193.962 53.8197 194.121 53.8424 194.297 53.8555V54.5ZM204.062 52.2344C203.659 53.0026 203.118 53.6146 202.441 54.0703C201.764 54.526 200.986 54.7539 200.107 54.7539C199.333 54.7539 198.652 54.6172 198.066 54.3438C197.487 54.0703 197.008 53.6992 196.631 53.2305C196.253 52.7617 195.97 52.2148 195.781 51.5898C195.599 50.9648 195.508 50.304 195.508 49.6074C195.508 48.9824 195.605 48.3704 195.801 47.7715C196.003 47.166 196.296 46.6224 196.68 46.1406C197.051 45.6784 197.51 45.3073 198.057 45.0273C198.61 44.7409 199.229 44.5977 199.912 44.5977C200.615 44.5977 201.217 44.7083 201.719 44.9297C202.22 45.151 202.627 45.4538 202.939 45.8379C203.239 46.2025 203.46 46.6322 203.604 47.127C203.753 47.6217 203.828 48.1589 203.828 48.7383V49.3828H197.451C197.451 50.0143 197.51 50.5872 197.627 51.1016C197.751 51.6159 197.943 52.0684 198.203 52.459C198.457 52.8366 198.789 53.1361 199.199 53.3574C199.609 53.5723 200.098 53.6797 200.664 53.6797C201.243 53.6797 201.742 53.5462 202.158 53.2793C202.581 53.0059 202.988 52.5176 203.379 51.8145L204.062 52.2344ZM201.904 48.5625C201.904 48.1979 201.872 47.8073 201.807 47.3906C201.748 46.974 201.65 46.6257 201.514 46.3457C201.364 46.0462 201.159 45.8021 200.898 45.6133C200.638 45.4245 200.303 45.3301 199.893 45.3301C199.209 45.3301 198.639 45.6165 198.184 46.1895C197.734 46.7559 197.49 47.5469 197.451 48.5625H201.904ZM211.533 49.7832C211.8 50.0176 212.005 50.2878 212.148 50.5938C212.292 50.8997 212.363 51.2741 212.363 51.7168C212.363 52.6087 212.028 53.3379 211.357 53.9043C210.693 54.4707 209.831 54.7539 208.77 54.7539C208.21 54.7539 207.692 54.653 207.217 54.4512C206.748 54.2493 206.413 54.0638 206.211 53.8945L206.016 54.5293H205.283L205.186 51.1797H205.859C205.911 51.4336 206.022 51.7298 206.191 52.0684C206.361 52.4069 206.566 52.7129 206.807 52.9863C207.061 53.2728 207.363 53.5137 207.715 53.709C208.073 53.9043 208.473 54.002 208.916 54.002C209.541 54.002 210.023 53.862 210.361 53.582C210.7 53.2956 210.869 52.8887 210.869 52.3613C210.869 52.0879 210.814 51.8535 210.703 51.6582C210.599 51.4564 210.443 51.2806 210.234 51.1309C210.02 50.9811 209.756 50.8477 209.443 50.7305C209.131 50.6068 208.783 50.4863 208.398 50.3691C208.092 50.278 207.751 50.1543 207.373 49.998C207.002 49.8353 206.683 49.6465 206.416 49.4316C206.13 49.2038 205.895 48.9238 205.713 48.5918C205.531 48.2598 205.439 47.8691 205.439 47.4199C205.439 46.6322 205.732 45.9648 206.318 45.418C206.904 44.8711 207.689 44.5977 208.672 44.5977C209.049 44.5977 209.434 44.6465 209.824 44.7441C210.221 44.8418 210.544 44.959 210.791 45.0957L211.016 44.5879H211.719L211.865 47.6836H211.191C211.055 46.9935 210.758 46.4336 210.303 46.0039C209.854 45.5677 209.303 45.3496 208.652 45.3496C208.118 45.3496 207.699 45.4831 207.393 45.75C207.087 46.0169 206.934 46.3392 206.934 46.7168C206.934 47.0098 206.982 47.2539 207.08 47.4492C207.184 47.6445 207.337 47.8105 207.539 47.9473C207.734 48.0775 207.979 48.2012 208.271 48.3184C208.571 48.429 208.939 48.556 209.375 48.6992C209.805 48.8359 210.208 48.9954 210.586 49.1777C210.97 49.36 211.286 49.5618 211.533 49.7832Z" fill="black"/>
<path d="M144.07 176.266C143.565 176.266 143.07 176.19 142.586 176.039C142.107 175.893 141.734 175.737 141.469 175.57L141.234 176.102H140.625L140.523 173.188H141.094C141.172 173.422 141.302 173.688 141.484 173.984C141.667 174.276 141.875 174.539 142.109 174.773C142.354 175.008 142.633 175.206 142.945 175.367C143.263 175.529 143.602 175.609 143.961 175.609C144.435 175.609 144.786 175.518 145.016 175.336C145.25 175.148 145.367 174.862 145.367 174.477C145.367 174.268 145.315 174.096 145.211 173.961C145.107 173.826 144.964 173.708 144.781 173.609C144.578 173.505 144.354 173.417 144.109 173.344C143.87 173.271 143.573 173.182 143.219 173.078C142.865 172.974 142.56 172.87 142.305 172.766C142.055 172.656 141.794 172.487 141.523 172.258C141.289 172.055 141.102 171.81 140.961 171.523C140.82 171.237 140.75 170.896 140.75 170.5C140.75 169.766 141.057 169.172 141.672 168.719C142.292 168.266 143.102 168.039 144.102 168.039C144.576 168.039 145.01 168.089 145.406 168.188C145.807 168.281 146.143 168.385 146.414 168.5L146.578 168.039H147.172L147.297 170.703H146.742C146.56 170.161 146.247 169.695 145.805 169.305C145.362 168.909 144.885 168.711 144.375 168.711C143.974 168.711 143.659 168.794 143.43 168.961C143.201 169.128 143.086 169.359 143.086 169.656C143.086 170.052 143.253 170.339 143.586 170.516C143.924 170.693 144.396 170.859 145 171.016C145.932 171.255 146.615 171.583 147.047 172C147.479 172.411 147.695 172.938 147.695 173.578C147.695 174.432 147.359 175.094 146.688 175.562C146.021 176.031 145.148 176.266 144.07 176.266ZM158.172 172.195C158.172 173.294 157.805 174.237 157.07 175.023C156.336 175.81 155.406 176.203 154.281 176.203C153.781 176.203 153.375 176.151 153.062 176.047C152.75 175.948 152.492 175.826 152.289 175.68H152.227V177.875C152.227 178.057 152.266 178.216 152.344 178.352C152.427 178.487 152.542 178.586 152.688 178.648C152.828 178.706 153.026 178.758 153.281 178.805C153.542 178.852 153.758 178.88 153.93 178.891V179.469H148.289V178.891C148.419 178.88 148.583 178.859 148.781 178.828C148.979 178.802 149.128 178.773 149.227 178.742C149.393 178.685 149.505 178.586 149.562 178.445C149.625 178.31 149.656 178.154 149.656 177.977V169.984C149.641 169.812 149.599 169.661 149.531 169.531C149.469 169.401 149.367 169.286 149.227 169.188C149.122 169.12 148.984 169.065 148.812 169.023C148.641 168.977 148.471 168.945 148.305 168.93V168.359L152.109 168.156L152.227 168.258V169.125L152.289 169.141C152.633 168.792 153.013 168.521 153.43 168.328C153.852 168.135 154.268 168.039 154.68 168.039C155.758 168.039 156.609 168.422 157.234 169.188C157.859 169.948 158.172 170.951 158.172 172.195ZM155.367 172.227C155.367 171.836 155.339 171.464 155.281 171.109C155.224 170.75 155.122 170.43 154.977 170.148C154.836 169.867 154.648 169.643 154.414 169.477C154.185 169.31 153.904 169.227 153.57 169.227C153.232 169.227 152.961 169.286 152.758 169.406C152.555 169.521 152.378 169.672 152.227 169.859V174.289C152.258 174.393 152.318 174.529 152.406 174.695C152.495 174.857 152.583 174.987 152.672 175.086C152.802 175.227 152.951 175.331 153.117 175.398C153.284 175.466 153.466 175.5 153.664 175.5C154.18 175.5 154.591 175.224 154.898 174.672C155.211 174.115 155.367 173.299 155.367 172.227ZM168.117 175.836C167.888 175.935 167.617 176.026 167.305 176.109C166.992 176.193 166.661 176.234 166.312 176.234C165.672 176.234 165.201 176.141 164.898 175.953C164.596 175.76 164.391 175.487 164.281 175.133H164.234C164.057 175.31 163.885 175.461 163.719 175.586C163.557 175.711 163.383 175.818 163.195 175.906C162.951 176.021 162.714 176.104 162.484 176.156C162.26 176.214 161.945 176.242 161.539 176.242C160.935 176.242 160.419 176.065 159.992 175.711C159.565 175.352 159.352 174.878 159.352 174.289C159.352 173.951 159.398 173.664 159.492 173.43C159.586 173.19 159.719 172.979 159.891 172.797C160.047 172.63 160.227 172.492 160.43 172.383C160.638 172.273 160.865 172.172 161.109 172.078C161.578 171.906 162.141 171.729 162.797 171.547C163.453 171.359 163.932 171.193 164.234 171.047V170.297C164.234 170.167 164.224 169.995 164.203 169.781C164.182 169.568 164.138 169.388 164.07 169.242C163.997 169.076 163.883 168.935 163.727 168.82C163.57 168.706 163.365 168.648 163.109 168.648C162.88 168.648 162.688 168.682 162.531 168.75C162.38 168.812 162.258 168.878 162.164 168.945C162.18 169.049 162.224 169.208 162.297 169.422C162.37 169.635 162.406 169.841 162.406 170.039C162.406 170.128 162.383 170.24 162.336 170.375C162.289 170.505 162.221 170.609 162.133 170.688C162.013 170.792 161.878 170.872 161.727 170.93C161.581 170.987 161.354 171.016 161.047 171.016C160.609 171.016 160.279 170.911 160.055 170.703C159.831 170.49 159.719 170.214 159.719 169.875C159.719 169.583 159.833 169.323 160.062 169.094C160.297 168.859 160.581 168.667 160.914 168.516C161.242 168.359 161.62 168.24 162.047 168.156C162.474 168.068 162.87 168.023 163.234 168.023C163.74 168.023 164.203 168.055 164.625 168.117C165.047 168.174 165.427 168.297 165.766 168.484C166.089 168.667 166.344 168.932 166.531 169.281C166.724 169.625 166.82 170.076 166.82 170.633C166.82 171.221 166.807 171.919 166.781 172.727C166.76 173.534 166.75 174.065 166.75 174.32C166.75 174.555 166.784 174.74 166.852 174.875C166.924 175.01 167.034 175.112 167.18 175.18C167.268 175.221 167.406 175.247 167.594 175.258C167.786 175.263 167.961 175.266 168.117 175.266V175.836ZM164.234 171.766C163.943 171.865 163.654 171.979 163.367 172.109C163.081 172.234 162.846 172.367 162.664 172.508C162.471 172.654 162.32 172.841 162.211 173.07C162.102 173.294 162.047 173.56 162.047 173.867C162.047 174.273 162.138 174.568 162.32 174.75C162.508 174.932 162.737 175.023 163.008 175.023C163.294 175.023 163.529 174.966 163.711 174.852C163.898 174.732 164.062 174.586 164.203 174.414L164.234 171.766ZM176.5 169.68C176.5 170.076 176.378 170.424 176.133 170.727C175.888 171.023 175.565 171.172 175.164 171.172C174.784 171.172 174.461 171.076 174.195 170.883C173.935 170.69 173.805 170.406 173.805 170.031C173.805 169.849 173.818 169.708 173.844 169.609C173.87 169.505 173.893 169.409 173.914 169.32C173.674 169.331 173.422 169.414 173.156 169.57C172.891 169.727 172.656 169.935 172.453 170.195V174.484C172.453 174.667 172.482 174.818 172.539 174.938C172.596 175.057 172.693 175.151 172.828 175.219C172.943 175.276 173.128 175.326 173.383 175.367C173.643 175.404 173.831 175.424 173.945 175.43V176H168.719V175.43C168.849 175.419 168.979 175.406 169.109 175.391C169.245 175.37 169.359 175.344 169.453 175.312C169.62 175.255 169.734 175.167 169.797 175.047C169.859 174.927 169.891 174.771 169.891 174.578V170.031C169.891 169.844 169.846 169.677 169.758 169.531C169.669 169.38 169.562 169.26 169.438 169.172C169.344 169.109 169.224 169.057 169.078 169.016C168.938 168.974 168.781 168.945 168.609 168.93V168.359L172.336 168.156L172.453 168.273V169.406H172.484C172.844 168.99 173.224 168.664 173.625 168.43C174.031 168.19 174.453 168.07 174.891 168.07C175.375 168.07 175.763 168.221 176.055 168.523C176.352 168.82 176.5 169.206 176.5 169.68ZM187.07 176H183.391C182.938 175.203 182.523 174.529 182.148 173.977C181.773 173.419 181.419 172.904 181.086 172.43L180.617 172.828V174.531C180.617 174.719 180.643 174.872 180.695 174.992C180.753 175.112 180.859 175.201 181.016 175.258C181.109 175.299 181.219 175.336 181.344 175.367C181.469 175.398 181.594 175.419 181.719 175.43V176H176.883V175.43C177.013 175.419 177.143 175.406 177.273 175.391C177.404 175.37 177.518 175.344 177.617 175.312C177.784 175.255 177.896 175.167 177.953 175.047C178.016 174.927 178.047 174.771 178.047 174.578V165.867C178.047 165.695 178.008 165.518 177.93 165.336C177.857 165.148 177.747 165.008 177.602 164.914C177.503 164.852 177.354 164.799 177.156 164.758C176.958 164.716 176.779 164.69 176.617 164.68V164.109L180.5 163.906L180.617 164.031V172.094C181.003 171.75 181.435 171.352 181.914 170.898C182.398 170.445 182.786 170.07 183.078 169.773C183.25 169.596 183.344 169.464 183.359 169.375C183.38 169.281 183.391 169.224 183.391 169.203C183.391 169.109 183.307 169.031 183.141 168.969C182.979 168.906 182.734 168.852 182.406 168.805V168.25H186.375V168.789C185.854 168.935 185.456 169.073 185.18 169.203C184.909 169.328 184.612 169.497 184.289 169.711C184.076 169.852 183.867 170 183.664 170.156C183.466 170.307 183.237 170.497 182.977 170.727C183.487 171.466 183.958 172.151 184.391 172.781C184.823 173.411 185.276 174.078 185.75 174.781C185.911 175.026 186.112 175.19 186.352 175.273C186.591 175.357 186.831 175.409 187.07 175.43V176ZM191.914 176H187.016V175.43C187.151 175.419 187.281 175.406 187.406 175.391C187.536 175.375 187.651 175.349 187.75 175.312C187.917 175.25 188.029 175.161 188.086 175.047C188.148 174.927 188.18 174.771 188.18 174.578V165.922C188.18 165.724 188.138 165.542 188.055 165.375C187.977 165.203 187.87 165.073 187.734 164.984C187.63 164.917 187.471 164.852 187.258 164.789C187.049 164.727 186.865 164.69 186.703 164.68V164.109L190.633 163.906L190.75 164.031V174.477C190.75 174.669 190.784 174.826 190.852 174.945C190.919 175.065 191.029 175.159 191.18 175.227C191.284 175.273 191.393 175.315 191.508 175.352C191.622 175.388 191.758 175.414 191.914 175.43V176ZM201.07 174.133C200.888 174.43 200.667 174.711 200.406 174.977C200.151 175.237 199.859 175.461 199.531 175.648C199.182 175.846 198.828 175.995 198.469 176.094C198.115 176.198 197.706 176.25 197.242 176.25C196.471 176.25 195.805 176.141 195.242 175.922C194.685 175.703 194.224 175.409 193.859 175.039C193.495 174.669 193.221 174.234 193.039 173.734C192.862 173.229 192.773 172.682 192.773 172.094C192.773 171.562 192.87 171.055 193.062 170.57C193.26 170.081 193.539 169.646 193.898 169.266C194.253 168.896 194.698 168.596 195.234 168.367C195.776 168.138 196.38 168.023 197.047 168.023C197.776 168.023 198.375 168.112 198.844 168.289C199.312 168.466 199.701 168.711 200.008 169.023C200.305 169.32 200.521 169.672 200.656 170.078C200.792 170.479 200.859 170.901 200.859 171.344V171.852H195.578C195.578 172.919 195.784 173.732 196.195 174.289C196.607 174.846 197.26 175.125 198.156 175.125C198.646 175.125 199.086 174.992 199.477 174.727C199.867 174.456 200.201 174.115 200.477 173.703L201.07 174.133ZM198.086 171.164C198.086 170.852 198.07 170.531 198.039 170.203C198.008 169.875 197.953 169.607 197.875 169.398C197.786 169.154 197.664 168.969 197.508 168.844C197.357 168.719 197.164 168.656 196.93 168.656C196.529 168.656 196.208 168.859 195.969 169.266C195.729 169.672 195.599 170.315 195.578 171.195L198.086 171.164Z" fill="black"/>
<path d="M216.797 164.102L211.398 179.312H210.383L215.766 164.102H216.797ZM223.279 163.84V168.064H221.999V163.84H223.279ZM229.57 172.227C229.784 172.414 229.948 172.63 230.062 172.875C230.177 173.12 230.234 173.419 230.234 173.773C230.234 174.487 229.966 175.07 229.43 175.523C228.898 175.977 228.208 176.203 227.359 176.203C226.911 176.203 226.497 176.122 226.117 175.961C225.742 175.799 225.474 175.651 225.312 175.516L225.156 176.023H224.57L224.492 173.344H225.031C225.073 173.547 225.161 173.784 225.297 174.055C225.432 174.326 225.596 174.57 225.789 174.789C225.992 175.018 226.234 175.211 226.516 175.367C226.802 175.523 227.122 175.602 227.477 175.602C227.977 175.602 228.362 175.49 228.633 175.266C228.904 175.036 229.039 174.711 229.039 174.289C229.039 174.07 228.995 173.883 228.906 173.727C228.823 173.565 228.698 173.424 228.531 173.305C228.359 173.185 228.148 173.078 227.898 172.984C227.648 172.885 227.37 172.789 227.062 172.695C226.818 172.622 226.544 172.523 226.242 172.398C225.945 172.268 225.69 172.117 225.477 171.945C225.247 171.763 225.06 171.539 224.914 171.273C224.768 171.008 224.695 170.695 224.695 170.336C224.695 169.706 224.93 169.172 225.398 168.734C225.867 168.297 226.495 168.078 227.281 168.078C227.583 168.078 227.891 168.117 228.203 168.195C228.521 168.273 228.779 168.367 228.977 168.477L229.156 168.07H229.719L229.836 170.547H229.297C229.188 169.995 228.951 169.547 228.586 169.203C228.227 168.854 227.786 168.68 227.266 168.68C226.839 168.68 226.503 168.786 226.258 169C226.013 169.214 225.891 169.471 225.891 169.773C225.891 170.008 225.93 170.203 226.008 170.359C226.091 170.516 226.214 170.648 226.375 170.758C226.531 170.862 226.727 170.961 226.961 171.055C227.201 171.143 227.495 171.245 227.844 171.359C228.188 171.469 228.51 171.596 228.812 171.742C229.12 171.888 229.372 172.049 229.57 172.227ZM238.445 169.211C238.753 169.576 238.99 170 239.156 170.484C239.328 170.964 239.414 171.513 239.414 172.133C239.414 172.742 239.312 173.299 239.109 173.805C238.906 174.305 238.638 174.732 238.305 175.086C237.956 175.445 237.568 175.721 237.141 175.914C236.714 176.107 236.26 176.203 235.781 176.203C235.318 176.203 234.938 176.151 234.641 176.047C234.344 175.943 234.102 175.82 233.914 175.68H233.852V177.992C233.852 178.18 233.888 178.336 233.961 178.461C234.034 178.586 234.146 178.677 234.297 178.734C234.422 178.781 234.599 178.826 234.828 178.867C235.062 178.914 235.255 178.94 235.406 178.945V179.469H231.102V178.945C231.263 178.935 231.419 178.922 231.57 178.906C231.721 178.891 231.857 178.865 231.977 178.828C232.133 178.776 232.242 178.685 232.305 178.555C232.367 178.424 232.398 178.271 232.398 178.094V169.898C232.398 169.742 232.359 169.591 232.281 169.445C232.203 169.299 232.102 169.182 231.977 169.094C231.883 169.031 231.753 168.984 231.586 168.953C231.419 168.917 231.258 168.893 231.102 168.883V168.375L233.727 168.203L233.836 168.297V169.164L233.898 169.18C234.169 168.867 234.505 168.607 234.906 168.398C235.307 168.19 235.706 168.086 236.102 168.086C236.581 168.086 237.018 168.188 237.414 168.391C237.815 168.594 238.159 168.867 238.445 169.211ZM237.172 174.75C237.38 174.427 237.534 174.052 237.633 173.625C237.732 173.198 237.781 172.721 237.781 172.195C237.781 171.81 237.74 171.417 237.656 171.016C237.573 170.615 237.443 170.266 237.266 169.969C237.089 169.667 236.857 169.422 236.57 169.234C236.284 169.047 235.94 168.953 235.539 168.953C235.154 168.953 234.826 169.039 234.555 169.211C234.284 169.378 234.049 169.578 233.852 169.812V174.367C233.898 174.508 233.974 174.654 234.078 174.805C234.188 174.956 234.307 175.086 234.438 175.195C234.599 175.326 234.773 175.432 234.961 175.516C235.148 175.594 235.378 175.633 235.648 175.633C235.94 175.633 236.221 175.557 236.492 175.406C236.763 175.25 236.99 175.031 237.172 174.75ZM244.384 176.16C243.68 176.16 243.062 175.995 242.528 175.664C242.006 175.333 241.595 174.843 241.296 174.192C241.008 173.531 240.864 172.709 240.864 171.728C240.864 170.256 241.184 169.147 241.824 168.4C242.475 167.643 243.334 167.264 244.4 167.264C245.062 167.264 245.6 167.387 246.016 167.632C246.443 167.877 246.79 168.176 247.056 168.528H247.12L247.344 167.424H248.464V174.112C248.464 174.443 248.528 174.677 248.656 174.816C248.784 174.944 248.939 175.008 249.12 175.008C249.206 175.008 249.296 174.997 249.392 174.976C249.488 174.955 249.558 174.939 249.6 174.928V175.952C249.547 175.984 249.472 176.016 249.376 176.048C249.28 176.08 249.174 176.107 249.056 176.128C248.939 176.149 248.822 176.16 248.704 176.16C248.299 176.16 247.963 176.064 247.696 175.872C247.43 175.68 247.238 175.339 247.12 174.848H247.056C246.8 175.211 246.459 175.52 246.032 175.776C245.606 176.032 245.056 176.16 244.384 176.16ZM244.608 174.992C245.216 174.992 245.696 174.885 246.048 174.672C246.411 174.448 246.672 174.112 246.832 173.664C246.992 173.216 247.072 172.661 247.072 172V171.744C247.072 170.677 246.896 169.861 246.544 169.296C246.192 168.72 245.542 168.432 244.592 168.432C243.835 168.432 243.264 168.736 242.88 169.344C242.507 169.941 242.32 170.747 242.32 171.76C242.32 172.784 242.507 173.579 242.88 174.144C243.264 174.709 243.84 174.992 244.608 174.992ZM251.076 176.16C250.916 176.16 250.745 176.149 250.564 176.128C250.383 176.117 250.217 176.096 250.068 176.064L250.244 174.768C250.383 174.8 250.537 174.827 250.708 174.848C250.879 174.869 251.033 174.88 251.172 174.88C251.503 174.88 251.817 174.811 252.116 174.672C252.415 174.533 252.681 174.341 252.916 174.096C253.151 173.84 253.332 173.536 253.46 173.184C253.599 172.821 253.668 172.427 253.668 172V167.424H255.076V176H253.924L253.764 174.432H253.7C253.519 174.741 253.3 175.029 253.044 175.296C252.788 175.563 252.495 175.776 252.164 175.936C251.844 176.085 251.481 176.16 251.076 176.16ZM265.164 176H262.836C262.43 175.411 261.995 174.781 261.531 174.109C261.068 173.438 260.586 172.784 260.086 172.148L259.445 172.75V174.578C259.445 174.766 259.479 174.922 259.547 175.047C259.615 175.167 259.724 175.255 259.875 175.312C260 175.365 260.12 175.404 260.234 175.43C260.349 175.456 260.482 175.474 260.633 175.484V176H256.852V175.484C256.971 175.474 257.096 175.464 257.227 175.453C257.357 175.438 257.466 175.417 257.555 175.391C257.701 175.344 257.81 175.263 257.883 175.148C257.956 175.029 257.992 174.875 257.992 174.688V165.734C257.992 165.542 257.951 165.362 257.867 165.195C257.789 165.023 257.685 164.893 257.555 164.805C257.445 164.721 257.273 164.667 257.039 164.641C256.81 164.615 256.625 164.596 256.484 164.586V164.086L259.336 163.906L259.445 164.023V172.172C259.852 171.766 260.289 171.331 260.758 170.867C261.232 170.398 261.63 169.982 261.953 169.617C261.995 169.57 262.039 169.51 262.086 169.438C262.138 169.359 262.164 169.297 262.164 169.25C262.164 169.109 262.049 169.005 261.82 168.938C261.596 168.87 261.38 168.823 261.172 168.797V168.297H264.562V168.781C264.125 168.911 263.737 169.076 263.398 169.273C263.065 169.466 262.81 169.641 262.633 169.797C262.508 169.901 262.331 170.07 262.102 170.305C261.872 170.539 261.552 170.846 261.141 171.227C261.568 171.753 262.047 172.383 262.578 173.117C263.115 173.852 263.505 174.383 263.75 174.711C263.979 175.018 264.185 175.219 264.367 175.312C264.549 175.406 264.815 175.464 265.164 175.484V176ZM265.344 170.094C265.505 169.786 265.695 169.51 265.914 169.266C266.133 169.016 266.375 168.802 266.641 168.625C266.906 168.448 267.195 168.312 267.508 168.219C267.82 168.125 268.154 168.078 268.508 168.078C269.133 168.078 269.674 168.188 270.133 168.406C270.596 168.625 270.979 168.922 271.281 169.297C271.589 169.672 271.815 170.109 271.961 170.609C272.112 171.104 272.188 171.633 272.188 172.195C272.188 172.685 272.109 173.169 271.953 173.648C271.797 174.128 271.568 174.557 271.266 174.938C270.969 175.312 270.602 175.617 270.164 175.852C269.727 176.086 269.227 176.203 268.664 176.203C268.117 176.203 267.646 176.12 267.25 175.953C266.854 175.786 266.529 175.555 266.273 175.258C266.023 174.961 265.836 174.612 265.711 174.211C265.591 173.805 265.531 173.365 265.531 172.891V172.375H270.633C270.633 171.885 270.583 171.432 270.484 171.016C270.391 170.594 270.24 170.229 270.031 169.922C269.828 169.615 269.562 169.375 269.234 169.203C268.911 169.026 268.521 168.938 268.062 168.938C267.828 168.938 267.612 168.964 267.414 169.016C267.221 169.062 267.036 169.143 266.859 169.258C266.688 169.372 266.521 169.526 266.359 169.719C266.203 169.906 266.047 170.143 265.891 170.43L265.344 170.094ZM267.07 173.031C267.07 173.349 267.091 173.661 267.133 173.969C267.18 174.276 267.263 174.552 267.383 174.797C267.503 175.042 267.667 175.24 267.875 175.391C268.083 175.542 268.352 175.617 268.68 175.617C268.956 175.617 269.208 175.557 269.438 175.438C269.672 175.318 269.875 175.146 270.047 174.922C270.219 174.698 270.354 174.427 270.453 174.109C270.557 173.792 270.617 173.432 270.633 173.031H267.07ZM276.922 176H273.164V175.484C273.284 175.474 273.411 175.464 273.547 175.453C273.682 175.438 273.794 175.417 273.883 175.391C274.029 175.344 274.138 175.263 274.211 175.148C274.284 175.029 274.32 174.875 274.32 174.688V165.766C274.32 165.578 274.279 165.404 274.195 165.242C274.117 165.076 274.013 164.945 273.883 164.852C273.789 164.789 273.617 164.732 273.367 164.68C273.117 164.628 272.917 164.596 272.766 164.586V164.086L275.664 163.906L275.773 164.023V174.594C275.773 174.776 275.807 174.927 275.875 175.047C275.943 175.161 276.052 175.25 276.203 175.312C276.318 175.365 276.43 175.404 276.539 175.43C276.654 175.456 276.781 175.474 276.922 175.484V176ZM287.984 164.102L282.586 179.312H281.57L286.953 164.102H287.984ZM292.039 175.727C292.039 176.102 291.953 176.456 291.781 176.789C291.615 177.122 291.422 177.409 291.203 177.648C290.979 177.898 290.742 178.12 290.492 178.312C290.242 178.505 290.013 178.656 289.805 178.766L289.445 178.242C289.695 178.086 289.919 177.93 290.117 177.773C290.315 177.617 290.477 177.461 290.602 177.305C290.758 177.122 290.891 176.924 291 176.711C291.109 176.497 291.18 176.255 291.211 175.984H290.812C290.464 175.984 290.19 175.893 289.992 175.711C289.799 175.529 289.703 175.284 289.703 174.977C289.703 174.758 289.792 174.547 289.969 174.344C290.146 174.135 290.388 174.031 290.695 174.031C291.143 174.031 291.479 174.182 291.703 174.484C291.927 174.781 292.039 175.195 292.039 175.727ZM303.656 164.102L298.258 179.312H297.242L302.625 164.102H303.656ZM310.139 163.84V168.064H308.859V163.84H310.139ZM316.43 172.227C316.643 172.414 316.807 172.63 316.922 172.875C317.036 173.12 317.094 173.419 317.094 173.773C317.094 174.487 316.826 175.07 316.289 175.523C315.758 175.977 315.068 176.203 314.219 176.203C313.771 176.203 313.357 176.122 312.977 175.961C312.602 175.799 312.333 175.651 312.172 175.516L312.016 176.023H311.43L311.352 173.344H311.891C311.932 173.547 312.021 173.784 312.156 174.055C312.292 174.326 312.456 174.57 312.648 174.789C312.852 175.018 313.094 175.211 313.375 175.367C313.661 175.523 313.982 175.602 314.336 175.602C314.836 175.602 315.221 175.49 315.492 175.266C315.763 175.036 315.898 174.711 315.898 174.289C315.898 174.07 315.854 173.883 315.766 173.727C315.682 173.565 315.557 173.424 315.391 173.305C315.219 173.185 315.008 173.078 314.758 172.984C314.508 172.885 314.229 172.789 313.922 172.695C313.677 172.622 313.404 172.523 313.102 172.398C312.805 172.268 312.549 172.117 312.336 171.945C312.107 171.763 311.919 171.539 311.773 171.273C311.628 171.008 311.555 170.695 311.555 170.336C311.555 169.706 311.789 169.172 312.258 168.734C312.727 168.297 313.354 168.078 314.141 168.078C314.443 168.078 314.75 168.117 315.062 168.195C315.38 168.273 315.638 168.367 315.836 168.477L316.016 168.07H316.578L316.695 170.547H316.156C316.047 169.995 315.81 169.547 315.445 169.203C315.086 168.854 314.646 168.68 314.125 168.68C313.698 168.68 313.362 168.786 313.117 169C312.872 169.214 312.75 169.471 312.75 169.773C312.75 170.008 312.789 170.203 312.867 170.359C312.951 170.516 313.073 170.648 313.234 170.758C313.391 170.862 313.586 170.961 313.82 171.055C314.06 171.143 314.354 171.245 314.703 171.359C315.047 171.469 315.37 171.596 315.672 171.742C315.979 171.888 316.232 172.049 316.43 172.227ZM325.305 169.211C325.612 169.576 325.849 170 326.016 170.484C326.188 170.964 326.273 171.513 326.273 172.133C326.273 172.742 326.172 173.299 325.969 173.805C325.766 174.305 325.497 174.732 325.164 175.086C324.815 175.445 324.427 175.721 324 175.914C323.573 176.107 323.12 176.203 322.641 176.203C322.177 176.203 321.797 176.151 321.5 176.047C321.203 175.943 320.961 175.82 320.773 175.68H320.711V177.992C320.711 178.18 320.747 178.336 320.82 178.461C320.893 178.586 321.005 178.677 321.156 178.734C321.281 178.781 321.458 178.826 321.688 178.867C321.922 178.914 322.115 178.94 322.266 178.945V179.469H317.961V178.945C318.122 178.935 318.279 178.922 318.43 178.906C318.581 178.891 318.716 178.865 318.836 178.828C318.992 178.776 319.102 178.685 319.164 178.555C319.227 178.424 319.258 178.271 319.258 178.094V169.898C319.258 169.742 319.219 169.591 319.141 169.445C319.062 169.299 318.961 169.182 318.836 169.094C318.742 169.031 318.612 168.984 318.445 168.953C318.279 168.917 318.117 168.893 317.961 168.883V168.375L320.586 168.203L320.695 168.297V169.164L320.758 169.18C321.029 168.867 321.365 168.607 321.766 168.398C322.167 168.19 322.565 168.086 322.961 168.086C323.44 168.086 323.878 168.188 324.273 168.391C324.674 168.594 325.018 168.867 325.305 169.211ZM324.031 174.75C324.24 174.427 324.393 174.052 324.492 173.625C324.591 173.198 324.641 172.721 324.641 172.195C324.641 171.81 324.599 171.417 324.516 171.016C324.432 170.615 324.302 170.266 324.125 169.969C323.948 169.667 323.716 169.422 323.43 169.234C323.143 169.047 322.799 168.953 322.398 168.953C322.013 168.953 321.685 169.039 321.414 169.211C321.143 169.378 320.909 169.578 320.711 169.812V174.367C320.758 174.508 320.833 174.654 320.938 174.805C321.047 174.956 321.167 175.086 321.297 175.195C321.458 175.326 321.633 175.432 321.82 175.516C322.008 175.594 322.237 175.633 322.508 175.633C322.799 175.633 323.081 175.557 323.352 175.406C323.622 175.25 323.849 175.031 324.031 174.75ZM331.244 176.16C330.54 176.16 329.921 175.995 329.388 175.664C328.865 175.333 328.454 174.843 328.156 174.192C327.868 173.531 327.724 172.709 327.724 171.728C327.724 170.256 328.044 169.147 328.684 168.4C329.334 167.643 330.193 167.264 331.26 167.264C331.921 167.264 332.46 167.387 332.876 167.632C333.302 167.877 333.649 168.176 333.916 168.528H333.98L334.204 167.424H335.324V174.112C335.324 174.443 335.388 174.677 335.516 174.816C335.644 174.944 335.798 175.008 335.98 175.008C336.065 175.008 336.156 174.997 336.252 174.976C336.348 174.955 336.417 174.939 336.46 174.928V175.952C336.406 175.984 336.332 176.016 336.236 176.048C336.14 176.08 336.033 176.107 335.916 176.128C335.798 176.149 335.681 176.16 335.564 176.16C335.158 176.16 334.822 176.064 334.556 175.872C334.289 175.68 334.097 175.339 333.98 174.848H333.916C333.66 175.211 333.318 175.52 332.892 175.776C332.465 176.032 331.916 176.16 331.244 176.16ZM331.468 174.992C332.076 174.992 332.556 174.885 332.908 174.672C333.27 174.448 333.532 174.112 333.692 173.664C333.852 173.216 333.932 172.661 333.932 172V171.744C333.932 170.677 333.756 169.861 333.404 169.296C333.052 168.72 332.401 168.432 331.452 168.432C330.694 168.432 330.124 168.736 329.74 169.344C329.366 169.941 329.18 170.747 329.18 171.76C329.18 172.784 329.366 173.579 329.74 174.144C330.124 174.709 330.7 174.992 331.468 174.992ZM339.264 169.648L337.84 167.424H340.688L339.264 169.648ZM337.84 176L339.264 173.776L340.688 176H337.84ZM350.57 176H348.242C347.836 175.411 347.401 174.781 346.938 174.109C346.474 173.438 345.992 172.784 345.492 172.148L344.852 172.75V174.578C344.852 174.766 344.885 174.922 344.953 175.047C345.021 175.167 345.13 175.255 345.281 175.312C345.406 175.365 345.526 175.404 345.641 175.43C345.755 175.456 345.888 175.474 346.039 175.484V176H342.258V175.484C342.378 175.474 342.503 175.464 342.633 175.453C342.763 175.438 342.872 175.417 342.961 175.391C343.107 175.344 343.216 175.263 343.289 175.148C343.362 175.029 343.398 174.875 343.398 174.688V165.734C343.398 165.542 343.357 165.362 343.273 165.195C343.195 165.023 343.091 164.893 342.961 164.805C342.852 164.721 342.68 164.667 342.445 164.641C342.216 164.615 342.031 164.596 341.891 164.586V164.086L344.742 163.906L344.852 164.023V172.172C345.258 171.766 345.695 171.331 346.164 170.867C346.638 170.398 347.036 169.982 347.359 169.617C347.401 169.57 347.445 169.51 347.492 169.438C347.544 169.359 347.57 169.297 347.57 169.25C347.57 169.109 347.456 169.005 347.227 168.938C347.003 168.87 346.786 168.823 346.578 168.797V168.297H349.969V168.781C349.531 168.911 349.143 169.076 348.805 169.273C348.471 169.466 348.216 169.641 348.039 169.797C347.914 169.901 347.737 170.07 347.508 170.305C347.279 170.539 346.958 170.846 346.547 171.227C346.974 171.753 347.453 172.383 347.984 173.117C348.521 173.852 348.911 174.383 349.156 174.711C349.385 175.018 349.591 175.219 349.773 175.312C349.956 175.406 350.221 175.464 350.57 175.484V176ZM350.75 170.094C350.911 169.786 351.102 169.51 351.32 169.266C351.539 169.016 351.781 168.802 352.047 168.625C352.312 168.448 352.602 168.312 352.914 168.219C353.227 168.125 353.56 168.078 353.914 168.078C354.539 168.078 355.081 168.188 355.539 168.406C356.003 168.625 356.385 168.922 356.688 169.297C356.995 169.672 357.221 170.109 357.367 170.609C357.518 171.104 357.594 171.633 357.594 172.195C357.594 172.685 357.516 173.169 357.359 173.648C357.203 174.128 356.974 174.557 356.672 174.938C356.375 175.312 356.008 175.617 355.57 175.852C355.133 176.086 354.633 176.203 354.07 176.203C353.523 176.203 353.052 176.12 352.656 175.953C352.26 175.786 351.935 175.555 351.68 175.258C351.43 174.961 351.242 174.612 351.117 174.211C350.997 173.805 350.938 173.365 350.938 172.891V172.375H356.039C356.039 171.885 355.99 171.432 355.891 171.016C355.797 170.594 355.646 170.229 355.438 169.922C355.234 169.615 354.969 169.375 354.641 169.203C354.318 169.026 353.927 168.938 353.469 168.938C353.234 168.938 353.018 168.964 352.82 169.016C352.628 169.062 352.443 169.143 352.266 169.258C352.094 169.372 351.927 169.526 351.766 169.719C351.609 169.906 351.453 170.143 351.297 170.43L350.75 170.094ZM352.477 173.031C352.477 173.349 352.497 173.661 352.539 173.969C352.586 174.276 352.669 174.552 352.789 174.797C352.909 175.042 353.073 175.24 353.281 175.391C353.49 175.542 353.758 175.617 354.086 175.617C354.362 175.617 354.615 175.557 354.844 175.438C355.078 175.318 355.281 175.146 355.453 174.922C355.625 174.698 355.76 174.427 355.859 174.109C355.964 173.792 356.023 173.432 356.039 173.031H352.477ZM362.328 176H358.57V175.484C358.69 175.474 358.818 175.464 358.953 175.453C359.089 175.438 359.201 175.417 359.289 175.391C359.435 175.344 359.544 175.263 359.617 175.148C359.69 175.029 359.727 174.875 359.727 174.688V165.766C359.727 165.578 359.685 165.404 359.602 165.242C359.523 165.076 359.419 164.945 359.289 164.852C359.195 164.789 359.023 164.732 358.773 164.68C358.523 164.628 358.323 164.596 358.172 164.586V164.086L361.07 163.906L361.18 164.023V174.594C361.18 174.776 361.214 174.927 361.281 175.047C361.349 175.161 361.458 175.25 361.609 175.312C361.724 175.365 361.836 175.404 361.945 175.43C362.06 175.456 362.188 175.474 362.328 175.484V176ZM373.391 164.102L367.992 179.312H366.977L372.359 164.102H373.391Z" fill="black"/>
</svg>
