<svg xmlns="http://www.w3.org/2000/svg" width="82" height="23" fill="none"><path fill="#78716C" d="M68.287 14.56c0-4.985 2.343-7.954 6.759-7.954 4.394 0 6.736 2.97 6.736 7.954s-2.342 7.954-6.736 7.954c-4.416-.022-6.759-2.992-6.759-7.954Zm6.76 5.449c2.566 0 2.968-2.614 2.968-5.45 0-2.837-.379-5.451-2.968-5.451-2.565 0-2.967 2.614-2.967 5.45 0 2.837.38 5.45 2.968 5.45ZM25.211.137h3.57v12.627l4.951-5.804h4.26l-5.643 6.558 6.157 8.618h-4.26l-5.4-7.642h-.066v7.642h-3.569v-22Z"/><path fill="#78716C" d="M38.194 14.56c0-4.985 2.342-7.954 6.759-7.954 4.394 0 6.736 2.97 6.736 7.954s-2.342 7.954-6.736 7.954c-4.417-.022-6.76-2.992-6.76-7.954Zm6.738 5.449c2.565 0 2.945-2.614 2.945-5.45 0-2.837-.378-5.451-2.945-5.451-2.565 0-2.968 2.614-2.968 5.45.023 2.837.403 5.45 2.968 5.45ZM57.2 8.778h.067c.492-.776 1.606-2.172 3.949-2.172 3.658 0 5.264 3.102 5.264 7.954 0 4.253-1.473 7.954-6.47 7.954-4.015 0-6.402-2.26-6.402-6.801V.138h3.569l.023 8.64Zm2.833 11.231c2.276 0 2.676-2.97 2.676-5.45 0-2.747-.29-5.672-2.676-5.672-2.165 0-2.833 3.124-2.833 5.671 0 3.79.58 5.451 2.833 5.451ZM21.06 12.698c0 5.672-4.64 10.28-10.35 10.28-5.711 0-10.35-4.608-10.35-10.28C.36 7.004 5 2.418 10.71 2.418c5.71-.021 10.35 4.586 10.35 10.28Z"/><path fill="#fff" d="M9.35 18.215V14.78h1.494l2.588 3.434h2.632l-3.124-4.143a3.761 3.761 0 0 0 1.607-3.102c0-2.105-1.718-3.811-3.838-3.811H7.23v11.056h2.12Zm0-8.95h1.383c.937 0 1.717.775 1.717 1.705 0 .952-.78 1.728-1.717 1.728H9.349V9.264Z"/></svg>