<?xml version="1.0" encoding="UTF-8" standalone="no"?>
<svg
   width="1280"
   height="640"
   viewBox="0 0 1280 640"
   fill="none"
   version="1.1"
   id="svg16"
   sodipodi:docname="share-header.svg"
   inkscape:export-filename="/home/tiger-222/Desktop/gh-header.png"
   inkscape:export-xdpi="96"
   inkscape:export-ydpi="96"
   inkscape:version="1.4 (e7c3feb100, 2024-10-09)"
   xmlns:inkscape="http://www.inkscape.org/namespaces/inkscape"
   xmlns:sodipodi="http://sodipodi.sourceforge.net/DTD/sodipodi-0.dtd"
   xmlns="http://www.w3.org/2000/svg"
   xmlns:svg="http://www.w3.org/2000/svg">
  <defs
     id="defs16" />
  <sodipodi:namedview
     id="namedview16"
     pagecolor="#505050"
     bordercolor="#eeeeee"
     borderopacity="1"
     inkscape:showpageshadow="0"
     inkscape:pageopacity="0"
     inkscape:pagecheckerboard="0"
     inkscape:deskcolor="#d1d1d1"
     inkscape:export-bgcolor="#fbbf24ff"
     inkscape:zoom="0.5125"
     inkscape:cx="574.63415"
     inkscape:cy="113.17073"
     inkscape:window-width="1920"
     inkscape:window-height="1027"
     inkscape:window-x="0"
     inkscape:window-y="26"
     inkscape:window-maximized="1"
     inkscape:current-layer="svg16" />
  <rect
     style="fill:#fbbf24;fill-opacity:1;stroke:none;stroke-width:10.8778;stroke-opacity:1"
     id="rect1"
     width="1280"
     height="640"
     x="0"
     y="0"
     rx="0"
     ry="0" />
  <g
     id="g18"
     transform="matrix(0.89221596,0,0,0.89221596,68.981786,56.378162)"
     style="display:inline"
     sodipodi:insensitive="true">
    <g
       id="g17"
       transform="translate(503.6615,66.341463)">
      <path
         fill-rule="evenodd"
         clip-rule="evenodd"
         d="m 221.1779,12 c 21.08435,0 38.24135,16.825639 38.7722,37.782483 l 0.0121,1.00135 v 91.886657 c 0,20.13463 -16.4298,33.89416 -33.93585,33.96664 v 43.82597 c 0,21.41837 -17.36498,38.78384 -38.78432,38.78384 H 51.498633 c -21.084346,0 -38.240132,-16.82492 -38.771955,-37.78249 L 12.7148,220.4631 V 84.719687 c 0,-21.419826 17.364249,-38.783833 38.783833,-38.783833 H 95.433444 C 97.819377,26.804274 114.1367,12 133.91428,12 Z m -87.26362,9.695958 c -16.06475,0 -29.08788,13.023127 -29.08788,29.087875 v 4.847979 H 51.498633 c -16.064748,0 -29.087875,13.023126 -29.087875,29.087875 V 220.4631 c 7.27e-4,16.06378 13.023611,29.08788 29.087875,29.08788 H 187.24205 c 16.0645,0 29.08739,-13.0241 29.08787,-29.08788 v -55.54354 c 15.32253,6.8022 33.93634,-4.18114 33.93634,-22.24907 V 50.783833 c 0,-16.064748 -13.02409,-29.087875 -29.08836,-29.087875 z"
         fill="#ffffff"
         id="path1"
         style="stroke-width:2.42399" />
      <path
         d="m 221.1779,21.694746 c 16.06427,0 29.08836,13.023127 29.08836,29.087875 v 91.886659 c 0,18.0689 -18.61381,29.052 -33.93634,22.24907 v 55.54354 c 0,16.06499 -13.02288,29.08909 -29.08787,29.08909 H 51.498633 c -16.064748,0 -29.087875,-13.0241 -29.087875,-29.08909 V 84.718475 c 0,-16.064749 13.023127,-29.087875 29.087875,-29.087875 H 104.8264 v -4.847979 c 0,-16.064748 13.02313,-29.087875 29.08788,-29.087875 z"
         fill="#1c1917"
         id="path2"
         style="stroke-width:2.42399" />
      <path
         d="m 66.872544,166.93535 c 4.872947,-2.21989 10.621923,-0.0698 12.841812,4.8029 3.627501,7.96256 8.447119,12.63141 14.832877,15.50747 6.784747,3.05568 16.096257,4.42451 29.151627,4.07618 l 0.49958,-0.002 c 5.12771,0.12314 9.3137,4.24998 9.45211,9.43538 0.14229,5.35265 -4.08297,9.80891 -9.43562,9.95169 l -2.65355,0.0497 c -13.18359,0.14665 -24.98042,-1.32568 -34.977437,-5.828 -11.062119,-4.98203 -19.118733,-13.30698 -24.514534,-25.15132 -2.219647,-4.8727 -0.06933,-10.62168 4.803135,-12.84181 z"
         fill="#ffffff"
         id="path3"
         style="stroke-width:2.42399" />
      <path
         d="m 221.17936,41.086663 c 5.35362,4.85e-4 9.69499,4.341365 9.69499,9.695958 v 91.886659 c 0,4.0357 -4.64437,6.30504 -7.82731,3.82554 l -45.4995,-35.43437 -45.50192,35.43437 c -3.18415,2.4795 -7.82585,0.21016 -7.82585,-3.82554 V 50.782621 c 0,-5.354835 4.34088,-9.695958 9.69596,-9.695958 z"
         fill="#ffffff"
         id="path4"
         style="stroke-width:2.42399" />
    </g>
    <g
       id="g16"
       transform="translate(-121.59716,302.04635)">
      <path
         fill-rule="evenodd"
         clip-rule="evenodd"
         d="m 431.36979,107.19128 c 25.83731,2.4e-4 42.73252,17.88783 42.73494,44.5219 v 5.96302 h -64.20421 v 1.39185 c 0,21.26809 10.93461,34.5867 28.42612,34.5867 10.13713,-2.5e-4 20.87055,-4.57213 30.01384,-13.31764 v 10.73269 c -8.74575,12.52233 -22.46068,19.47943 -37.96452,19.47967 -28.02617,0 -47.30658,-20.4735 -47.30658,-50.88487 0,-31.00768 20.47301,-52.47332 48.30041,-52.47332 z m -0.5963,9.73862 c -12.12479,0 -19.87914,11.92603 -20.87297,31.00768 h 39.95462 c 0,-19.08141 -7.55315,-31.00744 -19.08165,-31.00768 z"
         fill="white"
         id="path5"
         style="fill:#1c1917;stroke-width:2.42399" />
      <path
         fill-rule="evenodd"
         clip-rule="evenodd"
         d="m 526.51381,107.19128 c 22.65945,0 36.97069,12.71964 36.97069,32.99365 v 43.53001 c 0,7.35438 3.37904,11.52825 9.14329,11.52825 1.98767,-2.4e-4 4.17411,-0.59461 6.16178,-1.58844 v 7.55145 c -4.77041,5.96277 -11.5285,8.54772 -18.88288,8.54772 -12.32356,0 -20.67179,-7.55316 -21.86439,-18.88288 -5.16794,12.91962 -16.69644,19.67819 -29.41754,19.67843 -15.7026,0 -28.4237,-10.33686 -28.4237,-26.83453 0,-14.50976 10.53466,-24.84541 30.80891,-30.21213 l 26.23484,-6.95709 v -6.36079 c 0,-10.93195 -7.35438,-17.29226 -19.47918,-17.29226 -10.33589,4.9e-4 -22.06315,5.36793 -30.80891,14.31197 v -11.72678 c 9.73959,-11.5285 23.45695,-18.28658 39.55709,-18.28658 z m -3.37904,52.47332 c -11.92603,3.37904 -18.88288,10.73391 -18.88288,20.27473 0,8.94404 5.96301,14.90584 14.30881,14.90608 10.33589,0 18.88288,-9.73886 18.88288,-23.25503 v -15.9004 z"
         fill="white"
         id="path6"
         style="fill:#1c1917;stroke-width:2.42399" />
      <path
         fill-rule="evenodd"
         clip-rule="evenodd"
         d="m 679.40937,159.6646 c 0,18.68362 0.39754,32.79609 1.19261,47.90215 h -27.2311 l -0.19877,-17.69003 c -5.76425,12.72085 -17.69028,20.67226 -32.20028,20.67275 -23.85205,0 -40.34973,-21.26857 -40.34973,-50.68611 0,-30.80866 17.49151,-52.67402 41.54234,-52.6745 13.9137,0 25.24342,7.35535 30.8089,19.47966 v -19.47966 c 0,-17.689551 -0.19876,-31.603008 -0.99383,-46.709069 h 27.42986 z m -47.70411,-37.96477 c -13.71493,0 -22.85822,14.31123 -22.85822,37.16921 0,23.05699 8.74575,36.97069 22.46068,36.97069 13.71494,-0.39778 22.65946,-14.31123 22.65946,-36.97069 0,-22.85749 -8.94452,-36.77143 -22.26192,-37.16921 z"
         fill="white"
         id="path7"
         style="fill:#1c1917;stroke-width:2.42399" />
      <path
         fill-rule="evenodd"
         clip-rule="evenodd"
         d="m 742.35553,107.19128 c 25.83973,0 42.73252,17.88759 42.73494,44.5219 v 5.96302 h -64.20179 v 1.39185 c 0,21.26784 10.9322,34.5867 28.4237,34.5867 10.13713,0 20.87055,-4.57237 30.01384,-13.31764 v 10.73269 c -8.74575,12.52209 -22.46311,19.47967 -37.96695,19.47967 -28.02374,-4.9e-4 -47.30415,-20.47399 -47.30415,-50.88487 0,-31.00744 20.47301,-52.47308 48.30041,-52.47332 z m -0.5963,9.73862 c -12.12479,4.9e-4 -19.87671,11.92627 -20.87055,31.00768 h 39.9522 c 0,-19.08165 -7.55315,-31.00768 -19.08165,-31.00768 z"
         fill="white"
         id="path8"
         style="fill:#1c1917;stroke-width:2.42399" />
      <path
         fill-rule="evenodd"
         clip-rule="evenodd"
         d="m 984.84175,159.6646 c 0,18.68362 0.39511,32.79609 1.19018,47.90215 h -27.22867 l -0.19877,-17.69003 c -5.76425,12.72109 -17.6927,20.67275 -32.2027,20.67275 -23.85206,-2.4e-4 -40.34731,-21.26857 -40.34731,-50.68611 0,-30.8089 17.49151,-52.6745 41.54234,-52.6745 13.91127,2.4e-4 25.24342,7.35511 30.8089,19.47966 v -19.47966 c 0,-17.689551 -0.20119,-31.603008 -0.99626,-46.709069 h 27.43229 z m -47.70653,-37.96477 c -13.71494,2.4e-4 -22.85823,14.31172 -22.85823,37.16921 0,23.05675 8.74576,36.97021 22.46069,36.97069 13.71493,-0.39753 22.66188,-14.31123 22.66188,-36.97069 0,-22.85798 -8.94695,-36.77168 -22.26434,-37.16921 z"
         fill="white"
         id="path9"
         style="fill:#1c1917;stroke-width:2.42399" />
      <path
         d="m 1104.3469,107.19128 c 9.7396,0 18.6841,1.78866 26.2372,5.16746 v 19.28066 c -9.9383,-9.54082 -19.084,-14.11295 -27.8298,-14.11295 -16.1001,2.4e-4 -27.0299,15.50432 -27.0299,38.36254 0,23.25527 10.9322,37.56699 28.0237,37.56699 9.7396,0 19.6804,-4.57189 27.8299,-12.7211 v 10.53393 c -9.1433,12.7211 -21.8668,19.28066 -37.1719,19.28066 -27.4299,-7.3e-4 -46.7079,-19.2809 -46.7103,-48.29993 0,-32.39905 23.8545,-55.05826 56.6511,-55.05826 z"
         fill="white"
         id="path10"
         style="fill:#1c1917;stroke-width:2.42399" />
      <path
         d="m 864.09071,179.14402 c 8.94453,0 15.90138,6.56053 15.90138,15.50505 0,8.74502 -6.95685,15.50262 -15.90138,15.50262 -8.94209,0 -15.89894,-6.7576 -15.89894,-15.50262 0,-8.94452 6.95442,-15.50505 15.89894,-15.50505 z"
         fill="white"
         id="path11"
         style="fill:#1c1917;stroke-width:2.42399" />
      <path
         d="m 1180.4747,110.37034 24.6471,-0.19876 v 11.1329 l -24.2496,-0.19901 v 60.02695 c 0,9.34181 4.3729,14.31196 11.7273,14.31196 4.1741,0 8.547,-1.39307 12.5223,-4.57334 v 9.34327 c -4.5716,6.16153 -12.7235,9.53961 -21.668,9.53961 -18.2842,-2.5e-4 -28.8188,-10.73294 -28.8188,-28.82027 v -59.82818 l -18.4854,0.19901 v -11.1329 l 18.8829,0.19876 V 82.544156 l 25.4422,-7.752403 z"
         fill="white"
         id="path12"
         style="fill:#1c1917;stroke-width:2.42399" />
      <path
         d="m 373.32736,108.58314 c 3.95595,0 6.93019,0.98244 6.95928,0.99189 v 24.44812 c -5.76425,-2.98127 -10.13955,-4.17314 -14.7112,-4.17314 -11.92602,2.4e-4 -19.87429,9.54252 -19.87429,28.22615 v 6.55713 c 0,15.50384 0.19635,29.22095 0.99142,42.93588 h -28.62005 c 0.79265,-14.70876 0.99384,-28.42564 0.99384,-48.10358 v -2.58252 c 0,-18.28658 -0.20119,-32.00272 -0.99384,-46.71149 h 26.83357 v 26.43651 c 3.37904,-17.2925 13.91127,-28.02471 28.42127,-28.02495 z"
         fill="white"
         id="path13"
         style="fill:#1c1917;stroke-width:2.42399" />
      <path
         d="m 852.36345,108.58314 c 3.95838,0 6.93019,0.98244 6.95928,0.99189 v 24.44812 c -5.76425,-2.98127 -10.13955,-4.17314 -14.7112,-4.17314 -11.92602,4.8e-4 -19.87429,9.54252 -19.87429,28.22615 v 6.55713 c 0,15.50384 0.19635,29.22095 0.99141,42.93588 h -28.62004 c 0.79507,-14.70876 0.99384,-28.42564 0.99384,-48.10358 v -2.58252 c 0,-18.28658 -0.19877,-32.00272 -0.99384,-46.71149 h 26.83356 v 26.43651 c 3.37905,-17.2925 13.9137,-28.02471 28.42128,-28.02495 z"
         fill="white"
         id="path14"
         style="fill:#1c1917;stroke-width:2.42399" />
      <path
         d="m 1033.4282,159.6646 c 0,19.47869 0.1988,33.19362 0.9938,47.90215 h -28.6224 c 0.795,-14.70853 0.9938,-28.42346 0.9938,-47.90215 v -2.78396 c 0,-17.29225 -0.1988,-31.40424 -0.9938,-46.70906 h 27.6286 z"
         fill="white"
         id="path15"
         style="fill:#1c1917;stroke-width:2.42399" />
      <path
         d="m 1019.7157,63.263501 c 8.7433,4.85e-4 15.3026,6.359579 15.3026,14.906324 0,8.347735 -6.5593,14.907778 -15.3026,14.908263 -8.3482,0 -15.1087,-6.560043 -15.1087,-14.908263 0,-8.546988 6.7605,-14.906324 15.1087,-14.906324 z"
         fill="white"
         id="path16"
         style="fill:#1c1917;stroke-width:2.42399" />
    </g>
  </g>
</svg>
