<svg width="211" height="48" viewBox="0 0 211 48" fill="none" xmlns="http://www.w3.org/2000/svg">
<g clip-path="url(#clip0_241_868)">
<path d="M168.137 10.7578C166.548 12.2496 165.396 14.1267 164.802 16.1954C164.207 18.2642 164.19 20.4498 164.753 22.527C165.529 25.7279 167.376 29.1628 170.473 33.0129C174.41 38.0058 178.854 42.6012 183.736 46.7299C184.467 47.3127 185.383 47.6303 186.328 47.6282C186.52 47.6305 186.712 47.6179 186.903 47.5905C187.465 47.5146 188.006 47.3258 188.489 47.036C188.973 46.7462 189.389 46.3617 189.712 45.907L197.364 35.0361L198.14 33.8887L202.479 27.7285L204.574 24.7767H204.536L210.527 16.2083C210.527 16.2083 205.793 16.0045 204.815 16.0196C203.408 15.9735 202.015 16.3005 200.785 16.9654C199.554 17.6303 198.533 18.6081 197.83 19.7942C197.776 19.8848 197.597 20.1566 197.333 20.5492C194.726 24.3238 190.962 29.9329 189.363 32.3033L189.316 32.3788L185.591 37.6633C182.471 34.6754 179.554 31.493 176.86 28.1361C170.248 19.9075 172.584 17.5672 173.872 16.3744C174.648 15.6723 177.527 13.5435 180.64 16.6839C181.625 17.6804 183.907 20.2019 185.079 21.2814C185.388 21.5668 185.801 21.7215 186.227 21.7117H186.297C186.516 21.6953 186.729 21.6359 186.924 21.5373C187.119 21.4387 187.291 21.3029 187.43 21.138L190.892 17.4162C191.125 17.1207 191.244 16.7555 191.23 16.3835C191.216 16.0114 191.069 15.6559 190.814 15.3779C190.038 14.4796 187.95 12.3582 187.469 11.86C185.397 9.84433 182.968 7.13417 177.527 6.90015H177.038C175.359 6.9424 173.705 7.30771 172.172 7.975C170.639 8.6423 169.257 9.59836 168.106 10.788" fill="#D8161A"/>
<path d="M140.182 40.1394C145.117 40.6829 149.495 36.1005 149.347 31.6842C149.215 26.9735 145.156 22.7912 140.337 22.761C135.517 22.7308 131.179 26.9206 131.148 31.503C131.148 36.41 135.028 40.1167 140.182 40.1394ZM140.298 15.4458C149.611 15.4458 157.496 22.9422 157.442 31.7295C157.388 40.5168 149.533 47.6206 140.182 47.5451C130.612 47.4621 123.41 40.5168 123.356 31.5257C123.294 21.84 132.001 15.4986 140.298 15.4458Z" fill="white"/>
<path fill-rule="evenodd" clip-rule="evenodd" d="M110.802 10.7863C111.61 11.6435 112.725 12.1658 113.918 12.245C115.11 12.2225 116.248 11.7558 117.097 10.9411C117.946 10.1264 118.442 9.02594 118.481 7.8665C118.536 5.48849 117.177 3.15576 113.879 3.15576C113.289 3.15977 112.706 3.28081 112.166 3.5115C111.625 3.74218 111.139 4.07766 110.737 4.4974C110.334 4.91715 110.024 5.41232 109.825 5.95267C109.626 6.49302 109.542 7.06717 109.579 7.64001C109.557 8.80253 109.994 9.92904 110.802 10.7863ZM118.477 36.6065C118.483 35.1545 118.489 33.7026 118.489 32.2506L118.458 32.2355V21.9912C118.427 18.9413 118.619 17.628 118.056 17.0547C117.475 16.4629 116.091 16.6594 112.831 16.5482C110.255 16.4576 109.479 17.3333 109.479 19.7717C109.538 23.7289 109.528 27.6884 109.518 31.6476C109.509 34.9469 109.501 38.2461 109.533 41.5437C109.563 44.8177 109.255 46.3209 109.866 47.0086C110.502 47.7259 112.138 47.5561 116.2 47.5831C117.907 47.5831 118.489 46.9716 118.489 45.3183C118.453 42.4144 118.465 39.5105 118.477 36.6065Z" fill="white"/>
<path d="M93.1577 0.00779228C95.2842 0.00779228 97.3564 0.00779228 98.5904 0.00779228C101.175 -0.112995 102.137 1.17793 102.145 3.35965C102.145 17.3635 102.145 31.3748 102.145 45.3862C102.145 46.8961 101.423 47.5906 99.9097 47.583C99.7312 47.583 99.5527 47.583 99.3819 47.583C91.7452 47.5151 93.1732 48.4135 93.1732 41.8003C93.0878 28.9666 93.1732 16.1707 93.1732 3.35965L93.1577 0.00779228Z" fill="white"/>
<path d="M70.69 33.0736C71.4117 32.0167 71.8774 31.4505 72.2422 30.8088C73.9263 27.7212 75.5794 24.626 77.2402 21.5308C79.1339 18.0053 81.9666 16.2011 86.1963 16.6163C89.0834 16.9032 89.3008 17.1825 88.0124 19.636C84.2872 26.5662 80.5464 33.4888 76.7901 40.4039C75.8122 42.2157 74.9119 44.0728 73.8719 45.8469C72.4284 48.3155 69.3396 48.391 67.9814 45.9073C63.0765 36.969 58.2724 27.9779 53.4373 19.0018C52.7311 17.6883 53.0493 16.9636 54.648 16.7371C59.0718 15.9822 62.6496 17.7336 64.6519 21.6139C66.5301 25.2526 68.4625 28.8536 70.7055 33.1038" fill="white"/>
<path fill-rule="evenodd" clip-rule="evenodd" d="M48.4765 9.48791C48.6936 8.95277 48.7995 8.3811 48.7882 7.80592V7.83612C48.7882 5.40527 46.7936 3.18579 44.4654 3.18579C41.3144 3.18579 39.933 5.45056 39.933 7.71533C39.9463 8.87409 40.4098 9.98506 41.2303 10.8252C42.0509 11.6654 43.1677 12.1725 44.3567 12.2449C44.9481 12.239 45.5325 12.1192 46.076 11.8925C46.6195 11.6657 47.1115 11.3365 47.5236 10.9238C47.9356 10.5111 48.2595 10.023 48.4765 9.48791ZM48.7804 36.4866C48.7882 35.0364 48.796 33.5863 48.796 32.1372H48.7572C48.7572 31.0272 48.7615 29.9171 48.7658 28.8074C48.7744 26.5888 48.783 24.3712 48.7572 22.1571C48.7188 18.9909 48.9343 17.6412 48.365 17.0596C47.7819 16.4638 46.3754 16.6739 43.0296 16.5631C40.6082 16.4801 39.8321 17.3482 39.8321 19.6507C39.8814 23.4917 39.872 27.3327 39.8625 31.1725C39.8541 34.5854 39.8458 37.9973 39.8786 41.4076C39.9094 44.8149 39.5998 46.3418 40.22 47.026C40.853 47.7243 42.4544 47.5447 46.3746 47.5904C48.1984 47.6131 48.796 46.9639 48.796 45.1898C48.7494 42.2906 48.7649 39.3881 48.7804 36.4866Z" fill="white"/>
<path d="M17.7755 33.3754C19.902 29.3441 21.8034 25.9545 23.5108 22.4743C25.8857 17.6202 29.7196 15.2422 35.9827 17.4541C34.2365 20.7758 32.5136 24.0748 30.7596 27.3512C27.5621 33.305 24.3568 39.2538 21.1438 45.1975C20.4375 46.5187 19.7313 47.6586 17.8376 47.6057C16.0681 47.5604 15.2687 46.7376 14.5004 45.341C9.84381 36.6594 5.18723 28.0306 0.476327 19.3867C-0.400661 17.7787 -0.152299 16.8955 1.94316 16.6992C6.74719 16.2387 9.42471 17.6579 11.8306 22.1799C13.701 25.7054 15.5637 29.2309 17.7755 33.4132" fill="white"/>
</g>
<defs>
<clipPath id="clip0_241_868">
<rect width="211" height="48" fill="white"/>
</clipPath>
</defs>
</svg>
