<svg xmlns="http://www.w3.org/2000/svg" width="135" height="31" fill="none"><g fill="#78716C" clip-path="url(#a)"><path d="M107.662 6.993a7.656 7.656 0 0 0-2.125 3.466 7.495 7.495 0 0 0-.031 4.036c.494 2.04 1.671 4.23 3.645 6.683a60.598 60.598 0 0 0 8.454 8.743 2.64 2.64 0 0 0 1.652.572 2.661 2.661 0 0 0 1.377-.377 2.58 2.58 0 0 0 .78-.72l4.877-6.928.494-.732 2.766-3.926 1.335-1.881h-.024l3.818-5.462s-3.017-.13-3.64-.12a5.057 5.057 0 0 0-2.569.603 4.878 4.878 0 0 0-1.883 1.803c-.035.058-.149.23-.317.481-1.662 2.406-4.061 5.981-5.08 7.492l-.03.048-2.374 3.368a62.97 62.97 0 0 1-5.565-6.072c-4.214-5.245-2.725-6.736-1.904-7.497.494-.447 2.329-1.804 4.313.197.628.636 2.083 2.243 2.83 2.93.197.183.46.281.731.275h.045a1.035 1.035 0 0 0 .722-.366l2.207-2.372a1.003 1.003 0 0 0-.05-1.299c-.495-.572-1.826-1.925-2.132-2.242-1.321-1.285-2.869-3.012-6.337-3.161h-.311a8.296 8.296 0 0 0-3.102.685 8.098 8.098 0 0 0-2.591 1.793M89.845 25.72c3.145.347 5.935-2.574 5.841-5.389-.084-3.002-2.671-5.668-5.743-5.687-3.072-.02-5.837 2.651-5.856 5.572 0 3.127 2.473 5.49 5.758 5.504Zm.074-15.739c5.935 0 10.961 4.778 10.927 10.38-.035 5.6-5.041 10.128-11.001 10.08-6.1-.053-10.69-4.48-10.725-10.21-.04-6.174 5.51-10.216 10.799-10.25Z"/><path fill-rule="evenodd" d="M71.12 7.012c.514.546 1.225.879 1.985.93a3.01 3.01 0 0 0 2.026-.832 2.85 2.85 0 0 0 .882-1.96c.035-1.515-.83-3.002-2.933-3.002a2.83 2.83 0 0 0-1.091.227c-.345.147-.655.36-.911.628a2.672 2.672 0 0 0-.582.928c-.126.344-.18.71-.156 1.075-.014.741.264 1.46.78 2.006Zm4.89 16.456c.005-.925.008-1.85.008-2.776l-.02-.01v-6.529c-.019-1.944.103-2.78-.255-3.146-.37-.377-1.253-.252-3.33-.323-1.642-.058-2.137.5-2.137 2.055.038 2.522.031 5.046.025 7.569-.006 2.103-.011 4.206.01 6.307.018 2.087-.178 3.045.211 3.484.406.457 1.449.349 4.038.366 1.088 0 1.459-.39 1.459-1.444a335.87 335.87 0 0 1-.008-5.553Z" clip-rule="evenodd"/><path d="M59.873.142h3.463c1.647-.077 2.26.745 2.266 2.136v26.786c0 .963-.46 1.405-1.425 1.4h-.336c-4.868-.043-3.958.53-3.958-3.685-.054-8.18 0-16.336 0-24.501l-.01-2.136ZM45.553 21.217c.46-.674.757-1.035.99-1.444 1.073-1.968 2.127-3.94 3.185-5.913 1.207-2.247 3.013-3.397 5.709-3.133 1.84.183 1.978.361 1.157 1.925-2.374 4.417-4.759 8.83-7.153 13.237-.623 1.155-1.197 2.338-1.86 3.469-.92 1.573-2.888 1.621-3.754.038-3.126-5.697-6.188-11.427-9.27-17.148-.45-.837-.247-1.3.772-1.444 2.82-.48 5.1.636 6.376 3.109 1.197 2.319 2.428 4.614 3.858 7.323"/><path fill-rule="evenodd" d="M31.395 6.184c.138-.341.206-.705.199-1.072v.02c0-1.55-1.272-2.965-2.756-2.965-2.008 0-2.888 1.444-2.888 2.887.008.739.304 1.447.826 1.982a3.044 3.044 0 0 0 1.993.905c.377-.004.75-.08 1.096-.224a2.86 2.86 0 0 0 .923-.618 2.77 2.77 0 0 0 .607-.915Zm.194 17.208c.005-.924.01-1.848.01-2.772h-.025c0-.708.003-1.415.005-2.122.006-1.415.011-2.828-.005-4.24-.025-2.017.113-2.877-.25-3.248-.372-.38-1.268-.246-3.4-.316-1.544-.053-2.039.5-2.039 1.967a479.4 479.4 0 0 1 .02 7.344c-.006 2.175-.01 4.35.01 6.524.02 2.171-.178 3.144.218 3.58.403.446 1.424.331 3.922.36 1.163.015 1.544-.4 1.544-1.53-.03-1.848-.02-3.698-.01-5.547Z" clip-rule="evenodd"/><path d="M11.827 21.409c1.355-2.57 2.567-4.73 3.655-6.948 1.514-3.094 3.958-4.61 7.95-3.2-1.113 2.117-2.211 4.22-3.33 6.308a4771.337 4771.337 0 0 1-6.128 11.375c-.45.842-.9 1.569-2.107 1.535-1.128-.029-1.638-.553-2.127-1.444A2818.221 2818.221 0 0 0 .8 12.493c-.559-1.025-.4-1.588.935-1.713 3.062-.293 4.769.611 6.302 3.493 1.192 2.247 2.38 4.494 3.79 7.16"/></g><defs><clipPath id="a"><path fill="#fff" d="M.498.137h134.484V30.73H.498z"/></clipPath></defs></svg>